<?xml version="1.0" standalone="no"?>
<!DOCTYPE svg PUBLIC "-//W3C//DTD SVG 1.1//EN" "http://www.w3.org/Graphics/SVG/1.1/DTD/svg11.dtd" >
<svg>
<metadata>
Created by FontForge 20110222 at Wed Aug 27 04:30:42 2014
 By deploy user
Copyright (c) 2010 by Stereotypes.de. All rights reserved.
</metadata>
<defs>
<font id="StRyde-Thin" horiz-adv-x="570" >
  <font-face 
    font-family="StRyde-Thin"
    font-weight="400"
    font-stretch="normal"
    units-per-em="1000"
    panose-1="2 0 5 3 2 0 0 2 0 3"
    ascent="732"
    descent="-268"
    x-height="470"
    cap-height="700"
    bbox="-102 -256 1184 946"
    underline-thickness="30"
    underline-position="-130"
    unicode-range="U+000D-FB02"
  />
<missing-glyph horiz-adv-x="778" 
d="M80 0v700h626v-700h-626zM113 666v-632h560v632h-560zM229 356q0 67 47.5 114.5t114.5 47.5t114.5 -47.5t47.5 -114.5t-47.5 -114.5t-114.5 -47.5t-114.5 47.5t-47.5 114.5z" />
    <glyph glyph-name="fi" unicode="fi" horiz-adv-x="580" 
d="M399 439h-235v-427q0 -12 -17 -12q-10 0 -15 5v434h-69q-3 4 -3 14q0 17 23 17h49v117q0 63 27 88t79 25q37 0 57 -3t24.5 -6.5t4.5 -10.5q0 -8 -4 -12h-77q-42 0 -60.5 -18t-18.5 -67v-113h244q27 0 37 -11.5t10 -41.5v-361q0 -23 24 -23h27q4 -4 4 -13q0 -20 -42 -20
q-43 0 -43 39v374q0 26 -26 26zM406 613q0 29 28 29q29 0 29 -29q0 -28 -29 -28q-28 0 -28 28z" />
    <glyph glyph-name="fl" unicode="fl" horiz-adv-x="611" 
d="M164 583v-113h136q2 -6 2 -15q0 -16 -19 -16h-119v-427q0 -12 -17 -12q-10 0 -15 5v434h-69q-3 4 -3 14q0 17 23 17h49v117q0 63 27 88t79 25q37 0 57 -3t24.5 -6.5t4.5 -10.5q0 -8 -4 -12h-77q-42 0 -60.5 -18t-18.5 -67zM440 686v-563q0 -54 17 -72.5t64 -18.5h69
q1 -3 1 -13q0 -19 -70 -19q-60 0 -86.5 24.5t-26.5 88.5v583q7 4 15 4q17 0 17 -14z" />
    <glyph glyph-name=".notdef" horiz-adv-x="778" 
d="M80 0v700h626v-700h-626zM113 666v-632h560v632h-560zM229 356q0 67 47.5 114.5t114.5 47.5t114.5 -47.5t47.5 -114.5t-47.5 -114.5t-114.5 -47.5t-114.5 47.5t-47.5 114.5z" />
    <glyph glyph-name=".null" horiz-adv-x="0" 
 />
    <glyph glyph-name=".null" horiz-adv-x="0" 
 />
    <glyph glyph-name="nonmarkingreturn" horiz-adv-x="333" 
 />
    <glyph glyph-name="CR" unicode="&#xd;" horiz-adv-x="0" 
 />
    <glyph glyph-name="space" unicode=" " horiz-adv-x="279" 
 />
    <glyph glyph-name="exclam" unicode="!" horiz-adv-x="177" 
d="M87 700q17 0 17 -18v-561q-6 -6 -16 -6q-16 0 -16 17v563q7 5 15 5zM60 28q0 29 28 29q29 0 29 -29q0 -28 -29 -28q-28 0 -28 28z" />
    <glyph glyph-name="quotedbl" unicode="&#x22;" horiz-adv-x="225" 
d="M133 571v118q0 12 21 12q14 0 18.5 -9t4.5 -38q0 -37 -7.5 -62.5t-19.5 -25.5t-17 5zM48 571v118q0 12 21 12q14 0 18.5 -9t4.5 -38q0 -37 -7.5 -62.5t-19.5 -25.5t-17 5z" />
    <glyph glyph-name="numbersign" unicode="#" horiz-adv-x="818" 
d="M758 447h-163l-47 -268h200q4 -3 4 -15q0 -17 -40 -17h-170l-36 -207q-5 -4 -17 -4q-17 0 -13 17l34 194h-262l-36 -207q-5 -4 -17 -4q-17 0 -13 17l34 194h-192l-2 3q-2 4 -2 10q0 19 27 19h174l48 268h-199l-2 3q-2 4 -2 10q0 19 27 19h181l41 228q7 5 15 5
q17 0 14 -18l-38 -215h262l41 228q7 5 15 5q17 0 14 -18l-38 -215h194q4 -3 4 -15q0 -17 -40 -17zM301 447l-47 -268h261l48 268h-262z" />
    <glyph glyph-name="dollar" unicode="$" horiz-adv-x="618" 
d="M320 809q17 0 17 -18v-82q63 -3 110 -22t70 -41q10 -10 10 -21q0 -6 -6 -11t-13 -5q-51 59 -171 66v-301q115 -37 166 -83.5t51 -122.5q0 -80 -55 -126t-162 -51v-91q-6 -6 -16 -6q-16 0 -16 17v79q-108 1 -188 46q-50 27 -50 48q0 15 11 19q32 -38 94 -59.5t133 -22.5
v330q-123 42 -169 82t-46 111t52 117t163 49v94q7 5 15 5zM526 168q0 61 -42 99.5t-147 73.5v-320q97 5 143 44t46 103zM119 543q0 -57 41.5 -91t144.5 -68v292q-99 -2 -142.5 -39t-43.5 -94z" />
    <glyph glyph-name="percent" unicode="%" horiz-adv-x="850" 
d="M540 700q18 0 14 -15l-255 -684q-6 -3 -19 -3q-16 0 -8 19l253 680q6 3 15 3zM487 206q0 102 41 155.5t109 53.5t106 -52.5t38 -156.5q0 -208 -147 -208t-147 208zM516 205q0 -179 118 -179t118 179q0 89 -30 135t-85 46t-88 -46.5t-33 -134.5zM40 491q0 102 41 155.5
t109 53.5t106 -52.5t38 -156.5q0 -208 -147 -208t-147 208zM69 490q0 -179 118 -179t118 179q0 89 -30 135t-85 46t-88 -46.5t-33 -134.5z" />
    <glyph glyph-name="ampersand" unicode="&#x26;" horiz-adv-x="833" 
d="M710 411h-93q-2 -86 -37 -177t-95 -154q86 -49 179 -49h85q3 -6 3 -13q0 -18 -85 -18q-105 0 -203 60q-80 -70 -178 -70q-113 0 -173 55.5t-60 160.5q0 165 171 215q-6 39 -6 80q0 197 203 197q34 0 58.5 -4.5t34.5 -11t10 -12.5t-2 -9h-99q-95 0 -134.5 -38t-39.5 -126
q0 -126 58.5 -232.5t152.5 -168.5q57 59 90.5 146t35.5 169h-159q-4 8 -4 13q0 19 29 19h278q4 -3 4 -15q0 -17 -24 -17zM439 76q-78 53 -134 136t-76 183q-66 -20 -106 -68t-40 -121q0 -90 53.5 -139t151.5 -49q83 0 151 58z" />
    <glyph glyph-name="quotesingle" unicode="'" horiz-adv-x="140" 
d="M48 571v118q0 12 21 12q14 0 18.5 -9t4.5 -38q0 -37 -7.5 -62.5t-19.5 -25.5t-17 5z" />
    <glyph glyph-name="parenleft" unicode="(" horiz-adv-x="185" 
d="M28 298q0 181 34 297.5t76 116.5q16 0 17 -17q-42 -27 -69 -132t-27 -265q0 -155 28 -263.5t70 -133.5q0 -21 -17 -21q-42 0 -77 123.5t-35 294.5z" />
    <glyph glyph-name="parenright" unicode=")" horiz-adv-x="185" 
d="M157 294q0 -181 -34 -297.5t-76 -116.5q-16 0 -17 17q42 27 69 132t27 265q0 155 -28 263.5t-70 133.5q0 21 17 21q42 0 77 -123.5t35 -294.5z" />
    <glyph glyph-name="asterisk" unicode="*" horiz-adv-x="540" 
d="M440 498l-150 2l85 -140q-2 -5 -10 -10q-15 -8 -24 9l-71 131l-80 -145q-7 0 -15 5q-13 7 -5 21l81 130l-167 -2q-3 9 -3 13q0 15 17 15l153 -2l-86 141q4 5 10 10q13 8 20 -6l76 -136l79 146q9 0 16 -4q12 -8 2 -24l-77 -127l166 3q2 -6 2 -14q0 -16 -19 -16z" />
    <glyph glyph-name="plus" unicode="+" horiz-adv-x="540" 
d="M286 452v-168h190q4 -3 4 -15q0 -17 -21 -17h-173v-190q-8 -4 -15 -4q-17 0 -17 18v176h-190l-2 4q-2 3 -2 9q0 19 20 19h174v190q3 4 15 4q17 0 17 -26z" />
    <glyph glyph-name="comma" unicode="," horiz-adv-x="140" 
d="M71 0q-12 0 -21.5 7.5t-9.5 20.5q0 29 29 29q31 0 31 -47q0 -36 -10 -62t-24 -26q-12 0 -16 9q21 28 21 69z" />
    <glyph glyph-name="hyphen" unicode="-" horiz-adv-x="432" 
d="M349 252h-285q-4 8 -4 14q0 18 22 18h286q4 -4 4 -15q0 -17 -23 -17z" />
    <glyph glyph-name="period" unicode="." horiz-adv-x="137" 
d="M40 28q0 29 28 29q29 0 29 -29q0 -28 -29 -28q-28 0 -28 28z" />
    <glyph glyph-name="slash" unicode="/" horiz-adv-x="292" 
d="M198 712q17 0 14 -18l-132 -754q-5 -4 -17 -4q-17 0 -13 17l133 754q7 5 15 5z" />
    <glyph glyph-name="zero" unicode="0" horiz-adv-x="585" 
d="M60 281q0 138 64.5 210.5t174.5 72.5q109 0 167.5 -71.5t58.5 -211.5q0 -283 -233 -283q-232 0 -232 283zM89 280q0 -135 52 -194t151 -59q204 0 204 253q0 125 -51 190t-146 65q-96 0 -153 -66t-57 -189z" />
    <glyph glyph-name="one" unicode="1" horiz-adv-x="444" 
d="M228 558q7 5 15 5q17 0 17 -18v-513h145q4 -6 4 -15q0 -17 -24 -17h-311q-4 8 -4 15q0 9 5.5 13t22.5 4h130v473q-30 -28 -80 -44t-89 -16q-14 0 -14 15q0 8 4 12q137 12 179 86z" />
    <glyph glyph-name="two" unicode="2" horiz-adv-x="490" 
d="M28 475q0 15 21.5 35t68.5 38t105 18q205 0 205 -160q0 -50 -29 -103t-68 -92.5t-94 -80t-90 -61.5t-73 -41h387q4 -7 4 -14q0 -14 -19 -14h-418q-3 9 -3 17q0 10 8 15q146 87 206 134q161 124 161 240q0 134 -177 134q-62 0 -113 -24.5t-59 -55.5q-23 0 -23 15z" />
    <glyph glyph-name="three" unicode="3" horiz-adv-x="518" 
d="M422 387q-1 64 -50 106t-135 42q-68 0 -115 -28t-52 -67q-14 0 -19.5 3t-5.5 14q0 32 50.5 69t142.5 37q98 0 156 -50t58 -127q0 -57 -32 -101.5t-84 -57.5v-2q59 -10 98 -51.5t39 -113.5q0 -86 -58.5 -138t-178.5 -52q-59 0 -102 15.5t-64 39t-30.5 44.5t-9.5 40
q0 25 27 21q0 -52 42.5 -92t135.5 -40q107 0 157.5 45.5t50.5 118.5q0 66 -47.5 105.5t-119.5 39.5h-33q-12 0 -12 15q0 9 4 17q97 0 142.5 40.5t44.5 107.5z" />
    <glyph glyph-name="four" unicode="4" 
d="M415 317q14 0 14 -14v-273h97q3 -4 3 -15q0 -15 -14 -15h-86v-149q-5 -4 -18 -4q-14 0 -14 16v137h-353q-3 6 -3 14t3 16l162 504q4 3 16 3q19 0 12 -20l-160 -487h323v282q7 5 18 5z" />
    <glyph glyph-name="five" unicode="5" horiz-adv-x="527" 
d="M445 529h-331l-10 -285q74 34 158 34q112 0 173.5 -50t61.5 -155q0 -95 -59.5 -153.5t-182.5 -58.5q-48 0 -86.5 12t-61 29.5t-37.5 39.5t-20 40.5t-5 34.5q0 28 25 22q0 -58 44.5 -104t139.5 -46q110 0 161 51t51 135q0 88 -54.5 130.5t-149.5 42.5q-52 0 -108.5 -16
t-62.5 -16q-18 0 -18 17l9 323q8 5 20 5h363q4 -6 4 -15q0 -17 -24 -17z" />
    <glyph glyph-name="six" unicode="6" horiz-adv-x="556" 
d="M60 315q0 376 242 376q57 0 101 -16t63 -34.5t19 -32.5q0 -10 -13 -18q-59 72 -170 72q-104 0 -155 -85t-56 -230q92 49 199 49q100 0 161 -48.5t61 -153.5q0 -91 -51 -147.5t-158 -56.5q-243 0 -243 325zM290 365q-119 0 -199 -54q1 -150 52 -221.5t159 -71.5
q95 0 137.5 49t42.5 129q0 84 -53 126.5t-139 42.5z" />
    <glyph glyph-name="seven" unicode="7" horiz-adv-x="462" 
d="M194 -130q-20 0 -13 20l229 638h-406q-4 6 -4 18q0 14 24 14h421q2 -6 2 -11t-5 -22l-232 -654q-4 -3 -16 -3z" />
    <glyph glyph-name="eight" unicode="8" horiz-adv-x="536" 
d="M45 181q0 76 39 121t97 62q-110 45 -110 166q0 75 52 118t143 43q97 0 149.5 -44t52.5 -122q0 -62 -33.5 -110.5t-85.5 -67.5q142 -49 142 -169q0 -87 -55 -137.5t-174 -50.5q-109 0 -163 52t-54 139zM284 336q-40 8 -59 13q-64 -11 -107.5 -53t-43.5 -117
q0 -71 46.5 -116t141.5 -45q105 0 152 43t47 113q0 68 -50 108t-127 54zM100 530q0 -41 14.5 -71t43.5 -48.5t58.5 -28.5t72.5 -19l14 -3q62 12 98.5 57t36.5 109q0 63 -44 100t-125 37q-77 0 -123 -37t-46 -96z" />
    <glyph glyph-name="nine" unicode="9" horiz-adv-x="550" 
d="M490 205q0 -174 -55.5 -258.5t-186.5 -84.5q-57 0 -106.5 16.5t-74 36t-24.5 33.5q0 9 13 17q19 -23 70 -49t122 -26q112 0 161 73.5t50 233.5q-79 -54 -214 -54q-89 0 -147 48t-58 144q0 104 54.5 166t167.5 62q125 0 176.5 -81t51.5 -277zM246 171q131 0 212 63
q-3 165 -47 233t-148 68q-100 0 -146 -55.5t-46 -143.5q0 -77 50 -121t125 -44z" />
    <glyph glyph-name="colon" unicode=":" horiz-adv-x="137" 
d="M40 28q0 29 28 29q29 0 29 -29q0 -28 -29 -28q-28 0 -28 28zM40 471q0 29 28 29q29 0 29 -29q0 -28 -29 -28q-28 0 -28 28z" />
    <glyph glyph-name="semicolon" unicode=";" horiz-adv-x="140" 
d="M71 0q-12 0 -21.5 7.5t-9.5 20.5q0 29 29 29q31 0 31 -47q0 -36 -10 -62t-24 -26q-12 0 -16 9q21 28 21 69zM43 471q0 29 28 29q29 0 29 -29q0 -28 -29 -28q-28 0 -28 28z" />
    <glyph glyph-name="less" unicode="&#x3c;" horiz-adv-x="363" 
d="M56 256l239 231q3 2 9 2q4 0 9 -5t5 -9q0 -6 -7 -13l-228 -220l230 -216q4 -6 4 -11q0 -4 -4.5 -9.5t-8.5 -5.5q-7 0 -14 7l-236 222q-4 5 -4 12q0 9 6 15z" />
    <glyph glyph-name="equal" unicode="=" horiz-adv-x="540" 
d="M464 158h-401q-3 12 -3 16q0 16 16 16h401q3 -5 3 -15q0 -17 -16 -17zM464 331h-401q-3 12 -3 16q0 16 16 16h401q3 -5 3 -15q0 -17 -16 -17z" />
    <glyph glyph-name="greater" unicode="&#x3e;" horiz-adv-x="363" 
d="M307 233l-239 -231q-3 -2 -9 -2q-4 0 -9 5t-5 9q0 6 7 13l228 220l-230 216q-4 6 -4 11q0 4 4.5 9.5t8.5 5.5q7 0 14 -7l236 -222q4 -5 4 -12q0 -9 -6 -15z" />
    <glyph glyph-name="question" unicode="?" horiz-adv-x="489" 
d="M414 480q0 92 -53 136.5t-136 44.5q-68 0 -115 -27.5t-52 -66.5q-14 0 -19.5 3t-5.5 14q0 32 50.5 69t142.5 37q93 0 155 -54.5t62 -155.5q0 -70 -33 -118.5t-77.5 -69.5t-97.5 -25l3 -154q-8 -4 -18 -4q-11 0 -11 17l-3 152q0 12 4 16q90 2 147 48t57 138zM199 28
q0 29 28 29q29 0 29 -29q0 -28 -29 -28q-28 0 -28 28z" />
    <glyph glyph-name="at" unicode="@" horiz-adv-x="877" 
d="M668 -85q12 -7 12 -13q0 -12 -13 -19q-96 -48 -235 -48q-166 0 -279 107t-113 283q0 181 109.5 290t289.5 109q177 0 286.5 -105t109.5 -269q0 -108 -53 -179t-125 -71q-79 0 -79 59v42q-107 -101 -202 -101q-61 0 -93 36t-32 94q0 46 31.5 76.5t90.5 34.5l205 16v76
q0 86 -124 86q-47 0 -90.5 -11t-61.5 -22q-13 3 -13 17q0 20 52 34t113 14q27 0 51 -5t48.5 -16.5t39 -35t14.5 -57.5v-266q0 -27 9.5 -35.5t37.5 -8.5q60 0 106.5 62t46.5 163q0 148 -102 244t-266 96q-167 0 -267.5 -100t-100.5 -267q0 -163 104.5 -261.5t257.5 -98.5
q119 0 235 50zM379 30q89 0 199 104v94l-205 -16q-45 -4 -68 -26.5t-23 -57.5q0 -43 25 -70.5t72 -27.5z" />
    <glyph glyph-name="A" unicode="A" horiz-adv-x="627" 
d="M36 0q-11 0 -16 5l274 689q9 6 20 6q15 0 21 -17l272 -673q-3 -10 -14 -10q-13 0 -17 11l-74 182h-375l-74 -184q-4 -9 -17 -9zM313 657l-175 -435h352z" />
    <glyph glyph-name="B" unicode="B" horiz-adv-x="667" 
d="M135 700h226q90 0 137.5 -39t47.5 -129q0 -126 -102 -166q143 -35 143 -171q0 -52 -20 -91t-53.5 -61t-73 -32.5t-84.5 -10.5h-219q-17 0 -17 16v679q7 5 15 5zM335 348h-185v-318h198q207 0 207 165q0 84 -57.5 118.5t-162.5 34.5zM150 377h200q166 4 166 154
q0 81 -40 111.5t-127 30.5h-199v-296z" />
    <glyph glyph-name="C" unicode="C" horiz-adv-x="662" 
d="M593 122q6 2 12.5 -1t6.5 -11q0 -12 -9 -23q-76 -97 -234 -97q-137 0 -213 88t-76 273q0 175 76 267t210 92q84 0 142 -29t87 -76q7 -11 7 -21q0 -5 -6.5 -8.5t-13.5 -1.5q-37 56 -86.5 80.5t-129.5 24.5q-120 0 -187.5 -85.5t-67.5 -242.5q0 -330 258 -330
q149 0 224 101z" />
    <glyph glyph-name="D" unicode="D" horiz-adv-x="709" 
d="M135 700h134q189 0 274.5 -86.5t85.5 -267.5q0 -187 -81 -266.5t-244 -79.5h-167q-17 0 -17 16v679q7 5 15 5zM277 669h-125v-637h151q150 0 222.5 71.5t72.5 242.5q0 164 -75.5 243.5t-245.5 79.5z" />
    <glyph glyph-name="E" unicode="E" horiz-adv-x="658" 
d="M508 346h-356v-314h442q4 -3 4 -15q0 -17 -24 -17h-438q-16 0 -16 17v679q5 4 15 4h459q4 -3 4 -15q0 -17 -24 -17h-422v-290h376q4 -3 4 -15q0 -17 -24 -17z" />
    <glyph glyph-name="F" unicode="F" horiz-adv-x="648" 
d="M508 331h-356v-328q-6 -3 -16 -3q-16 0 -16 17v679q5 4 15 4h459q4 -3 4 -15q0 -17 -24 -17h-422v-305h376q4 -3 4 -15q0 -17 -24 -17z" />
    <glyph glyph-name="G" unicode="G" horiz-adv-x="728" 
d="M599 309h-205q-3 5 -3 15q0 17 29 17h177q31 0 31 -33v-303q-6 -6 -16 -6q-13 0 -13 17v90q-95 -116 -228 -116q-123 0 -207 90.5t-84 270.5q0 171 83 265t209 94q67 0 124.5 -16.5t85 -35.5t27.5 -33q0 -8 -5.5 -12.5t-10.5 -2.5q-83 69 -219 69q-113 0 -188 -87.5
t-75 -240.5q0 -86 21 -151.5t58.5 -103.5t83 -56.5t98.5 -18.5q66 0 128 35t99 92v161z" />
    <glyph glyph-name="H" unicode="H" horiz-adv-x="747" 
d="M610 700q17 0 17 -18v-676q-6 -6 -16 -6q-16 0 -16 17v323h-443v-334q-6 -6 -16 -6q-16 0 -16 17v678q7 5 15 5q17 0 17 -18v-312h443v325q7 5 15 5z" />
    <glyph glyph-name="I" unicode="I" horiz-adv-x="272" 
d="M135 700q17 0 17 -18v-676q-6 -6 -16 -6q-16 0 -16 17v678q7 5 15 5z" />
    <glyph glyph-name="J" unicode="J" horiz-adv-x="366" 
d="M230 700q16 0 16 -17v-566q0 -64 -30.5 -90.5t-90.5 -26.5q-105 0 -105 24q0 6 3 14h101q45 0 67.5 21.5t22.5 72.5v563q8 5 16 5z" />
    <glyph glyph-name="K" unicode="K" horiz-adv-x="603" 
d="M137 700q15 0 15 -18v-356q96 70 174.5 170.5t125.5 201.5q8 2 13 2q11 0 11 -11q0 -12 -16 -42q-76 -148 -205 -273q26 -27 65.5 -89.5t71.5 -115.5t70 -95.5t67 -42.5h21q3 -5 3 -12q0 -19 -35 -19q-31 0 -71.5 43.5t-73.5 97.5t-74 119t-66 93q-37 -35 -81 -66v-282
q-5 -5 -19 -5q-13 0 -13 16v679q7 5 17 5z" />
    <glyph glyph-name="L" unicode="L" horiz-adv-x="540" 
d="M138 700q14 0 14 -18v-650h364q4 -4 4 -15q0 -17 -24 -17h-360q-16 0 -16 17v679q5 4 18 4z" />
    <glyph glyph-name="M" unicode="M" horiz-adv-x="908" 
d="M451 44q-16 0 -23 18l-259 594l-39 -645q-1 -11 -13 -11q-9 0 -17 4l43 673q2 23 21 23q12 0 19 -3l269 -616l248 603q6 16 25 16q10 0 19 -7l64 -689q-5 -4 -16 -4q-14 0 -15 11l-56 646l-246 -596q-6 -17 -24 -17z" />
    <glyph glyph-name="N" unicode="N" horiz-adv-x="747" 
d="M596 8l-446 623l2 -626q-7 -5 -17 -5q-15 0 -15 16v680q8 4 15 4q8 0 14 -7l448 -635l-2 637q7 5 15 5q17 0 17 -18v-678q-5 -4 -16 -4q-9 0 -15 8z" />
    <glyph glyph-name="O" unicode="O" horiz-adv-x="731" 
d="M80 351q0 175 77.5 267t214.5 92q131 0 205 -92t74 -267q0 -361 -280 -361q-137 0 -214 88t-77 273zM110 351q0 -330 262 -330q249 0 249 330q0 158 -66 243t-183 85q-126 0 -194 -85t-68 -243z" />
    <glyph glyph-name="P" unicode="P" horiz-adv-x="616" 
d="M135 700h226q86 0 135.5 -52t49.5 -148q0 -107 -60 -156t-159 -49h-175v-290q-7 -5 -18 -5q-14 0 -14 16v680q5 4 15 4zM354 673h-202v-351h163q95 0 148 40t53 137q0 174 -162 174z" />
    <glyph glyph-name="Q" unicode="Q" horiz-adv-x="731" 
d="M80 351q0 175 77.5 267t214.5 92q131 0 205 -92t74 -267q0 -293 -186 -349q30 -64 70 -98t81 -34h49q2 -6 2 -9q0 -19 -44 -19q-115 0 -186 154q-31 -6 -66 -6q-137 0 -214 88t-77 273zM110 351q0 -330 262 -330q249 0 249 330q0 158 -66 243t-183 85q-126 0 -194 -85
t-68 -243z" />
    <glyph glyph-name="R" unicode="R" horiz-adv-x="668" 
d="M135 700h226q191 0 191 -185q0 -84 -51.5 -134t-127.5 -59q29 -33 67.5 -111t73 -129t70.5 -51h21q3 -5 3 -12q0 -19 -35 -19q-31 0 -63.5 38t-57 86.5t-57.5 107.5t-59 88h-184v-315q-5 -5 -15 -5q-17 0 -17 16v679q7 5 15 5zM349 673h-197v-325h184q79 0 132.5 41.5
t53.5 125.5q0 87 -43 122.5t-130 35.5z" />
    <glyph glyph-name="S" unicode="S" horiz-adv-x="627" 
d="M305 710q80 0 135 -19.5t80 -44.5q10 -10 10 -21q0 -6 -6 -11t-13 -5q-58 67 -207 67q-95 0 -138.5 -37.5t-43.5 -95.5q0 -60 47 -95t171 -74q114 -36 165.5 -82t51.5 -124q0 -85 -62 -131.5t-181 -46.5q-110 0 -194 46q-50 27 -50 48q0 15 11 19q33 -38 96.5 -60
t134.5 -22q111 0 164 39.5t53 107.5q0 63 -44.5 101.5t-157.5 75.5q-135 45 -184.5 85.5t-49.5 113.5q0 72 52.5 119t159.5 47z" />
    <glyph glyph-name="T" unicode="T" horiz-adv-x="614" 
d="M570 668h-247v-663q-5 -5 -18 -5q-14 0 -14 16v652h-267q-4 8 -4 17q0 15 24 15h546q4 -5 4 -15q0 -17 -24 -17z" />
    <glyph glyph-name="U" unicode="U" horiz-adv-x="718" 
d="M576 260v435q7 5 15 5q17 0 17 -18v-429q0 -131 -60.5 -197t-188.5 -66t-186 64.5t-58 198.5v442q7 5 15 5q17 0 17 -18v-421q0 -124 48.5 -182t163.5 -58q117 0 167 57.5t50 181.5z" />
    <glyph glyph-name="V" unicode="V" horiz-adv-x="649" 
d="M47 700q11 0 17 -13l265 -646q69 113 158 326t106 329q7 4 15 4q11 0 11 -8t-4 -31q-19 -106 -107 -315.5t-167 -342.5q-15 -3 -17 -3q-11 0 -18 15l-276 682q8 3 17 3z" />
    <glyph glyph-name="W" unicode="W" horiz-adv-x="1019" 
d="M441 700q11 0 17 -13l271 -646q64 105 145.5 319.5t98.5 335.5q7 4 15 4q11 0 11 -8t-4 -31q-20 -113 -100 -323t-154 -335q-15 -3 -17 -3q-11 0 -18 15l-173 418q-85 -214 -212 -430q-15 -3 -17 -3q-11 0 -18 15l-266 682q8 3 17 3q11 0 17 -13l255 -646
q44 73 105.5 196t103.5 232l-94 228q8 3 17 3z" />
    <glyph glyph-name="X" unicode="X" horiz-adv-x="668" 
d="M99 700q17 0 30 -18l208 -293l208 297q9 14 24 14q13 0 16 -7l-231 -327l254 -356q-6 -10 -20 -10q-16 0 -23 10l-232 330l-235 -326q-10 -14 -23 -14q-11 0 -15 12l256 351l-231 329q3 8 14 8z" />
    <glyph glyph-name="Y" unicode="Y" horiz-adv-x="593" 
d="M318 225v-220q-7 -5 -17 -5q-15 0 -15 17v208q-148 193 -236 467q8 8 19 8q12 0 16 -11q84 -262 219 -440q67 91 134.5 233.5t78.5 214.5q6 3 15 3q11 0 11 -12q-2 -64 -80.5 -221t-144.5 -242z" />
    <glyph glyph-name="Z" unicode="Z" horiz-adv-x="656" 
d="M565 670l-478 -637h525q4 -6 4 -15q0 -18 -26 -18h-548q-2 8 -2 13q0 10 8 20l480 635h-459l-2 4q-2 3 -2 9q0 19 26 19h477q4 -3 4 -12q0 -8 -7 -18z" />
    <glyph glyph-name="bracketleft" unicode="[" horiz-adv-x="254" 
d="M59 -102v807q11 7 29 7h139q4 -4 4 -16q0 -17 -16 -17h-125v-764h137q4 -6 4 -16q0 -18 -19 -18h-148q-5 7 -5 17z" />
    <glyph glyph-name="backslash" unicode="\" horiz-adv-x="292" 
d="M62 712q8 0 15 -5l133 -754q4 -17 -13 -17q-12 0 -17 4l-132 754q-3 18 14 18z" />
    <glyph glyph-name="bracketright" unicode="]" horiz-adv-x="254" 
d="M231 694v-807q-11 -7 -29 -7h-139q-4 4 -4 16q0 17 16 17h125v764h-137q-4 6 -4 16q0 18 19 18h148q5 -7 5 -17z" />
    <glyph glyph-name="asciicircum" unicode="^" horiz-adv-x="485" 
d="M382 577q-5 -17 -21 -17q-6 0 -13 4q-14 7 -54 38t-59 43q-19 -12 -59 -43t-54 -38q-7 -4 -13 -4q-16 0 -21 17q14 9 46 35.5t58.5 45.5t41.5 19q13 0 39 -18.5t59 -45t50 -36.5z" />
    <glyph glyph-name="underscore" unicode="_" horiz-adv-x="618" 
d="M583 -119h-560q-3 12 -3 15q0 17 21 17h554q3 -3 3 -15q0 -17 -15 -17z" />
    <glyph glyph-name="grave" unicode="`" horiz-adv-x="547" 
d="M326 577q-5 -17 -21 -17q-9 0 -35 19t-59 44t-54 35q0 19 23 19q13 0 40 -19t59.5 -45.5t46.5 -35.5z" />
    <glyph glyph-name="a" unicode="a" horiz-adv-x="492" 
d="M89 405q-12 1 -12 14q0 22 52.5 41.5t108.5 19.5q38 0 69 -8.5t56.5 -37.5t25.5 -77v-288q0 -22 7 -31t23 -9h28q5 -7 5 -15q0 -14 -41 -14q-52 0 -52 63v32q-91 -105 -193 -105q-63 0 -94.5 38.5t-31.5 100.5q0 111 117 122l202 18v87q0 94 -119 94q-47 0 -91 -14.5
t-60 -30.5zM166 19q103 0 193 115v104l-202 -18q-87 -9 -87 -93q0 -47 24.5 -77.5t71.5 -30.5z" />
    <glyph glyph-name="b" unicode="b" horiz-adv-x="520" 
d="M111 687v-285q61 78 157 78q80 0 131 -60.5t51 -177.5q0 -129 -53.5 -190.5t-145.5 -61.5q-85 0 -147 41q-24 18 -24 35v629q7 5 17 5q14 0 14 -13zM266 450q-93 0 -155 -90v-295q58 -47 139 -47q79 0 124.5 55t45.5 170q0 104 -43.5 155.5t-110.5 51.5z" />
    <glyph glyph-name="c" unicode="c" horiz-adv-x="487" 
d="M427 426q2 -8 -10 -16q-36 23 -62 31t-81 8q-76 0 -124 -51t-48 -161q0 -101 49.5 -159t132.5 -58q46 0 85.5 14t54.5 29q10 -6 10 -14q0 -15 -24 -29q-52 -30 -125 -30q-98 0 -156.5 65.5t-58.5 181.5q0 124 59 183.5t145 59.5q39 0 67.5 -5.5t40 -11t30.5 -17.5
q13 -7 15 -20z" />
    <glyph glyph-name="d" unicode="d" horiz-adv-x="573" 
d="M422 57v1q-70 -68 -154 -68q-88 0 -143 60.5t-55 188.5q0 64 18.5 112.5t49 75.5t65.5 40t73 13q90 0 146 -63v267q0 16 14 16q9 0 17 -4v-632q0 -34 34 -34h32q4 -5 4 -15q0 -15 -37 -15q-64 0 -64 57zM263 18q100 0 159 77v282q-30 39 -61 56t-86 17q-67 0 -121 -52
t-54 -160q0 -110 46.5 -165t116.5 -55z" />
    <glyph glyph-name="e" unicode="e" horiz-adv-x="503" 
d="M438 250h-342v-23q0 -96 48.5 -151.5t126.5 -55.5q51 0 92.5 17t61.5 35q13 -4 13 -16q0 -11 -8 -17q-59 -49 -160 -49q-91 0 -148 64.5t-57 173.5q0 122 60 187t146 65q85 0 128.5 -56t43.5 -141q0 -20 -5 -33zM269 452q-65 0 -111.5 -44.5t-58.5 -127.5h313
q0 77 -35.5 124.5t-107.5 47.5z" />
    <glyph glyph-name="f" unicode="f" horiz-adv-x="344" 
d="M164 583v-113h136q2 -6 2 -15q0 -16 -19 -16h-119v-427q0 -12 -17 -12q-10 0 -15 5v434h-69q-3 4 -3 14q0 17 23 17h49v117q0 63 27 88t79 25q37 0 57 -3t24.5 -6.5t4.5 -10.5q0 -8 -4 -12h-77q-42 0 -60.5 -18t-18.5 -67z" />
    <glyph glyph-name="g" unicode="g" horiz-adv-x="501" 
d="M412 439h-66q45 -47 45 -139q0 -178 -163 -178q-56 0 -91 21q-20 -39 -20 -76q0 -32 18.5 -47.5t71.5 -15.5h166q50 0 74 -27t24 -67q0 -75 -58.5 -120.5t-166.5 -45.5q-85 0 -140.5 32t-55.5 59q0 16 16 20q23 -34 68.5 -57.5t109.5 -23.5q92 0 144.5 34.5t52.5 97.5
q0 68 -77 68h-165q-63 0 -89 22t-26 64q0 44 28 102q-43 43 -43 138q0 88 44.5 134t121.5 46q55 0 93 -26q0 16 26 16h86q3 -3 3 -14q0 -17 -31 -17zM100 300q0 -79 33 -113.5t95 -34.5q131 0 131 148q0 74 -32 112t-92 38q-63 0 -99 -39t-36 -111z" />
    <glyph glyph-name="h" unicode="h" horiz-adv-x="537" 
d="M96 700q16 0 16 -18v-325q33 56 86 89.5t111 33.5q63 0 96 -38.5t33 -110.5v-275q0 -27 23 -27h32q4 -4 4 -13q0 -16 -42 -16q-49 0 -49 59v268q0 123 -98 123q-59 0 -114.5 -42t-81.5 -109v-294q-5 -5 -16 -5q-16 0 -16 16v680q8 4 16 4z" />
    <glyph glyph-name="i" unicode="i" horiz-adv-x="284" 
d="M112 470q27 0 37 -11.5t10 -41.5v-361q0 -23 24 -23h27q4 -4 4 -13q0 -20 -42 -20q-43 0 -43 39v370q0 26 -26 26h-28q-5 7 -5 16q0 19 42 19zM110 613q0 29 28 29q29 0 29 -29q0 -28 -29 -28q-28 0 -28 28z" />
    <glyph glyph-name="j" unicode="j" horiz-adv-x="286" 
d="M122 470q30 0 43.5 -13t13.5 -43v-479q0 -100 -107 -100q-33 0 -52.5 7t-19.5 17q0 6 2 11h72q73 0 73 72v467q0 26 -23 26h-42q-3 6 -3 14q0 21 43 21zM128 613q0 29 28 29q29 0 29 -29q0 -28 -29 -28q-28 0 -28 28z" />
    <glyph glyph-name="k" unicode="k" horiz-adv-x="420" 
d="M95 700q17 0 17 -18v-428q81 27 137.5 91.5t56.5 120.5q5 4 14 4q13 0 13 -11q0 -57 -58.5 -126t-125.5 -92q26 -13 56 -49.5t52.5 -71.5t53.5 -63t60 -28h28q2 -4 2 -10q0 -19 -34 -19t-70 30.5t-62 69t-60 78t-63 52.5v-224q-6 -6 -16 -6q-16 0 -16 17v678q7 5 15 5z
" />
    <glyph glyph-name="l" unicode="l" horiz-adv-x="293" 
d="M122 686v-563q0 -54 17 -72.5t64 -18.5h69q1 -3 1 -13q0 -19 -70 -19q-60 0 -86.5 24.5t-26.5 88.5v583q7 4 15 4q17 0 17 -14z" />
    <glyph glyph-name="m" unicode="m" horiz-adv-x="886" 
d="M95 470q29 0 41 -12t12 -41v-56q76 119 176 119q113 0 130 -123q79 123 189 123q66 0 103 -44t37 -125v-253q0 -27 18 -27h42q3 -6 3 -14q0 -17 -49 -17q-47 0 -47 52v255q0 71 -28.5 107t-80.5 36q-104 0 -184 -141v-251q0 -27 18 -27h36q3 -6 3 -15q0 -16 -44 -16
q-24 0 -34.5 12t-10.5 40v259q0 68 -26.5 103.5t-75.5 35.5q-99 0 -175 -140v-305q-8 -5 -16 -5q-16 0 -16 16v393q0 27 -23 27h-40q-3 8 -3 17q0 17 45 17z" />
    <glyph glyph-name="n" unicode="n" horiz-adv-x="582" 
d="M95 470q29 0 41 -12t12 -41v-64q80 127 192 127q66 0 102.5 -44t36.5 -125v-253q0 -27 18 -27h42q3 -6 3 -14q0 -17 -48 -17q-47 0 -47 52v255q0 71 -29 107t-80 36q-105 0 -190 -150v-295q-8 -5 -16 -5q-16 0 -16 16v393q0 27 -23 27h-40q-3 8 -3 17q0 17 45 17z" />
    <glyph glyph-name="o" unicode="o" horiz-adv-x="549" 
d="M70 235q0 119 57 182t154 63q94 0 146 -62t52 -183q0 -245 -206 -245q-203 0 -203 245zM101 235q0 -114 44 -164t128 -50q175 0 175 214q0 105 -43.5 159.5t-123.5 54.5q-83 0 -131.5 -55.5t-48.5 -158.5z" />
    <glyph glyph-name="p" unicode="p" horiz-adv-x="559" 
d="M84 470q29 0 40.5 -12t11.5 -41v-33q32 43 77 69.5t95 26.5q181 0 181 -237q0 -127 -56 -190t-138 -63q-92 0 -159 76v-273q-8 -5 -15 -5q-16 0 -16 16v605q0 27 -22 27h-40q-3 8 -3 17q0 17 44 17zM305 450q-102 0 -169 -112v-226q68 -92 158 -92q72 0 118.5 54
t46.5 167q0 209 -154 209z" />
    <glyph glyph-name="q" unicode="q" horiz-adv-x="555" 
d="M421 -184v234q-63 -60 -158 -60q-83 0 -138 63t-55 185q0 118 55.5 180t135.5 62q104 0 160 -59q3 49 54 49q40 0 40 -18q0 -6 -3 -12h-36q-24 0 -24 -28v-608q-8 -4 -17 -4q-14 0 -14 16zM266 18q96 0 155 68v286q-50 78 -161 78q-65 0 -112.5 -54.5t-47.5 -157.5
q0 -105 48.5 -162.5t117.5 -57.5z" />
    <glyph glyph-name="r" unicode="r" horiz-adv-x="407" 
d="M88 470q52 0 52 -61v-56q35 54 82.5 90.5t94.5 36.5q36 0 58 -16t22 -50q0 -14 -13 -14q-9 0 -15 8q0 42 -53 42q-44 0 -93.5 -40.5t-82.5 -102.5v-302q-7 -5 -17 -5q-15 0 -15 16v389q0 30 -25 30h-40q-3 7 -3 15q0 20 48 20z" />
    <glyph glyph-name="s" unicode="s" horiz-adv-x="462" 
d="M224 480q69 0 115 -21t46 -43q0 -16 -19 -16q-14 19 -50.5 33t-92.5 14q-62 0 -91.5 -25t-29.5 -64q0 -42 33.5 -64t108.5 -38q85 -17 121 -49t36 -90q0 -127 -171 -127q-64 0 -118 23.5t-54 42.5q0 16 13 20q19 -19 66.5 -38t90.5 -19q74 0 108.5 27t34.5 70
q0 46 -30.5 70.5t-103.5 39.5q-91 18 -129 47t-38 89q0 49 40.5 83.5t113.5 34.5z" />
    <glyph glyph-name="t" unicode="t" horiz-adv-x="354" 
d="M297 439h-152v-318q0 -52 17.5 -71t55.5 -19h103q2 -3 2 -9q0 -22 -105 -22q-52 0 -78.5 24t-26.5 87v328h-59q-4 6 -4 14q0 17 22 17h41v147q6 4 16 4q16 0 16 -17v-134h176q3 -3 3 -14q0 -17 -27 -17z" />
    <glyph glyph-name="u" unicode="u" horiz-adv-x="579" 
d="M481 0q-23 0 -33 11.5t-10 40.5v68q-82 -130 -199 -130q-68 0 -99.5 37t-31.5 126v257q0 27 -23 27h-43q-2 8 -2 16q0 17 50 17q28 0 39.5 -12.5t11.5 -41.5v-261q0 -73 24.5 -104t73.5 -31q120 0 199 156v290q7 4 17 4q14 0 14 -14v-398q0 -27 20 -27h38q2 -8 2 -11
q0 -20 -48 -20z" />
    <glyph glyph-name="v" unicode="v" horiz-adv-x="505" 
d="M49 470q37 0 48 -27l159 -402q64 91 111.5 201t47.5 170q0 31 -34 31h-29q-3 6 -3 13q0 14 41 14q27 0 41 -12t14 -43q0 -65 -50 -176.5t-112 -205.5q-21 -33 -34 -33q-6 0 -10 2l-165 423q-7 18 -23 18h-38q-3 6 -3 13q0 14 39 14z" />
    <glyph glyph-name="w" unicode="w" horiz-adv-x="771" 
d="M520 3l-134 384q-15 -79 -57 -180.5t-88 -178.5q-17 -28 -30 -28q-8 0 -13 5l-131 421q-4 17 -20 17h-34q-3 5 -3 11q0 16 37 16q34 0 45 -29l125 -400q56 88 101.5 207t45.5 174q0 21 -16 21h-31q-2 6 -2 12q0 15 46 15q25 0 36 -29l139 -401q61 83 102.5 195t41.5 180
q0 28 -25 28h-39q-3 6 -3 13q0 14 44 14q28 0 41 -13t13 -44q0 -73 -45 -186.5t-102 -193.5q-3 -4 -7.5 -10.5t-6.5 -9.5t-5.5 -6.5t-6.5 -5t-6 -1.5q-6 0 -12 3z" />
    <glyph glyph-name="x" unicode="x" horiz-adv-x="527" 
d="M95 470q33 0 51 -26l117 -177l149 191q10 12 22 12q16 0 20 -11l-176 -215l132 -199q13 -19 32 -19h33q2 -3 2 -11q0 -15 -38 -15t-55 25l-127 194l-161 -207q-10 -12 -20 -12q-6 0 -12.5 4.5t-7.5 7.5l186 229l-122 187q-11 15 -25 15h-43q-2 6 -2 10q0 17 45 17z" />
    <glyph glyph-name="y" unicode="y" horiz-adv-x="527" 
d="M100 435l154 -384q8 -21 23 -21h4q60 117 107.5 231.5t47.5 155.5q0 26 -24 26h-40q-2 6 -2 11q0 16 38 16q59 0 59 -50q0 -69 -91.5 -266t-145.5 -273q-34 -47 -66 -64t-73 -17q-59 0 -59 22q0 10 4 14h60q20 0 34 3t35.5 18t41.5 44q27 39 58 99q-23 0 -35 29l-157 397
q-7 17 -22 17h-39q-2 6 -2 11q0 16 39 16q22 0 32.5 -8t18.5 -27z" />
    <glyph glyph-name="z" unicode="z" horiz-adv-x="502" 
d="M50 12q0 9 7 17l329 410h-320q-4 6 -4 14q0 17 18 17h349q3 -6 3 -11q0 -11 -7 -18l-330 -410h354q3 -3 3 -14q0 -17 -28 -17h-370q-4 6 -4 12z" />
    <glyph glyph-name="braceleft" unicode="{" horiz-adv-x="274" 
d="M181 712q60 0 60 -19q0 -8 -6 -13h-57q-22 0 -35.5 -15t-13.5 -44v-249q0 -37 -12.5 -54.5t-27.5 -19.5v-2q14 -1 27 -20.5t13 -56.5v-260q0 -46 47 -46h61q4 -5 4 -14q0 -19 -71 -19q-33 0 -52.5 21t-19.5 65v258q0 43 -38 49q-18 5 -18 24q0 15 6 21q21 -1 35.5 16.5
t14.5 37.5v253q0 47 24 67t59 20z" />
    <glyph glyph-name="bar" unicode="|" horiz-adv-x="252" 
d="M130 712q13 0 13 -12v-817q-6 -3 -18 -3q-14 0 -14 17v810q7 5 19 5z" />
    <glyph glyph-name="braceright" unicode="}" horiz-adv-x="274" 
d="M102 -120q-60 0 -60 19q0 8 6 13h57q22 0 35.5 15t13.5 44v249q0 37 12.5 54.5t27.5 19.5v2q-14 1 -27 20.5t-13 56.5v260q0 46 -47 46h-61q-4 5 -4 14q0 19 71 19q33 0 52.5 -21t19.5 -65v-258q0 -43 38 -49q18 -5 18 -24q0 -15 -6 -21q-21 1 -35.5 -16.5t-14.5 -37.5
v-253q0 -47 -24 -67t-59 -20z" />
    <glyph glyph-name="asciitilde" unicode="~" horiz-adv-x="536" 
d="M127 641q25 0 82.5 -16t80.5 -16q40 0 64 24q10 -7 10 -19q0 -14 -17.5 -25t-48.5 -11q-27 0 -89 15.5t-80 15.5q-19 0 -38 -10t-23 -18q-14 8 -14 19t23 26t50 15z" />
    <glyph glyph-name="uni00A0" unicode="&#xa0;" horiz-adv-x="279" 
 />
    <glyph glyph-name="exclamdown" unicode="&#xa1;" horiz-adv-x="123" 
d="M-72 -230q-17 0 -17 18v561q6 6 16 6q16 0 16 -17v-563q-7 -5 -15 -5zM-45 442q0 -29 -28 -29q-29 0 -29 29q0 28 29 28q28 0 28 -28z" />
    <glyph glyph-name="cent" unicode="&#xa2;" horiz-adv-x="521" 
d="M466 426q2 -7 -11 -16q-38 21 -63.5 29.5t-73.5 9.5v-429q48 1 89.5 15t55.5 28q11 -6 11 -14q0 -17 -26 -29q-53 -28 -130 -30v-64q-6 -6 -16 -6q-16 0 -16 17v54q-98 7 -155.5 71.5t-57.5 174.5q0 120 61 180t152 63v73q7 5 15 5q17 0 17 -18v-61q35 -1 62.5 -7
t38 -10.5t31.5 -15.5q13 -6 16 -20zM104 237q0 -94 49 -151.5t133 -64.5v428q-81 -3 -131.5 -54.5t-50.5 -157.5z" />
    <glyph glyph-name="sterling" unicode="&#xa3;" horiz-adv-x="579" 
d="M530 0h-517q-4 8 -4 15q0 17 17 17q66 0 76 267h-66l-2 3q-2 4 -2 10q0 19 27 19h44q1 19 1 62q0 50 4.5 91t18.5 82.5t37 69.5t62 45.5t91 17.5q57 0 102 -10.5t65 -22.5t20 -22q0 -9 -11 -16q-54 42 -176 42q-55 0 -92.5 -23t-56 -65.5t-26 -88t-7.5 -103.5
q0 -40 -1 -59h314q4 -3 4 -15q0 -17 -40 -17h-279q-6 -209 -49 -267h466q4 -6 4 -15q0 -17 -24 -17z" />
    <glyph glyph-name="currency" unicode="&#xa4;" horiz-adv-x="536" 
d="M87 238q0 67 43 116l-68 69q-11 13 -10 23q0 14 12 19l86 -90q51 43 117 43q58 0 107 -36l64 76q10 12 22 12q16 0 20 -11l-84 -96q51 -54 51 -125q0 -69 -46 -120l75 -74q11 -11 10 -20q0 -6 -4.5 -12t-8.5 -7l-92 94q-49 -41 -114 -41q-57 0 -104 33l-66 -79
q-10 -12 -19 -12q-6 0 -12.5 4.5t-7.5 7.5l84 97q-55 53 -55 129zM117 238q0 -62 44 -106t106 -44t106 44t44 106t-44 106t-106 44t-106 -44t-44 -106z" />
    <glyph glyph-name="yen" unicode="&#xa5;" horiz-adv-x="584" 
d="M318 225v-40h179q4 -3 4 -15q0 -17 -40 -17h-143v-148q-7 -5 -17 -5q-15 0 -15 17v136h-172l-2 3q-2 4 -2 10q0 19 27 19h149v40l-22 29h-150l-2 4q-2 3 -2 9q0 19 27 19h105q-118 175 -192 406q8 8 19 8q12 0 16 -11q84 -262 219 -440q67 91 134.5 233.5t78.5 214.5
q6 3 15 3q11 0 11 -12q-2 -54 -59.5 -178t-122.5 -224h136q4 -3 4 -15q0 -17 -40 -17h-122q-4 -7 -21 -29z" />
    <glyph glyph-name="brokenbar" unicode="&#xa6;" horiz-adv-x="252" 
d="M126 712q17 0 17 -18v-353q-6 -6 -16 -6q-16 0 -16 17v355q7 5 15 5zM126 257q17 0 17 -18v-353q-6 -6 -16 -6q-16 0 -16 17v355q7 5 15 5z" />
    <glyph glyph-name="section" unicode="&#xa7;" horiz-adv-x="596" 
d="M309 725q83 0 132 -27t49 -57q0 -16 -21 -16q-10 28 -51 47.5t-115 19.5q-159 0 -159 -95q0 -42 40 -68.5t121 -45.5q107 -25 160.5 -61.5t54.5 -104.5q1 -77 -62 -145q36 -28 36 -71q0 -66 -55 -101.5t-147 -35.5q-77 0 -131.5 27.5t-54.5 51.5q0 15 14 20
q52 -70 178 -70q80 0 122.5 27.5t41.5 80.5q-1 35 -40 57t-124 43q-46 11 -72 18.5t-58 21t-49 29.5t-28.5 41t-12.5 58q-1 45 18 77.5t54 64.5q-40 32 -40 89q0 52 49.5 88.5t149.5 36.5zM292 457q-81 19 -116 38q-66 -53 -65 -129q0 -21 6 -37.5t22 -30t28 -22t42 -19
t46 -15.5t57 -16q90 -23 121 -39q26 23 41.5 57.5t14.5 70.5q-1 52 -48.5 85t-148.5 57z" />
    <glyph glyph-name="dieresis" unicode="&#xa8;" horiz-adv-x="470" 
d="M92 605q0 29 28 29q29 0 29 -29q0 -28 -29 -28q-28 0 -28 28zM305 605q0 29 28 29q29 0 29 -29q0 -28 -29 -28q-28 0 -28 28z" />
    <glyph glyph-name="copyright" unicode="&#xa9;" horiz-adv-x="810" 
d="M45 350q0 166 97.5 263t262.5 97t262.5 -97t97.5 -263q0 -164 -98 -262t-262 -98q-165 0 -262.5 98t-97.5 262zM74 350q0 -152 90 -241.5t241 -89.5t241 89.5t90 241.5q0 153 -89.5 242t-241.5 89t-241.5 -89t-89.5 -242zM532 515q2 -6 -10 -13q-31 19 -53 25.5t-68 6.5
q-64 0 -104.5 -43t-40.5 -135q0 -85 42 -134t112 -49q38 0 71.5 12t46.5 24q9 -5 9 -12q0 -13 -20 -25q-46 -26 -107 -26q-82 0 -132.5 56t-50.5 154q0 105 51 156t123 51q70 0 118 -29q11 -5 13 -19z" />
    <glyph glyph-name="ordfeminine" unicode="&#xaa;" horiz-adv-x="280" 
d="M50 553q-8 2 -8 14q0 14 30 23.5t64 9.5q90 0 90 -68v-139q0 -21 22 -21q4 0 10 2q3 -6 3 -10q0 -14 -21 -14q-39 0 -39 34v8q-49 -43 -109 -43q-35 0 -53.5 20t-18.5 53q0 28 18.5 45t53.5 19l109 8v32q0 47 -66 47q-57 0 -85 -20zM96 375q56 0 105 40v56l-108 -9
q-47 -3 -47 -41q0 -20 13 -33t37 -13z" />
    <glyph glyph-name="guillemotleft" unicode="&#xab;" horiz-adv-x="485" 
d="M56 256l173 191q3 2 10 2q4 0 8 -4.5t4 -8.5q0 -7 -7 -14l-161 -179l165 -183q2 -6 2 -10t-3.5 -7.5t-7.5 -3.5q-7 0 -14 7l-171 183q-4 5 -4 12q0 9 6 15zM240 256l173 191q3 2 10 2q4 0 8 -4.5t4 -8.5q0 -7 -7 -14l-161 -179l165 -183q2 -6 2 -10t-3.5 -7.5t-7.5 -3.5
q-7 0 -14 7l-171 183q-4 5 -4 12q0 9 6 15z" />
    <glyph glyph-name="logicalnot" unicode="&#xac;" horiz-adv-x="560" 
d="M464 136q-16 0 -16 17v157h-385q-3 12 -3 16q0 16 16 16h401q3 -4 3 -15v-185q-6 -6 -16 -6z" />
    <glyph glyph-name="uni00AD" unicode="&#xad;" horiz-adv-x="432" 
d="M349 252h-285q-4 8 -4 14q0 18 22 18h286q4 -4 4 -15q0 -17 -23 -17z" />
    <glyph glyph-name="registered" unicode="&#xae;" horiz-adv-x="590" 
d="M45 450q0 115 67.5 182.5t182.5 67.5q114 0 182 -67.5t68 -182.5q0 -114 -68 -182t-182 -68q-115 0 -182.5 68t-67.5 182zM73 450q0 -102 60 -162t162 -60t162 60t60 162q0 103 -60 162.5t-162 59.5t-162 -59.5t-60 -162.5zM227 581h88q80 0 80 -74q0 -30 -18 -49.5
t-46 -25.5q8 -10 22.5 -34.5t26 -39t23.5 -14.5h11q3 -3 3 -11q0 -18 -24 -18q-19 0 -34 19t-31 50.5t-28 45.5h-57v-112q-3 -3 -16 -3q-16 0 -16 15v248q6 3 16 3zM309 555h-66v-99h60q27 0 44.5 13t17.5 38q0 48 -56 48z" />
    <glyph glyph-name="macron" unicode="&#xaf;" horiz-adv-x="447" 
d="M326 596h-268l-2 4q-2 3 -2 9q0 19 27 19h281q4 -3 4 -15q0 -17 -40 -17z" />
    <glyph glyph-name="degree" unicode="&#xb0;" horiz-adv-x="319" 
d="M40 581q0 50 35 85t84 35t84.5 -35.5t35.5 -84.5t-35 -84t-85 -35q-49 0 -84 35t-35 84zM69 581q0 -38 26.5 -64.5t64.5 -26.5t64.5 26.5t26.5 64.5t-26.5 64.5t-64.5 26.5t-64.5 -26.5t-26.5 -64.5z" />
    <glyph glyph-name="plusminus" unicode="&#xb1;" horiz-adv-x="540" 
d="M286 474v-168h190q4 -3 4 -15q0 -17 -21 -17h-173v-190q-8 -4 -15 -4q-17 0 -17 18v176h-190l-2 4q-2 3 -2 9q0 19 20 19h174v190q3 4 15 4q17 0 17 -26zM464 0h-401q-3 12 -3 16q0 16 16 16h401q3 -5 3 -15q0 -17 -16 -17z" />
    <glyph glyph-name="twosuperior" unicode="&#xb2;" horiz-adv-x="333" 
d="M23 632q0 20 36 43.5t90 23.5q66 0 103 -30.5t37 -84.5q0 -44 -24.5 -88.5t-64 -80.5t-70.5 -58.5t-63 -41.5v-3l242 2q3 -7 3 -15q0 -14 -14 -14h-274q-3 7 -3 17q0 11 8 18q29 19 37.5 25t40.5 28.5t46 35.5t39 37t36.5 43t21.5 44t10 48q0 43 -30 66.5t-79 23.5
q-39 0 -71.5 -17t-39.5 -39q-17 3 -17 17z" />
    <glyph glyph-name="threesuperior" unicode="&#xb3;" horiz-adv-x="332" 
d="M257 589q0 36 -28 58.5t-78 22.5q-40 0 -68.5 -15t-33.5 -37q-17 2 -17 16q0 21 31.5 43t89.5 22q62 0 97.5 -30.5t35.5 -77.5q0 -33 -19.5 -60t-50.5 -34v-1q35 -6 59 -31t24 -68q0 -51 -36.5 -82.5t-110.5 -31.5q-68 0 -98.5 27t-30.5 55q0 18 18 18q4 -29 30 -51
t80 -22q61 0 90 25t29 65q0 37 -27 58.5t-70 21.5h-20q-10 0 -10 13q0 5 3 14q57 0 84.5 22.5t26.5 59.5z" />
    <glyph glyph-name="acute" unicode="&#xb4;" horiz-adv-x="520" 
d="M159 577q14 9 46.5 35.5t59.5 45.5t40 19q23 0 23 -19q-21 -10 -54 -35t-59 -44t-35 -19q-16 0 -21 17z" />
    <glyph glyph-name="mu" unicode="&#xb5;" horiz-adv-x="620" 
d="M475 52v69q-89 -131 -219 -131q-79 0 -111 40v-226q-5 -4 -17 -4q-6 0 -9.5 4t-4.5 11.5t-1 14t0.5 17t0.5 14.5v549q0 27 -25 27h-47q-2 8 -2 16q0 17 52 17q17 0 29 -6.5t17.5 -15t7.5 -25t2 -28t-1 -33.5t-1 -33v-174q0 -73 27 -104t82 -31q66 0 126 40t94 108v298
q7 4 16 4q14 0 14 -14v-398q0 -15 4.5 -21t16.5 -6h42q2 -8 2 -11q0 -20 -50 -20q-25 0 -35 11.5t-10 40.5z" />
    <glyph glyph-name="paragraph" unicode="&#xb6;" horiz-adv-x="610" 
d="M526 668h-65v-800q-6 -6 -16 -6q-16 0 -16 17v789h-117v-680q0 -44 -19 -63t-47 -19q-17 0 -17 21q51 3 51 58v296q-87 0 -150 61t-63 148q0 88 60 149t153 61h266q4 -5 4 -15q0 -17 -24 -17z" />
    <glyph glyph-name="periodcentered" unicode="&#xb7;" horiz-adv-x="137" 
d="M40 262q0 29 28 29q29 0 29 -29q0 -28 -29 -28q-28 0 -28 28z" />
    <glyph glyph-name="cedilla" unicode="&#xb8;" horiz-adv-x="562" 
d="M323 -112q0 42 -59 46q-5 2 -5 17l1 64l31 -1l-3 -54q28 -2 46 -19.5t18 -53.5q0 -35 -21.5 -53.5t-54.5 -18.5q-32 0 -49 11t-17 24q0 14 19 18q2 -9 15.5 -17t30.5 -8q21 0 34.5 11t13.5 34z" />
    <glyph glyph-name="onesuperior" unicode="&#xb9;" horiz-adv-x="293" 
d="M252 285h-201q-4 8 -4 14q0 15 21 15h78v340q-20 -19 -49 -29.5t-52 -10.5q-13 0 -13 15q0 7 4 11q87 8 110 58q6 3 15 3q15 0 15 -14v-373h89q4 -4 4 -13q0 -16 -17 -16z" />
    <glyph glyph-name="ordmasculine" unicode="&#xba;" horiz-adv-x="304" 
d="M38 475q0 63 31.5 95t85.5 32q52 0 81.5 -32t29.5 -95q0 -126 -115 -126q-113 0 -113 126zM66 475q0 -100 85 -100q87 0 87 100t-83 100q-41 0 -65 -26t-24 -74z" />
    <glyph glyph-name="guillemotright" unicode="&#xbb;" horiz-adv-x="485" 
d="M245 232l-173 -191q-3 -2 -10 -2q-4 0 -8 4.5t-4 8.5q0 7 7 14l161 179l-165 183q-2 6 -2 10t3.5 7.5t7.5 3.5q7 0 14 -7l171 -183q4 -5 4 -12q0 -9 -6 -15zM429 232l-173 -191q-3 -2 -10 -2q-4 0 -8 4.5t-4 8.5q0 7 7 14l161 179l-165 183q-2 6 -2 10t3.5 7.5t7.5 3.5
q7 0 14 -7l171 -183q4 -5 4 -12q0 -9 -6 -15z" />
    <glyph glyph-name="onequarter" unicode="&#xbc;" horiz-adv-x="804" 
d="M523 700q19 0 14 -15l-255 -684q-6 -3 -19 -3q-16 0 -8 19l253 680q6 3 15 3zM252 285h-201q-4 8 -4 14q0 15 21 15h78v340q-20 -19 -49 -29.5t-52 -10.5q-13 0 -13 15q0 7 4 11q87 8 110 58q6 3 15 3q15 0 15 -14v-373h89q4 -4 4 -13q0 -16 -17 -16zM700 285
q13 0 13 -12v-157h60q3 -3 3 -13q0 -13 -11 -13h-52l1 -87q-6 -3 -17 -3q-13 0 -13 13v77h-213q-3 4 -3 11q0 8 3 14l98 296q5 3 15 3q17 0 11 -15l-94 -283h183v165q8 4 16 4z" />
    <glyph glyph-name="onehalf" unicode="&#xbd;" horiz-adv-x="841" 
d="M523 700q19 0 14 -15l-255 -684q-6 -3 -19 -3q-16 0 -8 19l253 680q6 3 15 3zM252 285h-201q-4 8 -4 14q0 15 21 15h78v340q-20 -19 -49 -29.5t-52 -10.5q-13 0 -13 15q0 7 4 11q87 8 110 58q6 3 15 3q15 0 15 -14v-373h89q4 -4 4 -13q0 -16 -17 -16zM531 347
q0 20 36 43.5t90 23.5q66 0 103 -30.5t37 -84.5q0 -44 -24.5 -88.5t-64 -80.5t-70.5 -58.5t-63 -41.5v-3l242 2q3 -7 3 -15q0 -14 -14 -14h-274q-3 8 -3 17q0 11 8 18q29 19 37.5 25t40.5 28.5t46 35.5t39 37t36.5 43t21.5 44t10 48q0 43 -30 66.5t-79 23.5q-39 0 -71.5 -17
t-39.5 -39q-17 3 -17 17z" />
    <glyph glyph-name="threequarters" unicode="&#xbe;" horiz-adv-x="804" 
d="M523 700q19 0 14 -15l-255 -684q-6 -3 -19 -3q-16 0 -8 19l253 680q6 3 15 3zM257 589q0 36 -28 58.5t-78 22.5q-40 0 -68.5 -15t-33.5 -37q-17 2 -17 16q0 21 31.5 43t89.5 22q62 0 97.5 -30.5t35.5 -77.5q0 -33 -19.5 -60t-50.5 -34v-1q35 -6 59 -31t24 -68
q0 -51 -36.5 -82.5t-110.5 -31.5q-68 0 -98.5 27t-30.5 55q0 18 18 18q4 -29 30 -51t80 -22q61 0 90 25t29 65q0 37 -27 58.5t-70 21.5h-20q-10 0 -10 13q0 5 3 14q57 0 84.5 22.5t26.5 59.5zM700 285q13 0 13 -12v-157h60q3 -3 3 -13q0 -13 -11 -13h-52l1 -87q-6 -3 -17 -3
q-13 0 -13 13v77h-213q-3 4 -3 11q0 8 3 14l98 296q5 3 15 3q17 0 11 -15l-94 -283h183v165q8 4 16 4z" />
    <glyph glyph-name="questiondown" unicode="&#xbf;" horiz-adv-x="489" 
d="M62 -10q0 -92 53 -136.5t136 -44.5q68 0 115 27.5t52 66.5q14 0 19.5 -3t5.5 -14q0 -32 -50.5 -69t-142.5 -37q-93 0 -155 54.5t-62 155.5q0 70 33 118.5t77.5 69.5t97.5 25l-3 154q8 4 18 4q11 0 11 -17l3 -152q0 -12 -4 -16q-90 -2 -147 -48t-57 -138zM277 442
q0 -29 -28 -29q-29 0 -29 29q0 28 29 28q28 0 28 -28z" />
    <glyph glyph-name="Agrave" unicode="&#xc0;" horiz-adv-x="627" 
d="M36 0q-11 0 -16 5l274 689q9 6 20 6q15 0 21 -17l272 -673q-3 -10 -14 -10q-13 0 -17 11l-74 182h-375l-74 -184q-4 -9 -17 -9zM313 657l-175 -435h352zM384 807q-5 -17 -21 -17q-9 0 -35 19t-59 44t-54 35q0 19 23 19q13 0 40 -19t59.5 -45.5t46.5 -35.5z" />
    <glyph glyph-name="Aacute" unicode="&#xc1;" horiz-adv-x="627" 
d="M36 0q-11 0 -16 5l274 689q9 6 20 6q15 0 21 -17l272 -673q-3 -10 -14 -10q-13 0 -17 11l-74 182h-375l-74 -184q-4 -9 -17 -9zM313 657l-175 -435h352zM236 807q14 9 46.5 35.5t59.5 45.5t40 19q23 0 23 -19q-21 -10 -54 -35t-59 -44t-35 -19q-16 0 -21 17z" />
    <glyph glyph-name="Acircumflex" unicode="&#xc2;" horiz-adv-x="627" 
d="M460 807q-5 -17 -21 -17q-6 0 -13 4q-14 7 -54 38t-59 43q-19 -12 -59 -43t-54 -38q-7 -4 -13 -4q-16 0 -21 17q14 9 46 35.5t58.5 45.5t41.5 19q13 0 39 -18.5t59 -45t50 -36.5zM36 0q-11 0 -16 5l274 689q9 6 20 6q15 0 21 -17l272 -673q-3 -10 -14 -10q-13 0 -17 11
l-74 182h-375l-74 -184q-4 -9 -17 -9zM313 657l-175 -435h352z" />
    <glyph glyph-name="Atilde" unicode="&#xc3;" horiz-adv-x="627" 
d="M36 0q-11 0 -16 5l274 689q9 6 20 6q15 0 21 -17l272 -673q-3 -10 -14 -10q-13 0 -17 11l-74 182h-375l-74 -184q-4 -9 -17 -9zM313 657l-175 -435h352zM231 871q25 0 82.5 -16t80.5 -16q40 0 64 24q10 -7 10 -19q0 -14 -17.5 -25t-48.5 -11q-27 0 -89 15.5t-80 15.5
q-19 0 -38 -10t-23 -18q-14 8 -14 19t23 26t50 15z" />
    <glyph glyph-name="Adieresis" unicode="&#xc4;" horiz-adv-x="627" 
d="M36 0q-11 0 -16 5l274 689q9 6 20 6q15 0 21 -17l272 -673q-3 -10 -14 -10q-13 0 -17 11l-74 182h-375l-74 -184q-4 -9 -17 -9zM313 657l-175 -435h352zM178 835q0 29 28 29q29 0 29 -29q0 -28 -29 -28q-28 0 -28 28zM391 835q0 29 28 29q29 0 29 -29q0 -28 -29 -28
q-28 0 -28 28z" />
    <glyph glyph-name="Aring" unicode="&#xc5;" horiz-adv-x="627" 
d="M36 0q-11 0 -16 5l274 689q9 6 20 6q15 0 21 -17l272 -673q-3 -10 -14 -10q-13 0 -17 11l-74 182h-375l-74 -184q-4 -9 -17 -9zM313 657l-175 -435h352zM229 862q0 84 84 84q41 0 62.5 -22t21.5 -62q0 -84 -84 -84t-84 84zM258 862q0 -55 55 -55t55 55q0 25 -14.5 40
t-40.5 15q-55 0 -55 -55z" />
    <glyph glyph-name="AE" unicode="&#xc6;" horiz-adv-x="999" 
d="M915 0h-438q-16 0 -16 17v176h-332l-76 -184q-4 -9 -17 -9q-11 0 -16 5l283 689q6 4 16 5.5t18 1.5t22.5 -0.5t19.5 -0.5h556q4 -3 4 -15q0 -17 -24 -17h-422v-290h376q4 -3 4 -15q0 -17 -24 -17h-356v-314h442q4 -3 4 -15q0 -17 -24 -17zM326 668l-185 -446h320v446
h-135z" />
    <glyph glyph-name="Ccedilla" unicode="&#xc7;" horiz-adv-x="662" 
d="M428 -112q0 42 -59 46q-5 2 -5 17l1 64l31 -1l-3 -54q28 -2 46 -19.5t18 -53.5q0 -35 -21.5 -53.5t-54.5 -18.5q-32 0 -49 11t-17 24q0 14 19 18q2 -9 15.5 -17t30.5 -8q21 0 34.5 11t13.5 34zM593 122q6 2 12.5 -1t6.5 -11q0 -12 -9 -23q-76 -97 -234 -97
q-137 0 -213 88t-76 273q0 175 76 267t210 92q84 0 142 -29t87 -76q7 -11 7 -21q0 -5 -6.5 -8.5t-13.5 -1.5q-37 56 -86.5 80.5t-129.5 24.5q-120 0 -187.5 -85.5t-67.5 -242.5q0 -330 258 -330q149 0 224 101z" />
    <glyph glyph-name="Egrave" unicode="&#xc8;" horiz-adv-x="658" 
d="M430 807q-5 -17 -21 -17q-9 0 -35 19t-59 44t-54 35q0 19 23 19q13 0 40 -19t59.5 -45.5t46.5 -35.5zM508 346h-356v-314h442q4 -3 4 -15q0 -17 -24 -17h-438q-16 0 -16 17v679q5 4 15 4h459q4 -3 4 -15q0 -17 -24 -17h-422v-290h376q4 -3 4 -15q0 -17 -24 -17z" />
    <glyph glyph-name="Eacute" unicode="&#xc9;" horiz-adv-x="658" 
d="M508 346h-356v-314h442q4 -3 4 -15q0 -17 -24 -17h-438q-16 0 -16 17v679q5 4 15 4h459q4 -3 4 -15q0 -17 -24 -17h-422v-290h376q4 -3 4 -15q0 -17 -24 -17zM262 807q14 9 46.5 35.5t59.5 45.5t40 19q23 0 23 -19q-21 -10 -54 -35t-59 -44t-35 -19q-16 0 -21 17z" />
    <glyph glyph-name="Ecircumflex" unicode="&#xca;" horiz-adv-x="658" 
d="M501 807q-5 -17 -21 -17q-6 0 -13 4q-14 7 -54 38t-59 43q-19 -12 -59 -43t-54 -38q-7 -4 -13 -4q-16 0 -21 17q14 9 46 35.5t58.5 45.5t41.5 19q13 0 39 -18.5t59 -45t50 -36.5zM508 346h-356v-314h442q4 -3 4 -15q0 -17 -24 -17h-438q-16 0 -16 17v679q5 4 15 4h459
q4 -3 4 -15q0 -17 -24 -17h-422v-290h376q4 -3 4 -15q0 -17 -24 -17z" />
    <glyph glyph-name="Edieresis" unicode="&#xcb;" horiz-adv-x="658" 
d="M508 346h-356v-314h442q4 -3 4 -15q0 -17 -24 -17h-438q-16 0 -16 17v679q5 4 15 4h459q4 -3 4 -15q0 -17 -24 -17h-422v-290h376q4 -3 4 -15q0 -17 -24 -17zM227 835q0 29 28 29q29 0 29 -29q0 -28 -29 -28q-28 0 -28 28zM440 835q0 29 28 29q29 0 29 -29q0 -28 -29 -28
q-28 0 -28 28z" />
    <glyph glyph-name="Igrave" unicode="&#xcc;" horiz-adv-x="272" 
d="M221 807q-5 -17 -21 -17q-9 0 -35 19t-59 44t-54 35q0 19 23 19q13 0 40 -19t59.5 -45.5t46.5 -35.5zM135 700q17 0 17 -18v-676q-6 -6 -16 -6q-16 0 -16 17v678q7 5 15 5z" />
    <glyph glyph-name="Iacute" unicode="&#xcd;" horiz-adv-x="272" 
d="M135 700q17 0 17 -18v-676q-6 -6 -16 -6q-16 0 -16 17v678q7 5 15 5zM52 807q14 9 46.5 35.5t59.5 45.5t40 19q23 0 23 -19q-21 -10 -54 -35t-59 -44t-35 -19q-16 0 -21 17z" />
    <glyph glyph-name="Icircumflex" unicode="&#xce;" horiz-adv-x="272" 
d="M283 807q-5 -17 -21 -17q-6 0 -13 4q-14 7 -54 38t-59 43q-19 -12 -59 -43t-54 -38q-7 -4 -13 -4q-16 0 -21 17q14 9 46 35.5t58.5 45.5t41.5 19q13 0 39 -18.5t59 -45t50 -36.5zM135 700q17 0 17 -18v-676q-6 -6 -16 -6q-16 0 -16 17v678q7 5 15 5z" />
    <glyph glyph-name="Idieresis" unicode="&#xcf;" horiz-adv-x="272" 
d="M135 700q17 0 17 -18v-676q-6 -6 -16 -6q-16 0 -16 17v678q7 5 15 5zM1 835q0 29 28 29q29 0 29 -29q0 -28 -29 -28q-28 0 -28 28zM214 835q0 29 28 29q29 0 29 -29q0 -28 -29 -28q-28 0 -28 28z" />
    <glyph glyph-name="Eth" unicode="&#xd0;" horiz-adv-x="709" 
d="M135 700h134q189 0 274.5 -86.5t85.5 -267.5q0 -187 -81 -266.5t-244 -79.5h-162q-9 0 -14 3.5t-7 12t-2 15t0.5 19.5t0.5 19v263h-88q-4 8 -4 14q0 18 22 18h70v331q7 5 15 5zM317 332h-165v-300h151q150 0 222.5 71.5t72.5 242.5q0 164 -75.5 243.5t-245.5 79.5h-125
v-305h184q4 -4 4 -15q0 -17 -23 -17z" />
    <glyph glyph-name="Ntilde" unicode="&#xd1;" horiz-adv-x="747" 
d="M596 8l-446 623l2 -626q-7 -5 -17 -5q-15 0 -15 16v680q8 4 15 4q8 0 14 -7l448 -635l-2 637q7 5 15 5q17 0 17 -18v-678q-5 -4 -16 -4q-9 0 -15 8zM291 871q25 0 82.5 -16t80.5 -16q40 0 64 24q10 -7 10 -19q0 -14 -17.5 -25t-48.5 -11q-27 0 -89 15.5t-80 15.5
q-19 0 -38 -10t-23 -18q-14 8 -14 19t23 26t50 15z" />
    <glyph glyph-name="Ograve" unicode="&#xd2;" horiz-adv-x="731" 
d="M450 807q-5 -17 -21 -17q-9 0 -35 19t-59 44t-54 35q0 19 23 19q13 0 40 -19t59.5 -45.5t46.5 -35.5zM80 351q0 175 77.5 267t214.5 92q131 0 205 -92t74 -267q0 -361 -280 -361q-137 0 -214 88t-77 273zM110 351q0 -330 262 -330q249 0 249 330q0 158 -66 243t-183 85
q-126 0 -194 -85t-68 -243z" />
    <glyph glyph-name="Oacute" unicode="&#xd3;" horiz-adv-x="731" 
d="M80 351q0 175 77.5 267t214.5 92q131 0 205 -92t74 -267q0 -361 -280 -361q-137 0 -214 88t-77 273zM110 351q0 -330 262 -330q249 0 249 330q0 158 -66 243t-183 85q-126 0 -194 -85t-68 -243zM281 807q14 9 46.5 35.5t59.5 45.5t40 19q23 0 23 -19q-21 -10 -54 -35
t-59 -44t-35 -19q-16 0 -21 17z" />
    <glyph glyph-name="Ocircumflex" unicode="&#xd4;" horiz-adv-x="731" 
d="M512 807q-5 -17 -21 -17q-6 0 -13 4q-14 7 -54 38t-59 43q-19 -12 -59 -43t-54 -38q-7 -4 -13 -4q-16 0 -21 17q14 9 46 35.5t58.5 45.5t41.5 19q13 0 39 -18.5t59 -45t50 -36.5zM80 351q0 175 77.5 267t214.5 92q131 0 205 -92t74 -267q0 -361 -280 -361q-137 0 -214 88
t-77 273zM110 351q0 -330 262 -330q249 0 249 330q0 158 -66 243t-183 85q-126 0 -194 -85t-68 -243z" />
    <glyph glyph-name="Otilde" unicode="&#xd5;" horiz-adv-x="731" 
d="M80 351q0 175 77.5 267t214.5 92q131 0 205 -92t74 -267q0 -361 -280 -361q-137 0 -214 88t-77 273zM110 351q0 -330 262 -330q249 0 249 330q0 158 -66 243t-183 85q-126 0 -194 -85t-68 -243zM283 871q25 0 82.5 -16t80.5 -16q40 0 64 24q10 -7 10 -19q0 -14 -17.5 -25
t-48.5 -11q-27 0 -89 15.5t-80 15.5q-19 0 -38 -10t-23 -18q-14 8 -14 19t23 26t50 15z" />
    <glyph glyph-name="Odieresis" unicode="&#xd6;" horiz-adv-x="731" 
d="M80 351q0 175 77.5 267t214.5 92q131 0 205 -92t74 -267q0 -361 -280 -361q-137 0 -214 88t-77 273zM110 351q0 -330 262 -330q249 0 249 330q0 158 -66 243t-183 85q-126 0 -194 -85t-68 -243zM230 835q0 29 28 29q29 0 29 -29q0 -28 -29 -28q-28 0 -28 28zM443 835
q0 29 28 29q29 0 29 -29q0 -28 -29 -28q-28 0 -28 28z" />
    <glyph glyph-name="multiply" unicode="&#xd7;" horiz-adv-x="475" 
d="M131 400l109 -109l134 134q5 1 14 -8q12 -12 -16 -40l-109 -109l134 -134q-1 -1 -1 -3t-1 -4t-4 -5q-13 -13 -33 5l-118 118l-134 -134q-1 1 -3 1t-4 1t-5 4q-13 13 5 33l118 118l-134 134q-1 5 8 14q12 12 40 -16z" />
    <glyph glyph-name="Oslash" unicode="&#xd8;" horiz-adv-x="731" 
d="M80 351q0 175 77.5 267t214.5 92q56 0 103 -18l41 119q5 4 16 4t12 -10q0 -6 -1 -9l-40 -117q148 -77 148 -328q0 -361 -280 -361q-55 0 -98 13l-49 -146q-4 -2 -17 -2t-13 10q0 2 2 8l48 140q-164 71 -164 338zM110 351q0 -246 144 -308l211 619q-43 17 -93 17
q-126 0 -194 -85t-68 -243zM621 351q0 224 -128 298l-210 -617q42 -11 89 -11q249 0 249 330z" />
    <glyph glyph-name="Ugrave" unicode="&#xd9;" horiz-adv-x="718" 
d="M443 807q-5 -17 -21 -17q-9 0 -35 19t-59 44t-54 35q0 19 23 19q13 0 40 -19t59.5 -45.5t46.5 -35.5zM576 260v435q7 5 15 5q17 0 17 -18v-429q0 -131 -60.5 -197t-188.5 -66t-186 64.5t-58 198.5v442q7 5 15 5q17 0 17 -18v-421q0 -124 48.5 -182t163.5 -58
q117 0 167 57.5t50 181.5z" />
    <glyph glyph-name="Uacute" unicode="&#xda;" horiz-adv-x="718" 
d="M576 260v435q7 5 15 5q17 0 17 -18v-429q0 -131 -60.5 -197t-188.5 -66t-186 64.5t-58 198.5v442q7 5 15 5q17 0 17 -18v-421q0 -124 48.5 -182t163.5 -58q117 0 167 57.5t50 181.5zM274 807q14 9 46.5 35.5t59.5 45.5t40 19q23 0 23 -19q-21 -10 -54 -35t-59 -44
t-35 -19q-16 0 -21 17z" />
    <glyph glyph-name="Ucircumflex" unicode="&#xdb;" horiz-adv-x="718" 
d="M506 807q-5 -17 -21 -17q-6 0 -13 4q-14 7 -54 38t-59 43q-19 -12 -59 -43t-54 -38q-7 -4 -13 -4q-16 0 -21 17q14 9 46 35.5t58.5 45.5t41.5 19q13 0 39 -18.5t59 -45t50 -36.5zM576 260v435q7 5 15 5q17 0 17 -18v-429q0 -131 -60.5 -197t-188.5 -66t-186 64.5
t-58 198.5v442q7 5 15 5q17 0 17 -18v-421q0 -124 48.5 -182t163.5 -58q117 0 167 57.5t50 181.5z" />
    <glyph glyph-name="Udieresis" unicode="&#xdc;" horiz-adv-x="718" 
d="M576 260v435q7 5 15 5q17 0 17 -18v-429q0 -131 -60.5 -197t-188.5 -66t-186 64.5t-58 198.5v442q7 5 15 5q17 0 17 -18v-421q0 -124 48.5 -182t163.5 -58q117 0 167 57.5t50 181.5zM224 835q0 29 28 29q29 0 29 -29q0 -28 -29 -28q-28 0 -28 28zM437 835q0 29 28 29
q29 0 29 -29q0 -28 -29 -28q-28 0 -28 28z" />
    <glyph glyph-name="Yacute" unicode="&#xdd;" horiz-adv-x="593" 
d="M318 225v-220q-7 -5 -17 -5q-15 0 -15 17v208q-148 193 -236 467q8 8 19 8q12 0 16 -11q84 -262 219 -440q67 91 134.5 233.5t78.5 214.5q6 3 15 3q11 0 11 -12q-2 -64 -80.5 -221t-144.5 -242zM212 807q14 9 46.5 35.5t59.5 45.5t40 19q23 0 23 -19q-21 -10 -54 -35
t-59 -44t-35 -19q-16 0 -21 17z" />
    <glyph glyph-name="Thorn" unicode="&#xde;" horiz-adv-x="586" 
d="M129 700q13 0 13 -11v-125h209q86 0 135.5 -52t49.5 -148q0 -107 -60 -156t-159 -49h-175v-154q-7 -5 -18 -5q-14 0 -14 16v680q8 4 19 4zM344 537h-202v-351h163q95 0 148 40t53 137q0 174 -162 174z" />
    <glyph glyph-name="germandbls" unicode="&#xdf;" horiz-adv-x="613" 
d="M429 473h-23q-64 0 -98.5 -25.5t-34.5 -70.5q0 -79 141 -112q134 -31 134 -145q0 -62 -40.5 -96t-110.5 -34q-59 0 -110.5 27t-51.5 47q0 13 11 17q18 -22 59.5 -41.5t89.5 -19.5q61 0 92 29t31 71q0 47 -27.5 75t-87.5 43q-161 41 -161 139q0 55 41.5 89t120.5 35
q3 18 3 60q0 54 -39 80.5t-96 26.5q-68 0 -114.5 -43t-46.5 -145v-468q0 -12 -13 -12t-18 5v485q0 59 17 102t46 65.5t60.5 32.5t68.5 10q72 0 117.5 -34t45.5 -99q0 -69 -6 -94z" />
    <glyph glyph-name="agrave" unicode="&#xe0;" horiz-adv-x="492" 
d="M89 405q-12 1 -12 14q0 22 52.5 41.5t108.5 19.5q38 0 69 -8.5t56.5 -37.5t25.5 -77v-288q0 -22 7 -31t23 -9h28q5 -7 5 -15q0 -14 -41 -14q-52 0 -52 63v32q-91 -105 -193 -105q-63 0 -94.5 38.5t-31.5 100.5q0 111 117 122l202 18v87q0 94 -119 94q-47 0 -91 -14.5
t-60 -30.5zM166 19q103 0 193 115v104l-202 -18q-87 -9 -87 -93q0 -47 24.5 -77.5t71.5 -30.5zM300 577q-5 -17 -21 -17q-9 0 -35 19t-59 44t-54 35q0 19 23 19q13 0 40 -19t59.5 -45.5t46.5 -35.5z" />
    <glyph glyph-name="aacute" unicode="&#xe1;" horiz-adv-x="492" 
d="M89 405q-12 1 -12 14q0 22 52.5 41.5t108.5 19.5q38 0 69 -8.5t56.5 -37.5t25.5 -77v-288q0 -22 7 -31t23 -9h28q5 -7 5 -15q0 -14 -41 -14q-52 0 -52 63v32q-91 -105 -193 -105q-63 0 -94.5 38.5t-31.5 100.5q0 111 117 122l202 18v87q0 94 -119 94q-47 0 -91 -14.5
t-60 -30.5zM166 19q103 0 193 115v104l-202 -18q-87 -9 -87 -93q0 -47 24.5 -77.5t71.5 -30.5zM179 577q14 9 46.5 35.5t59.5 45.5t40 19q23 0 23 -19q-21 -10 -54 -35t-59 -44t-35 -19q-16 0 -21 17z" />
    <glyph glyph-name="acircumflex" unicode="&#xe2;" horiz-adv-x="492" 
d="M382 577q-5 -17 -21 -17q-6 0 -13 4q-14 7 -54 38t-59 43q-19 -12 -59 -43t-54 -38q-7 -4 -13 -4q-16 0 -21 17q14 9 46 35.5t58.5 45.5t41.5 19q13 0 39 -18.5t59 -45t50 -36.5zM89 405q-12 1 -12 14q0 22 52.5 41.5t108.5 19.5q38 0 69 -8.5t56.5 -37.5t25.5 -77v-288
q0 -22 7 -31t23 -9h28q5 -7 5 -15q0 -14 -41 -14q-52 0 -52 63v32q-91 -105 -193 -105q-63 0 -94.5 38.5t-31.5 100.5q0 111 117 122l202 18v87q0 94 -119 94q-47 0 -91 -14.5t-60 -30.5zM166 19q103 0 193 115v104l-202 -18q-87 -9 -87 -93q0 -47 24.5 -77.5t71.5 -30.5z
" />
    <glyph glyph-name="atilde" unicode="&#xe3;" horiz-adv-x="492" 
d="M89 405q-12 1 -12 14q0 22 52.5 41.5t108.5 19.5q38 0 69 -8.5t56.5 -37.5t25.5 -77v-288q0 -22 7 -31t23 -9h28q5 -7 5 -15q0 -14 -41 -14q-52 0 -52 63v32q-91 -105 -193 -105q-63 0 -94.5 38.5t-31.5 100.5q0 111 117 122l202 18v87q0 94 -119 94q-47 0 -91 -14.5
t-60 -30.5zM166 19q103 0 193 115v104l-202 -18q-87 -9 -87 -93q0 -47 24.5 -77.5t71.5 -30.5zM153 641q25 0 82.5 -16t80.5 -16q40 0 64 24q10 -7 10 -19q0 -14 -17.5 -25t-48.5 -11q-27 0 -89 15.5t-80 15.5q-19 0 -38 -10t-23 -18q-14 8 -14 19t23 26t50 15z" />
    <glyph glyph-name="adieresis" unicode="&#xe4;" horiz-adv-x="492" 
d="M89 405q-12 1 -12 14q0 22 52.5 41.5t108.5 19.5q38 0 69 -8.5t56.5 -37.5t25.5 -77v-288q0 -22 7 -31t23 -9h28q5 -7 5 -15q0 -14 -41 -14q-52 0 -52 63v32q-91 -105 -193 -105q-63 0 -94.5 38.5t-31.5 100.5q0 111 117 122l202 18v87q0 94 -119 94q-47 0 -91 -14.5
t-60 -30.5zM166 19q103 0 193 115v104l-202 -18q-87 -9 -87 -93q0 -47 24.5 -77.5t71.5 -30.5zM102 605q0 29 28 29q29 0 29 -29q0 -28 -29 -28q-28 0 -28 28zM315 605q0 29 28 29q29 0 29 -29q0 -28 -29 -28q-28 0 -28 28z" />
    <glyph glyph-name="aring" unicode="&#xe5;" horiz-adv-x="492" 
d="M89 405q-12 1 -12 14q0 22 52.5 41.5t108.5 19.5q38 0 69 -8.5t56.5 -37.5t25.5 -77v-288q0 -22 7 -31t23 -9h28q5 -7 5 -15q0 -14 -41 -14q-52 0 -52 63v32q-91 -105 -193 -105q-63 0 -94.5 38.5t-31.5 100.5q0 111 117 122l202 18v87q0 94 -119 94q-47 0 -91 -14.5
t-60 -30.5zM166 19q103 0 193 115v104l-202 -18q-87 -9 -87 -93q0 -47 24.5 -77.5t71.5 -30.5zM150 632q0 84 84 84q41 0 62.5 -22t21.5 -62q0 -84 -84 -84t-84 84zM179 632q0 -55 55 -55t55 55q0 25 -14.5 40t-40.5 15q-55 0 -55 -55z" />
    <glyph glyph-name="ae" unicode="&#xe6;" horiz-adv-x="797" 
d="M89 405q-12 1 -12 14q0 22 52.5 41.5t108.5 19.5q58 0 102 -25t48 -86q28 55 75 83t102 28q85 0 128.5 -56t43.5 -141q0 -20 -5 -33h-342q0 -189 127 -224q23 -6 48 -6q51 0 92.5 17t61.5 35q13 -4 13 -16q0 -8 -15.5 -22.5t-56.5 -29t-96 -14.5q-62 0 -110 31.5
t-73 89.5q-44 -52 -103 -86.5t-112 -34.5q-63 0 -94.5 38.5t-31.5 100.5q0 111 117 122q74 4 202 18q0 80 -11 118t-34.5 50.5t-73.5 12.5q-47 0 -91 -14.5t-60 -30.5zM166 19q51 0 107.5 33.5t97.5 85.5q-12 40 -12 90v10l-202 -18q-87 -9 -87 -93q0 -46 24.5 -77t71.5 -31
zM563 452q-65 0 -111.5 -44.5t-58.5 -127.5h313q0 77 -35.5 124.5t-107.5 47.5z" />
    <glyph glyph-name="ccedilla" unicode="&#xe7;" horiz-adv-x="490" 
d="M435 426q2 -8 -10 -16q-36 23 -62 31t-81 8q-76 0 -124 -51t-48 -161q0 -101 49.5 -159t132.5 -58q46 0 85.5 14t54.5 29q10 -6 10 -14q0 -15 -24 -29q-52 -30 -125 -30q-98 0 -156.5 65.5t-58.5 181.5q0 124 59 183.5t145 59.5q39 0 67.5 -5.5t40 -11t30.5 -17.5
q13 -7 15 -20zM321 -112q0 42 -59 46q-5 2 -5 17l1 64l31 -1l-3 -54q28 -2 46 -19.5t18 -53.5q0 -35 -21.5 -53.5t-54.5 -18.5q-32 0 -49 11t-17 24q0 14 19 18q2 -9 15.5 -17t30.5 -8q21 0 34.5 11t13.5 34z" />
    <glyph glyph-name="egrave" unicode="&#xe8;" horiz-adv-x="508" 
d="M443 250h-342v-23q0 -96 48.5 -151.5t126.5 -55.5q51 0 92.5 17t61.5 35q13 -4 13 -16q0 -11 -8 -17q-59 -49 -160 -49q-91 0 -148 64.5t-57 173.5q0 122 60 187t146 65q85 0 128.5 -56t43.5 -141q0 -20 -5 -33zM274 452q-65 0 -111.5 -44.5t-58.5 -127.5h313
q0 77 -35.5 124.5t-107.5 47.5zM342 577q-5 -17 -21 -17q-9 0 -35 19t-59 44t-54 35q0 19 23 19q13 0 40 -19t59.5 -45.5t46.5 -35.5z" />
    <glyph glyph-name="eacute" unicode="&#xe9;" horiz-adv-x="508" 
d="M443 250h-342v-23q0 -96 48.5 -151.5t126.5 -55.5q51 0 92.5 17t61.5 35q13 -4 13 -16q0 -11 -8 -17q-59 -49 -160 -49q-91 0 -148 64.5t-57 173.5q0 122 60 187t146 65q85 0 128.5 -56t43.5 -141q0 -20 -5 -33zM274 452q-65 0 -111.5 -44.5t-58.5 -127.5h313
q0 77 -35.5 124.5t-107.5 47.5zM221 577q14 9 46.5 35.5t59.5 45.5t40 19q23 0 23 -19q-21 -10 -54 -35t-59 -44t-35 -19q-16 0 -21 17z" />
    <glyph glyph-name="ecircumflex" unicode="&#xea;" horiz-adv-x="508" 
d="M424 577q-5 -17 -21 -17q-6 0 -13 4q-14 7 -54 38t-59 43q-19 -12 -59 -43t-54 -38q-7 -4 -13 -4q-16 0 -21 17q14 9 46 35.5t58.5 45.5t41.5 19q13 0 39 -18.5t59 -45t50 -36.5zM443 250h-342v-23q0 -96 48.5 -151.5t126.5 -55.5q51 0 92.5 17t61.5 35q13 -4 13 -16
q0 -11 -8 -17q-59 -49 -160 -49q-91 0 -148 64.5t-57 173.5q0 122 60 187t146 65q85 0 128.5 -56t43.5 -141q0 -20 -5 -33zM274 452q-65 0 -111.5 -44.5t-58.5 -127.5h313q0 77 -35.5 124.5t-107.5 47.5z" />
    <glyph glyph-name="edieresis" unicode="&#xeb;" horiz-adv-x="508" 
d="M443 250h-342v-23q0 -96 48.5 -151.5t126.5 -55.5q51 0 92.5 17t61.5 35q13 -4 13 -16q0 -11 -8 -17q-59 -49 -160 -49q-91 0 -148 64.5t-57 173.5q0 122 60 187t146 65q85 0 128.5 -56t43.5 -141q0 -20 -5 -33zM274 452q-65 0 -111.5 -44.5t-58.5 -127.5h313
q0 77 -35.5 124.5t-107.5 47.5zM144 605q0 29 28 29q29 0 29 -29q0 -28 -29 -28q-28 0 -28 28zM357 605q0 29 28 29q29 0 29 -29q0 -28 -29 -28q-28 0 -28 28z" />
    <glyph glyph-name="igrave" unicode="&#xec;" horiz-adv-x="286" 
d="M190 577q-5 -17 -21 -17q-9 0 -35 19t-59 44t-54 35q0 19 23 19q13 0 40 -19t59.5 -45.5t46.5 -35.5zM112 470q27 0 38 -12t11 -41v-361q0 -23 24 -23h27q4 -4 4 -13q0 -20 -42 -20q-20 0 -32.5 10t-12.5 29v370q0 26 -26 26h-28q-5 7 -5 16q0 19 42 19z" />
    <glyph glyph-name="iacute" unicode="&#xed;" horiz-adv-x="286" 
d="M112 470q27 0 38 -12t11 -41v-361q0 -23 24 -23h27q4 -4 4 -13q0 -20 -42 -20q-20 0 -32.5 10t-12.5 29v370q0 26 -26 26h-28q-5 7 -5 16q0 19 42 19zM69 577q14 9 46.5 35.5t59.5 45.5t40 19q23 0 23 -19q-21 -10 -54 -35t-59 -44t-35 -19q-16 0 -21 17z" />
    <glyph glyph-name="icircumflex" unicode="&#xee;" horiz-adv-x="286" 
d="M272 577q-5 -17 -21 -17q-6 0 -13 4q-14 7 -54 38t-59 43q-19 -12 -59 -43t-54 -38q-7 -4 -13 -4q-16 0 -21 17q14 9 46 35.5t58.5 45.5t41.5 19q13 0 39 -18.5t59 -45t50 -36.5zM112 470q27 0 38 -12t11 -41v-361q0 -23 24 -23h27q4 -4 4 -13q0 -20 -42 -20
q-20 0 -32.5 10t-12.5 29v370q0 26 -26 26h-28q-5 7 -5 16q0 19 42 19z" />
    <glyph glyph-name="idieresis" unicode="&#xef;" horiz-adv-x="286" 
d="M112 470q27 0 38 -12t11 -41v-361q0 -23 24 -23h27q4 -4 4 -13q0 -20 -42 -20q-20 0 -32.5 10t-12.5 29v370q0 26 -26 26h-28q-5 7 -5 16q0 19 42 19zM-8 605q0 29 28 29q29 0 29 -29q0 -28 -29 -28q-28 0 -28 28zM205 605q0 29 28 29q29 0 29 -29q0 -28 -29 -28
q-28 0 -28 28z" />
    <glyph glyph-name="eth" unicode="&#xf0;" horiz-adv-x="574" 
d="M444 616l-49 -18q99 -140 99 -320q0 -152 -52 -216t-156 -64q-216 0 -216 252q0 122 56.5 185.5t149.5 63.5q98 0 159 -51q-27 76 -74 138l-106 -39q-6 6 -8 12q-3 8 1.5 14.5t26.5 14.5l65 24q-35 40 -72 69q0 10 5 17q11 15 28 2q42 -34 74 -76l90 33q3 -2 7 -12
q6 -17 -28 -29zM464 278q0 58 -12 109q-64 80 -175 80q-81 0 -129 -56t-48 -161q0 -117 47.5 -168.5t138.5 -51.5q90 0 134 56t44 192z" />
    <glyph glyph-name="ntilde" unicode="&#xf1;" horiz-adv-x="582" 
d="M95 470q29 0 41 -12t12 -41v-64q80 127 192 127q66 0 102.5 -44t36.5 -125v-253q0 -27 18 -27h42q3 -6 3 -14q0 -17 -48 -17q-47 0 -47 52v255q0 71 -29 107t-80 36q-105 0 -190 -150v-295q-8 -5 -16 -5q-16 0 -16 16v393q0 27 -23 27h-40q-3 8 -3 17q0 17 45 17z
M209 640q25 0 82.5 -16t80.5 -16q40 0 64 24q10 -7 10 -19q0 -13 -17.5 -24.5t-48.5 -11.5q-27 0 -89 15.5t-80 15.5q-19 0 -38 -10t-23 -18q-14 8 -14 19t23 26t50 15z" />
    <glyph glyph-name="ograve" unicode="&#xf2;" horiz-adv-x="549" 
d="M347 576q-5 -17 -21 -17q-9 0 -35 19t-59 44t-54 35q0 19 23 19q13 0 40 -19t59.5 -45.5t46.5 -35.5zM70 235q0 119 57 182t154 63q94 0 146 -62t52 -183q0 -245 -206 -245q-203 0 -203 245zM101 235q0 -114 44 -164t128 -50q175 0 175 214q0 105 -43.5 159.5
t-123.5 54.5q-83 0 -131.5 -55.5t-48.5 -158.5z" />
    <glyph glyph-name="oacute" unicode="&#xf3;" horiz-adv-x="549" 
d="M70 235q0 119 57 182t154 63q94 0 146 -62t52 -183q0 -245 -206 -245q-203 0 -203 245zM101 235q0 -114 44 -164t128 -50q175 0 175 214q0 105 -43.5 159.5t-123.5 54.5q-83 0 -131.5 -55.5t-48.5 -158.5zM226 576q14 9 46.5 35.5t59.5 45.5t40 19q23 0 23 -19
q-21 -10 -54 -35t-59 -44t-35 -19q-16 0 -21 17z" />
    <glyph glyph-name="ocircumflex" unicode="&#xf4;" horiz-adv-x="549" 
d="M429 576q-5 -17 -21 -17q-6 0 -13 4q-14 7 -54 38t-59 43q-19 -12 -59 -43t-54 -38q-7 -4 -13 -4q-16 0 -21 17q14 9 46 35.5t58.5 45.5t41.5 19q13 0 39 -18.5t59 -45t50 -36.5zM70 235q0 119 57 182t154 63q94 0 146 -62t52 -183q0 -245 -206 -245q-203 0 -203 245z
M101 235q0 -114 44 -164t128 -50q175 0 175 214q0 105 -43.5 159.5t-123.5 54.5q-83 0 -131.5 -55.5t-48.5 -158.5z" />
    <glyph glyph-name="otilde" unicode="&#xf5;" horiz-adv-x="549" 
d="M70 235q0 119 57 182t154 63q94 0 146 -62t52 -183q0 -245 -206 -245q-203 0 -203 245zM101 235q0 -114 44 -164t128 -50q175 0 175 214q0 105 -43.5 159.5t-123.5 54.5q-83 0 -131.5 -55.5t-48.5 -158.5zM200 640q25 0 82.5 -16t80.5 -16q40 0 64 24q10 -7 10 -19
q0 -13 -17.5 -24.5t-48.5 -11.5q-27 0 -89 15.5t-80 15.5q-19 0 -38 -10t-23 -18q-14 8 -14 19t23 26t50 15z" />
    <glyph glyph-name="odieresis" unicode="&#xf6;" horiz-adv-x="549" 
d="M70 235q0 119 57 182t154 63q94 0 146 -62t52 -183q0 -245 -206 -245q-203 0 -203 245zM101 235q0 -114 44 -164t128 -50q175 0 175 214q0 105 -43.5 159.5t-123.5 54.5q-83 0 -131.5 -55.5t-48.5 -158.5zM149 604q0 29 28 29q29 0 29 -29q0 -28 -29 -28q-28 0 -28 28z
M362 604q0 29 28 29q29 0 29 -29q0 -28 -29 -28q-28 0 -28 28z" />
    <glyph glyph-name="divide" unicode="&#xf7;" horiz-adv-x="540" 
d="M243 54q0 29 28 29q29 0 29 -29q0 -28 -29 -28q-28 0 -28 28zM243 448q0 29 28 29q29 0 29 -29q0 -28 -29 -28q-28 0 -28 28zM464 237h-401q-3 12 -3 16q0 16 16 16h401q3 -5 3 -15q0 -17 -16 -17z" />
    <glyph glyph-name="oslash" unicode="&#xf8;" horiz-adv-x="549" 
d="M70 235q0 119 57 182t154 63q25 0 50 -5l42 141q6 3 15 3q11 0 12 -10q0 -6 -1 -9l-39 -134q119 -45 119 -231q0 -245 -206 -245q-25 0 -52 5l-30 -105q-5 -4 -17 -4q-8 0 -11 5q-2 4 1 14l28 97q-122 42 -122 233zM101 235q0 -166 100 -203l121 412q-22 5 -41 5
q-83 0 -131.5 -55.5t-48.5 -158.5zM448 235q0 159 -97 201l-121 -412q21 -3 43 -3q175 0 175 214z" />
    <glyph glyph-name="ugrave" unicode="&#xf9;" horiz-adv-x="579" 
d="M481 0q-23 0 -33 11.5t-10 40.5v68q-82 -130 -199 -130q-68 0 -99.5 37t-31.5 126v257q0 27 -23 27h-43q-2 8 -2 16q0 17 50 17q28 0 39.5 -12.5t11.5 -41.5v-261q0 -73 24.5 -104t73.5 -31q120 0 199 156v290q7 4 17 4q14 0 14 -14v-398q0 -27 20 -27h38q2 -8 2 -11
q0 -20 -48 -20zM347 576q-5 -17 -21 -17q-9 0 -35 19t-59 44t-54 35q0 19 23 19q13 0 40 -19t59.5 -45.5t46.5 -35.5z" />
    <glyph glyph-name="uacute" unicode="&#xfa;" horiz-adv-x="579" 
d="M481 0q-23 0 -33 11.5t-10 40.5v68q-82 -130 -199 -130q-68 0 -99.5 37t-31.5 126v257q0 27 -23 27h-43q-2 8 -2 16q0 17 50 17q28 0 39.5 -12.5t11.5 -41.5v-261q0 -73 24.5 -104t73.5 -31q120 0 199 156v290q7 4 17 4q14 0 14 -14v-398q0 -27 20 -27h38q2 -8 2 -11
q0 -20 -48 -20zM226 576q14 9 46.5 35.5t59.5 45.5t40 19q23 0 23 -19q-21 -10 -54 -35t-59 -44t-35 -19q-16 0 -21 17z" />
    <glyph glyph-name="ucircumflex" unicode="&#xfb;" horiz-adv-x="579" 
d="M429 576q-5 -17 -21 -17q-6 0 -13 4q-14 7 -54 38t-59 43q-19 -12 -59 -43t-54 -38q-7 -4 -13 -4q-16 0 -21 17q14 9 46 35.5t58.5 45.5t41.5 19q13 0 39 -18.5t59 -45t50 -36.5zM481 0q-23 0 -33 11.5t-10 40.5v68q-82 -130 -199 -130q-68 0 -99.5 37t-31.5 126v257
q0 27 -23 27h-43q-2 8 -2 16q0 17 50 17q28 0 39.5 -12.5t11.5 -41.5v-261q0 -73 24.5 -104t73.5 -31q120 0 199 156v290q7 4 17 4q14 0 14 -14v-398q0 -27 20 -27h38q2 -8 2 -11q0 -20 -48 -20z" />
    <glyph glyph-name="udieresis" unicode="&#xfc;" horiz-adv-x="579" 
d="M481 0q-23 0 -33 11.5t-10 40.5v68q-82 -130 -199 -130q-68 0 -99.5 37t-31.5 126v257q0 27 -23 27h-43q-2 8 -2 16q0 17 50 17q28 0 39.5 -12.5t11.5 -41.5v-261q0 -73 24.5 -104t73.5 -31q120 0 199 156v290q7 4 17 4q14 0 14 -14v-398q0 -27 20 -27h38q2 -8 2 -11
q0 -20 -48 -20zM149 604q0 29 28 29q29 0 29 -29q0 -28 -29 -28q-28 0 -28 28zM362 604q0 29 28 29q29 0 29 -29q0 -28 -29 -28q-28 0 -28 28z" />
    <glyph glyph-name="yacute" unicode="&#xfd;" horiz-adv-x="527" 
d="M100 435l154 -384q8 -21 23 -21h4q60 117 107.5 231.5t47.5 155.5q0 26 -24 26h-40q-2 6 -2 11q0 16 38 16q59 0 59 -50q0 -69 -91.5 -266t-145.5 -273q-34 -47 -66 -64t-73 -17q-59 0 -59 22q0 10 4 14h60q20 0 34 3t35.5 18t41.5 44q27 39 58 99q-23 0 -35 29l-157 397
q-7 17 -22 17h-39q-2 6 -2 11q0 16 39 16q22 0 32.5 -8t18.5 -27zM196 577q14 9 46.5 35.5t59.5 45.5t40 19q23 0 23 -19q-21 -10 -54 -35t-59 -44t-35 -19q-16 0 -21 17z" />
    <glyph glyph-name="thorn" unicode="&#xfe;" horiz-adv-x="559" 
d="M122 700q14 0 14 -11v-305q32 43 77 69.5t95 26.5q181 0 181 -237q0 -127 -56 -190t-138 -63q-92 0 -159 76v-273q-8 -5 -15 -5q-16 0 -16 16v893q7 3 17 3zM305 450q-102 0 -169 -112v-226q68 -92 158 -92q72 0 118.5 54t46.5 167q0 209 -154 209z" />
    <glyph glyph-name="ydieresis" unicode="&#xff;" horiz-adv-x="527" 
d="M100 435l154 -384q8 -21 23 -21h4q60 117 107.5 231.5t47.5 155.5q0 26 -24 26h-40q-2 6 -2 11q0 16 38 16q59 0 59 -50q0 -69 -91.5 -266t-145.5 -273q-34 -47 -66 -64t-73 -17q-59 0 -59 22q0 10 4 14h60q20 0 34 3t35.5 18t41.5 44q27 39 58 99q-23 0 -35 29l-157 397
q-7 17 -22 17h-39q-2 6 -2 11q0 16 39 16q22 0 32.5 -8t18.5 -27zM119 605q0 29 28 29q29 0 29 -29q0 -28 -29 -28q-28 0 -28 28zM332 605q0 29 28 29q29 0 29 -29q0 -28 -29 -28q-28 0 -28 28z" />
    <glyph glyph-name="Amacron" unicode="&#x100;" horiz-adv-x="627" 
d="M36 0q-11 0 -16 5l274 689q9 6 20 6q15 0 21 -17l272 -673q-3 -10 -14 -10q-13 0 -17 11l-74 182h-375l-74 -184q-4 -9 -17 -9zM313 657l-175 -435h352zM429 826h-268l-2 4q-2 3 -2 9q0 19 27 19h281q4 -3 4 -15q0 -17 -40 -17z" />
    <glyph glyph-name="amacron" unicode="&#x101;" horiz-adv-x="492" 
d="M89 405q-12 1 -12 14q0 22 52.5 41.5t108.5 19.5q38 0 69 -8.5t56.5 -37.5t25.5 -77v-288q0 -22 7 -31t23 -9h28q5 -7 5 -15q0 -14 -41 -14q-52 0 -52 63v32q-91 -105 -193 -105q-63 0 -94.5 38.5t-31.5 100.5q0 111 117 122l202 18v87q0 94 -119 94q-47 0 -91 -14.5
t-60 -30.5zM166 19q103 0 193 115v104l-202 -18q-87 -9 -87 -93q0 -47 24.5 -77.5t71.5 -30.5zM347 596h-268l-2 4q-2 3 -2 9q0 19 27 19h281q4 -3 4 -15q0 -17 -40 -17z" />
    <glyph glyph-name="Abreve" unicode="&#x102;" horiz-adv-x="627" 
d="M36 0q-11 0 -16 5l274 689q9 6 20 6q15 0 21 -17l272 -673q-3 -10 -14 -10q-13 0 -17 11l-74 182h-375l-74 -184q-4 -9 -17 -9zM313 657l-175 -435h352zM216 893q2 -38 28 -59q22 -18 69 -18q49 0 70 19q27 24 27 58q5 4 14 4q14 0 14 -11q0 -36 -33 -69q-31 -30 -92 -30
q-55 0 -87 26q-38 31 -38 72q0 12 14 12q10 0 14 -4z" />
    <glyph glyph-name="abreve" unicode="&#x103;" horiz-adv-x="492" 
d="M89 405q-12 1 -12 14q0 22 52.5 41.5t108.5 19.5q38 0 69 -8.5t56.5 -37.5t25.5 -77v-288q0 -22 7 -31t23 -9h28q5 -7 5 -15q0 -14 -41 -14q-52 0 -52 63v32q-91 -105 -193 -105q-63 0 -94.5 38.5t-31.5 100.5q0 111 117 122l202 18v87q0 94 -119 94q-47 0 -91 -14.5
t-60 -30.5zM166 19q103 0 193 115v104l-202 -18q-87 -9 -87 -93q0 -47 24.5 -77.5t71.5 -30.5zM137 663q2 -38 28 -59q22 -18 69 -18q49 0 70 19q27 24 27 58q5 4 14 4q14 0 14 -11q0 -36 -33 -69q-31 -30 -92 -30q-55 0 -87 26q-38 31 -38 72q0 12 14 12q10 0 14 -4z" />
    <glyph glyph-name="Aogonek" unicode="&#x104;" horiz-adv-x="627" 
d="M335 683l273 -676q-60 -68 -60 -105q0 -48 62 -48q3 -6 3 -14q0 -13 -22 -13q-14 0 -28.5 4t-29.5 21t-15 45q0 12 3 24t5.5 19.5t11.5 21.5t11 17.5t14 18.5l12 16q-4 8 -6 14l-67 165h-375l-74 -184q-4 -9 -17 -9q-11 0 -16 5l274 689q9 6 20 6q15 0 21 -17zM313 657
l-175 -435h352z" />
    <glyph glyph-name="aogonek" unicode="&#x105;" horiz-adv-x="492" 
d="M89 405q-12 1 -12 14q0 22 52.5 41.5t108.5 19.5q73 0 112 -33.5t39 -125.5v-252q0 -22 7 -31t23 -9h28q5 -7 5 -15q0 -5 -5 -8q-18 -18 -35 -50t-17 -49q0 -48 62 -48q3 -6 3 -14q0 -13 -22 -13q-14 0 -28.5 4t-29.5 21t-15 45q0 46 37 98q-28 3 -35.5 23t-7.5 72
q-91 -105 -193 -105q-63 0 -94.5 38.5t-31.5 100.5q0 111 117 122l202 18q0 80 -11 118t-34.5 50.5t-73.5 12.5q-47 0 -91 -14.5t-60 -30.5zM166 19q103 0 193 115v104l-202 -18q-87 -9 -87 -93q0 -46 24.5 -77t71.5 -31z" />
    <glyph glyph-name="Cacute" unicode="&#x106;" horiz-adv-x="662" 
d="M593 122q6 2 12.5 -1t6.5 -11q0 -12 -9 -23q-76 -97 -234 -97q-137 0 -213 88t-76 273q0 175 76 267t210 92q84 0 142 -29t87 -76q7 -11 7 -21q0 -5 -6.5 -8.5t-13.5 -1.5q-37 56 -86.5 80.5t-129.5 24.5q-120 0 -187.5 -85.5t-67.5 -242.5q0 -330 258 -330
q149 0 224 101zM280 807q14 9 46.5 35.5t59.5 45.5t40 19q23 0 23 -19q-21 -10 -54 -35t-59 -44t-35 -19q-16 0 -21 17z" />
    <glyph glyph-name="cacute" unicode="&#x107;" horiz-adv-x="490" 
d="M435 426q2 -8 -10 -16q-36 23 -62 31t-81 8q-76 0 -124 -51t-48 -161q0 -101 49.5 -159t132.5 -58q46 0 85.5 14t54.5 29q10 -6 10 -14q0 -15 -24 -29q-52 -30 -125 -30q-98 0 -156.5 65.5t-58.5 181.5q0 124 59 183.5t145 59.5q39 0 67.5 -5.5t40 -11t30.5 -17.5
q13 -7 15 -20zM225 577q14 9 46.5 35.5t59.5 45.5t40 19q23 0 23 -19q-21 -10 -54 -35t-59 -44t-35 -19q-16 0 -21 17z" />
    <glyph glyph-name="Ccircumflex" unicode="&#x108;" horiz-adv-x="662" 
d="M520 807q-5 -17 -21 -17q-6 0 -13 4q-14 7 -54 38t-59 43q-19 -12 -59 -43t-54 -38q-7 -4 -13 -4q-16 0 -21 17q14 9 46 35.5t58.5 45.5t41.5 19q13 0 39 -18.5t59 -45t50 -36.5zM593 122q6 2 12.5 -1t6.5 -11q0 -12 -9 -23q-76 -97 -234 -97q-137 0 -213 88t-76 273
q0 175 76 267t210 92q84 0 142 -29t87 -76q7 -11 7 -21q0 -5 -6.5 -8.5t-13.5 -1.5q-37 56 -86.5 80.5t-129.5 24.5q-120 0 -187.5 -85.5t-67.5 -242.5q0 -330 258 -330q149 0 224 101z" />
    <glyph glyph-name="ccircumflex" unicode="&#x109;" horiz-adv-x="490" 
d="M428 577q-5 -17 -21 -17q-6 0 -13 4q-14 7 -54 38t-59 43q-19 -12 -59 -43t-54 -38q-7 -4 -13 -4q-16 0 -21 17q14 9 46 35.5t58.5 45.5t41.5 19q13 0 39 -18.5t59 -45t50 -36.5zM435 426q2 -8 -10 -16q-36 23 -62 31t-81 8q-76 0 -124 -51t-48 -161q0 -101 49.5 -159
t132.5 -58q46 0 85.5 14t54.5 29q10 -6 10 -14q0 -15 -24 -29q-52 -30 -125 -30q-98 0 -156.5 65.5t-58.5 181.5q0 124 59 183.5t145 59.5q39 0 67.5 -5.5t40 -11t30.5 -17.5q13 -7 15 -20z" />
    <glyph glyph-name="Cdotaccent" unicode="&#x10a;" horiz-adv-x="662" 
d="M593 122q6 2 12.5 -1t6.5 -11q0 -12 -9 -23q-76 -97 -234 -97q-137 0 -213 88t-76 273q0 175 76 267t210 92q84 0 142 -29t87 -76q7 -11 7 -21q0 -5 -6.5 -8.5t-13.5 -1.5q-37 56 -86.5 80.5t-129.5 24.5q-120 0 -187.5 -85.5t-67.5 -242.5q0 -330 258 -330
q149 0 224 101zM347 835q0 29 28 29q29 0 29 -29q0 -28 -29 -28q-28 0 -28 28z" />
    <glyph glyph-name="cdotaccent" unicode="&#x10b;" horiz-adv-x="490" 
d="M435 426q2 -8 -10 -16q-36 23 -62 31t-81 8q-76 0 -124 -51t-48 -161q0 -101 49.5 -159t132.5 -58q46 0 85.5 14t54.5 29q10 -6 10 -14q0 -15 -24 -29q-52 -30 -125 -30q-98 0 -156.5 65.5t-58.5 181.5q0 124 59 183.5t145 59.5q39 0 67.5 -5.5t40 -11t30.5 -17.5
q13 -7 15 -20zM252 605q0 29 28 29q29 0 29 -29q0 -28 -29 -28q-28 0 -28 28z" />
    <glyph glyph-name="Ccaron" unicode="&#x10c;" horiz-adv-x="662" 
d="M593 122q6 2 12.5 -1t6.5 -11q0 -12 -9 -23q-76 -97 -234 -97q-137 0 -213 88t-76 273q0 175 76 267t210 92q84 0 142 -29t87 -76q7 -11 7 -21q0 -5 -6.5 -8.5t-13.5 -1.5q-37 56 -86.5 80.5t-129.5 24.5q-120 0 -187.5 -85.5t-67.5 -242.5q0 -330 258 -330
q149 0 224 101zM363 790q-7 0 -13 4q-12 7 -61.5 44.5t-73.5 49.5q0 19 23 19q7 0 18 -5.5t25.5 -16t26.5 -20t29 -23.5t26 -21q10 8 33 26.5t37 29.5t30.5 20.5t25.5 9.5q23 0 23 -19q-24 -12 -73 -49.5t-62 -44.5q-6 -4 -14 -4z" />
    <glyph glyph-name="ccaron" unicode="&#x10d;" horiz-adv-x="490" 
d="M435 426q2 -8 -10 -16q-36 23 -62 31t-81 8q-76 0 -124 -51t-48 -161q0 -101 49.5 -159t132.5 -58q46 0 85.5 14t54.5 29q10 -6 10 -14q0 -15 -24 -29q-52 -30 -125 -30q-98 0 -156.5 65.5t-58.5 181.5q0 124 59 183.5t145 59.5q39 0 67.5 -5.5t40 -11t30.5 -17.5
q13 -7 15 -20zM280 560q-7 0 -13 4q-12 7 -61.5 44.5t-73.5 49.5q0 19 23 19q7 0 18 -5.5t25.5 -16t26.5 -20t29 -23.5t26 -21q10 8 33 26.5t37 29.5t30.5 20.5t25.5 9.5q23 0 23 -19q-24 -12 -73 -49.5t-62 -44.5q-6 -4 -14 -4z" />
    <glyph glyph-name="Dcaron" unicode="&#x10e;" horiz-adv-x="709" 
d="M135 700h134q189 0 274.5 -86.5t85.5 -267.5q0 -187 -81 -266.5t-244 -79.5h-167q-17 0 -17 16v679q7 5 15 5zM277 669h-125v-637h151q150 0 222.5 71.5t72.5 242.5q0 164 -75.5 243.5t-245.5 79.5zM324 790q-7 0 -13 4q-12 7 -61.5 44.5t-73.5 49.5q0 19 23 19
q7 0 18 -5.5t25.5 -16t26.5 -20t29 -23.5t26 -21q10 8 33 26.5t37 29.5t30.5 20.5t25.5 9.5q23 0 23 -19q-24 -12 -73 -49.5t-62 -44.5q-6 -4 -14 -4z" />
    <glyph glyph-name="dcaron" unicode="&#x10f;" horiz-adv-x="586" 
d="M422 57v1q-70 -68 -154 -68q-88 0 -143 60.5t-55 188.5q0 64 18.5 112.5t49 75.5t65.5 40t73 13q90 0 146 -63v267q0 16 14 16q9 0 17 -4v-632q0 -34 34 -34h32q4 -5 4 -15q0 -15 -37 -15q-64 0 -64 57zM263 18q100 0 159 77v282q-30 39 -61 56t-86 17q-67 0 -121 -52
t-54 -160q0 -110 46.5 -165t116.5 -55zM580 642q-12 0 -21.5 7.5t-9.5 20.5q0 29 29 29q31 0 31 -47q0 -36 -10 -62t-24 -26q-12 0 -16 9q21 28 21 69z" />
    <glyph glyph-name="Dcroat" unicode="&#x110;" horiz-adv-x="709" 
d="M135 700h134q189 0 274.5 -86.5t85.5 -267.5q0 -187 -81 -266.5t-244 -79.5h-162q-9 0 -14 3.5t-7 12t-2 15t0.5 19.5t0.5 19v263h-88q-4 8 -4 14q0 18 22 18h70v331q7 5 15 5zM317 332h-165v-300h151q150 0 222.5 71.5t72.5 242.5q0 164 -75.5 243.5t-245.5 79.5h-125
v-305h184q4 -4 4 -15q0 -17 -23 -17z" />
    <glyph glyph-name="dcroat" unicode="&#x111;" horiz-adv-x="573" 
d="M521 570h-68v-506q0 -34 34 -34h32q4 -5 4 -15q0 -15 -37 -15q-19 0 -31 4q-33 10 -33 54q-70 -68 -154 -68q-12 0 -32 2q-75 11 -120.5 71t-45.5 176q0 64 18.5 112.5t49 75.5t65.5 40t73 13q90 0 146 -63v153h-158q-4 8 -4 14q0 18 22 18h140v82q0 16 14 16q9 0 17 -4
v-94h87q4 -4 4 -15q0 -17 -23 -17zM263 18q100 0 159 77v282q-30 39 -61 56t-86 17q-67 0 -121 -52t-54 -160q0 -110 46.5 -165t116.5 -55z" />
    <glyph glyph-name="Emacron" unicode="&#x112;" horiz-adv-x="658" 
d="M508 346h-356v-314h442q4 -3 4 -15q0 -17 -24 -17h-438q-16 0 -16 17v679q5 4 15 4h459q4 -3 4 -15q0 -17 -24 -17h-422v-290h376q4 -3 4 -15q0 -17 -24 -17zM475 826h-268l-2 4q-2 3 -2 9q0 19 27 19h281q4 -3 4 -15q0 -17 -40 -17z" />
    <glyph glyph-name="emacron" unicode="&#x113;" horiz-adv-x="508" 
d="M443 250h-342v-23q0 -96 48.5 -151.5t126.5 -55.5q51 0 92.5 17t61.5 35q13 -4 13 -16q0 -11 -8 -17q-59 -49 -160 -49q-91 0 -148 64.5t-57 173.5q0 122 60 187t146 65q85 0 128.5 -56t43.5 -141q0 -20 -5 -33zM274 452q-65 0 -111.5 -44.5t-58.5 -127.5h313
q0 77 -35.5 124.5t-107.5 47.5zM389 596h-268l-2 4q-2 3 -2 9q0 19 27 19h281q4 -3 4 -15q0 -17 -40 -17z" />
    <glyph glyph-name="Ebreve" unicode="&#x114;" horiz-adv-x="658" 
d="M508 346h-356v-314h442q4 -3 4 -15q0 -17 -24 -17h-438q-16 0 -16 17v679q5 4 15 4h459q4 -3 4 -15q0 -17 -24 -17h-422v-290h376q4 -3 4 -15q0 -17 -24 -17zM262 893q2 -38 28 -59q22 -18 69 -18q49 0 70 19q27 24 27 58q5 4 14 4q14 0 14 -11q0 -36 -33 -69
q-31 -30 -92 -30q-55 0 -87 26q-38 31 -38 72q0 12 14 12q10 0 14 -4z" />
    <glyph glyph-name="ebreve" unicode="&#x115;" horiz-adv-x="508" 
d="M443 250h-342v-23q0 -96 48.5 -151.5t126.5 -55.5q51 0 92.5 17t61.5 35q13 -4 13 -16q0 -11 -8 -17q-59 -49 -160 -49q-91 0 -148 64.5t-57 173.5q0 122 60 187t146 65q85 0 128.5 -56t43.5 -141q0 -20 -5 -33zM274 452q-65 0 -111.5 -44.5t-58.5 -127.5h313
q0 77 -35.5 124.5t-107.5 47.5zM179 663q2 -38 28 -59q22 -18 69 -18q49 0 70 19q27 24 27 58q5 4 14 4q14 0 14 -11q0 -36 -33 -69q-31 -30 -92 -30q-55 0 -87 26q-38 31 -38 72q0 12 14 12q10 0 14 -4z" />
    <glyph glyph-name="Edotaccent" unicode="&#x116;" horiz-adv-x="658" 
d="M508 346h-356v-314h442q4 -3 4 -15q0 -17 -24 -17h-438q-16 0 -16 17v679q5 4 15 4h459q4 -3 4 -15q0 -17 -24 -17h-422v-290h376q4 -3 4 -15q0 -17 -24 -17zM342 835q0 29 28 29q29 0 29 -29q0 -28 -29 -28q-28 0 -28 28z" />
    <glyph glyph-name="edotaccent" unicode="&#x117;" horiz-adv-x="508" 
d="M443 250h-342v-23q0 -96 48.5 -151.5t126.5 -55.5q51 0 92.5 17t61.5 35q13 -4 13 -16q0 -11 -8 -17q-59 -49 -160 -49q-91 0 -148 64.5t-57 173.5q0 122 60 187t146 65q85 0 128.5 -56t43.5 -141q0 -20 -5 -33zM274 452q-65 0 -111.5 -44.5t-58.5 -127.5h313
q0 77 -35.5 124.5t-107.5 47.5zM248 605q0 29 28 29q29 0 29 -29q0 -28 -29 -28q-28 0 -28 28z" />
    <glyph glyph-name="Eogonek" unicode="&#x118;" horiz-adv-x="658" 
d="M508 346h-356v-314h444q2 -4 2 -12q0 -11 -9 -20q-18 -17 -35 -48.5t-17 -49.5q0 -48 62 -48q3 -6 3 -14q0 -13 -22 -13q-14 0 -28.5 4t-29.5 21t-15 45q0 43 49 103h-420q-16 0 -16 17v679q5 4 15 4h459q4 -3 4 -15q0 -17 -24 -17h-422v-290h376q4 -3 4 -15
q0 -17 -24 -17z" />
    <glyph glyph-name="eogonek" unicode="&#x119;" horiz-adv-x="508" 
d="M443 250h-342q0 -109 45.5 -169.5t129.5 -60.5q51 0 92.5 17t61.5 35q13 -4 13 -16q0 -11 -8 -17q-24 -16 -40.5 -50t-16.5 -54q0 -48 62 -48q3 -6 3 -14q0 -13 -22 -13q-14 0 -28.5 4t-29.5 21t-15 45q0 38 23 75q-49 -15 -96 -15q-91 0 -148 64.5t-57 173.5
q0 122 60 187t146 65q85 0 128.5 -56t43.5 -141q0 -20 -5 -33zM274 452q-65 0 -111.5 -44.5t-58.5 -127.5h313q0 77 -35.5 124.5t-107.5 47.5z" />
    <glyph glyph-name="Ecaron" unicode="&#x11a;" horiz-adv-x="658" 
d="M508 346h-356v-314h442q4 -3 4 -15q0 -17 -24 -17h-438q-16 0 -16 17v679q5 4 15 4h459q4 -3 4 -15q0 -17 -24 -17h-422v-290h376q4 -3 4 -15q0 -17 -24 -17zM364 790q-7 0 -13 4q-12 7 -61.5 44.5t-73.5 49.5q0 19 23 19q7 0 18 -5.5t25.5 -16t26.5 -20t29 -23.5t26 -21
q10 8 33 26.5t37 29.5t30.5 20.5t25.5 9.5q23 0 23 -19q-24 -12 -73 -49.5t-62 -44.5q-6 -4 -14 -4z" />
    <glyph glyph-name="ecaron" unicode="&#x11b;" horiz-adv-x="508" 
d="M443 250h-342v-23q0 -96 48.5 -151.5t126.5 -55.5q51 0 92.5 17t61.5 35q13 -4 13 -16q0 -11 -8 -17q-59 -49 -160 -49q-91 0 -148 64.5t-57 173.5q0 122 60 187t146 65q85 0 128.5 -56t43.5 -141q0 -20 -5 -33zM274 452q-65 0 -111.5 -44.5t-58.5 -127.5h313
q0 77 -35.5 124.5t-107.5 47.5zM276 560q-7 0 -13 4q-12 7 -61.5 44.5t-73.5 49.5q0 19 23 19q7 0 18 -5.5t25.5 -16t26.5 -20t29 -23.5t26 -21q10 8 33 26.5t37 29.5t30.5 20.5t25.5 9.5q23 0 23 -19q-24 -12 -73 -49.5t-62 -44.5q-6 -4 -14 -4z" />
    <glyph glyph-name="Gcircumflex" unicode="&#x11c;" horiz-adv-x="728" 
d="M531 807q-5 -17 -21 -17q-6 0 -13 4q-14 7 -54 38t-59 43q-19 -12 -59 -43t-54 -38q-7 -4 -13 -4q-16 0 -21 17q14 9 46 35.5t58.5 45.5t41.5 19q13 0 39 -18.5t59 -45t50 -36.5zM599 309h-205q-3 5 -3 15q0 17 29 17h177q31 0 31 -33v-303q-6 -6 -16 -6q-13 0 -13 17v90
q-95 -116 -228 -116q-123 0 -207 90.5t-84 270.5q0 171 83 265t209 94q67 0 124.5 -16.5t85 -35.5t27.5 -33q0 -8 -5.5 -12.5t-10.5 -2.5q-83 69 -219 69q-113 0 -188 -87.5t-75 -240.5q0 -86 21 -151.5t58.5 -103.5t83 -56.5t98.5 -18.5q66 0 128 35t99 92v161z" />
    <glyph glyph-name="gcircumflex" unicode="&#x11d;" horiz-adv-x="501" 
d="M412 439h-66q45 -47 45 -139q0 -178 -163 -178q-56 0 -91 21q-20 -39 -20 -76q0 -32 18.5 -47.5t71.5 -15.5h166q50 0 74 -27t24 -67q0 -75 -58.5 -120.5t-166.5 -45.5q-85 0 -140.5 32t-55.5 59q0 16 16 20q23 -34 68.5 -57.5t109.5 -23.5q92 0 144.5 34.5t52.5 97.5
q0 68 -77 68h-165q-63 0 -89 22t-26 64q0 44 28 102q-43 43 -43 138q0 88 44.5 134t121.5 46q55 0 93 -26q0 16 26 16h86q3 -3 3 -14q0 -17 -31 -17zM100 300q0 -79 33 -113.5t95 -34.5q131 0 131 148q0 74 -32 112t-92 38q-63 0 -99 -39t-36 -111zM383 576q-5 -17 -21 -17
q-6 0 -13 4q-14 7 -54 38t-59 43q-19 -12 -59 -43t-54 -38q-7 -4 -13 -4q-16 0 -21 17q14 9 46 35.5t58.5 45.5t41.5 19q13 0 39 -18.5t59 -45t50 -36.5z" />
    <glyph glyph-name="Gbreve" unicode="&#x11e;" horiz-adv-x="728" 
d="M599 309h-205q-3 5 -3 15q0 17 29 17h177q31 0 31 -33v-303q-6 -6 -16 -6q-13 0 -13 17v90q-95 -116 -228 -116q-123 0 -207 90.5t-84 270.5q0 171 83 265t209 94q67 0 124.5 -16.5t85 -35.5t27.5 -33q0 -8 -5.5 -12.5t-10.5 -2.5q-83 69 -219 69q-113 0 -188 -87.5
t-75 -240.5q0 -86 21 -151.5t58.5 -103.5t83 -56.5t98.5 -18.5q66 0 128 35t99 92v161zM281 893q2 -38 28 -59q22 -18 69 -18q49 0 70 19q27 24 27 58q5 4 14 4q14 0 14 -11q0 -36 -33 -69q-31 -30 -92 -30q-55 0 -87 26q-38 31 -38 72q0 12 14 12q10 0 14 -4z" />
    <glyph glyph-name="gbreve" unicode="&#x11f;" horiz-adv-x="501" 
d="M412 439h-66q45 -47 45 -139q0 -178 -163 -178q-56 0 -91 21q-20 -39 -20 -76q0 -32 18.5 -47.5t71.5 -15.5h166q50 0 74 -27t24 -67q0 -75 -58.5 -120.5t-166.5 -45.5q-85 0 -140.5 32t-55.5 59q0 16 16 20q23 -34 68.5 -57.5t109.5 -23.5q92 0 144.5 34.5t52.5 97.5
q0 68 -77 68h-165q-63 0 -89 22t-26 64q0 44 28 102q-43 43 -43 138q0 88 44.5 134t121.5 46q55 0 93 -26q0 16 26 16h86q3 -3 3 -14q0 -17 -31 -17zM100 300q0 -79 33 -113.5t95 -34.5q131 0 131 148q0 74 -32 112t-92 38q-63 0 -99 -39t-36 -111zM138 662q2 -38 28 -59
q22 -18 69 -18q49 0 70 19q27 24 27 58q5 4 14 4q14 0 14 -11q0 -36 -33 -69q-31 -30 -92 -30q-55 0 -87 26q-38 31 -38 72q0 12 14 12q10 0 14 -4z" />
    <glyph glyph-name="Gdotaccent" unicode="&#x120;" horiz-adv-x="728" 
d="M599 309h-205q-3 5 -3 15q0 17 29 17h177q31 0 31 -33v-303q-6 -6 -16 -6q-13 0 -13 17v90q-95 -116 -228 -116q-123 0 -207 90.5t-84 270.5q0 171 83 265t209 94q67 0 124.5 -16.5t85 -35.5t27.5 -33q0 -8 -5.5 -12.5t-10.5 -2.5q-83 69 -219 69q-113 0 -188 -87.5
t-75 -240.5q0 -86 21 -151.5t58.5 -103.5t83 -56.5t98.5 -18.5q66 0 128 35t99 92v161zM352 835q0 29 28 29q29 0 29 -29q0 -28 -29 -28q-28 0 -28 28z" />
    <glyph glyph-name="gdotaccent" unicode="&#x121;" horiz-adv-x="501" 
d="M412 439h-66q45 -47 45 -139q0 -178 -163 -178q-56 0 -91 21q-20 -39 -20 -76q0 -32 18.5 -47.5t71.5 -15.5h166q50 0 74 -27t24 -67q0 -75 -58.5 -120.5t-166.5 -45.5q-85 0 -140.5 32t-55.5 59q0 16 16 20q23 -34 68.5 -57.5t109.5 -23.5q92 0 144.5 34.5t52.5 97.5
q0 68 -77 68h-165q-63 0 -89 22t-26 64q0 44 28 102q-43 43 -43 138q0 88 44.5 134t121.5 46q55 0 93 -26q0 16 26 16h86q3 -3 3 -14q0 -17 -31 -17zM100 300q0 -79 33 -113.5t95 -34.5q131 0 131 148q0 74 -32 112t-92 38q-63 0 -99 -39t-36 -111zM207 604q0 29 28 29
q29 0 29 -29q0 -28 -29 -28q-28 0 -28 28z" />
    <glyph glyph-name="Gcommaaccent" unicode="&#x122;" horiz-adv-x="728" 
d="M599 309h-205q-3 5 -3 15q0 17 29 17h177q31 0 31 -33v-303q-6 -6 -16 -6q-13 0 -13 17v90q-95 -116 -228 -116q-123 0 -207 90.5t-84 270.5q0 171 83 265t209 94q67 0 124.5 -16.5t85 -35.5t27.5 -33q0 -8 -5.5 -12.5t-10.5 -2.5q-83 69 -219 69q-113 0 -188 -87.5
t-75 -240.5q0 -86 21 -151.5t58.5 -103.5t83 -56.5t98.5 -18.5q66 0 128 35t99 92v161zM384 -154q-12 0 -21.5 7.5t-9.5 20.5q0 29 29 29q31 0 31 -47q0 -36 -10 -62t-24 -26q-12 0 -16 9q21 28 21 69z" />
    <glyph glyph-name="gcommaaccent" unicode="&#x123;" horiz-adv-x="501" 
d="M412 439h-66q45 -47 45 -139q0 -178 -163 -178q-56 0 -91 21q-20 -39 -20 -76q0 -32 18.5 -47.5t71.5 -15.5h166q50 0 74 -27t24 -67q0 -75 -58.5 -120.5t-166.5 -45.5q-85 0 -140.5 32t-55.5 59q0 16 16 20q23 -34 68.5 -57.5t109.5 -23.5q92 0 144.5 34.5t52.5 97.5
q0 68 -77 68h-165q-63 0 -89 22t-26 64q0 44 28 102q-43 43 -43 138q0 88 44.5 134t121.5 46q55 0 93 -26q0 16 26 16h86q3 -3 3 -14q0 -17 -31 -17zM100 300q0 -79 33 -113.5t95 -34.5q131 0 131 148q0 74 -32 112t-92 38q-63 0 -99 -39t-36 -111zM225 623q12 0 21.5 -7.5
t9.5 -20.5q0 -29 -29 -29q-31 0 -31 47q0 36 10 62t24 26q12 0 16 -9q-21 -28 -21 -69z" />
    <glyph glyph-name="Hcircumflex" unicode="&#x124;" horiz-adv-x="747" 
d="M520 807q-5 -17 -21 -17q-6 0 -13 4q-14 7 -54 38t-59 43q-19 -12 -59 -43t-54 -38q-7 -4 -13 -4q-16 0 -21 17q14 9 46 35.5t58.5 45.5t41.5 19q13 0 39 -18.5t59 -45t50 -36.5zM610 700q17 0 17 -18v-676q-6 -6 -16 -6q-16 0 -16 17v323h-443v-334q-6 -6 -16 -6
q-16 0 -16 17v678q7 5 15 5q17 0 17 -18v-312h443v325q7 5 15 5z" />
    <glyph glyph-name="hcircumflex" unicode="&#x125;" horiz-adv-x="537" 
d="M244 766q-5 -17 -21 -17q-6 0 -13 4q-14 7 -54 38t-59 43q-19 -12 -59 -43t-54 -38q-7 -4 -13 -4q-16 0 -21 17q14 9 46 35.5t58.5 45.5t41.5 19q13 0 39 -18.5t59 -45t50 -36.5zM96 700q16 0 16 -18v-325q33 56 86 89.5t111 33.5q63 0 96 -38.5t33 -110.5v-275
q0 -27 23 -27h32q4 -4 4 -13q0 -16 -42 -16q-49 0 -49 59v268q0 123 -98 123q-59 0 -114.5 -42t-81.5 -109v-294q-5 -5 -16 -5q-16 0 -16 16v680q8 4 16 4z" />
    <glyph glyph-name="Hbar" unicode="&#x126;" horiz-adv-x="747" 
d="M610 700q17 0 17 -18v-126h103q4 -4 4 -15q0 -17 -23 -17h-84v-518q-6 -6 -16 -6q-16 0 -16 17v323h-443v-334q-6 -6 -16 -6q-16 0 -16 17v507h-104q-4 8 -4 14q0 18 22 18h86v139q7 5 15 5q17 0 17 -18v-126h443v139q7 5 15 5zM152 524v-154h443v154h-443z" />
    <glyph glyph-name="hbar" unicode="&#x127;" horiz-adv-x="537" 
d="M96 700q16 0 16 -18v-80h172q4 -4 4 -15q0 -17 -23 -17h-153v-213q33 56 86 89.5t111 33.5q63 0 96 -38.5t33 -110.5v-275q0 -27 23 -27h32q4 -4 4 -13q0 -16 -42 -16q-49 0 -49 59v268q0 123 -98 123q-59 0 -114.5 -42t-81.5 -109v-294q-5 -5 -16 -5q-16 0 -16 16v554
h-72q-4 8 -4 14q0 18 22 18h54v94q8 4 16 4z" />
    <glyph glyph-name="Itilde" unicode="&#x128;" horiz-adv-x="272" 
d="M54 871q25 0 82.5 -16t80.5 -16q40 0 64 24q10 -7 10 -19q0 -14 -17.5 -25t-48.5 -11q-27 0 -89 15.5t-80 15.5q-19 0 -38 -10t-23 -18q-14 8 -14 19t23 26t50 15zM135 700q17 0 17 -18v-676q-6 -6 -16 -6q-16 0 -16 17v678q7 5 15 5z" />
    <glyph glyph-name="itilde" unicode="&#x129;" horiz-adv-x="286" 
d="M112 470q27 0 38 -12t11 -41v-361q0 -23 24 -23h27q4 -4 4 -13q0 -20 -42 -20q-20 0 -32.5 10t-12.5 29v370q0 26 -26 26h-28q-5 7 -5 16q0 19 42 19zM43 641q25 0 82.5 -16t80.5 -16q40 0 64 24q10 -7 10 -19q0 -14 -17.5 -25t-48.5 -11q-27 0 -89 15.5t-80 15.5
q-19 0 -38 -10t-23 -18q-14 8 -14 19t23 26t50 15z" />
    <glyph glyph-name="Imacron" unicode="&#x12a;" horiz-adv-x="272" 
d="M135 700q17 0 17 -18v-676q-6 -6 -16 -6q-16 0 -16 17v678q7 5 15 5zM252 826h-268l-2 4q-2 3 -2 9q0 19 27 19h281q4 -3 4 -15q0 -17 -40 -17z" />
    <glyph glyph-name="imacron" unicode="&#x12b;" horiz-adv-x="286" 
d="M112 470q27 0 38 -12t11 -41v-361q0 -23 24 -23h27q4 -4 4 -13q0 -20 -42 -20q-20 0 -32.5 10t-12.5 29v370q0 26 -26 26h-28q-5 7 -5 16q0 19 42 19zM237 596h-268l-2 4q-2 3 -2 9q0 19 27 19h281q4 -3 4 -15q0 -17 -40 -17z" />
    <glyph glyph-name="Ibreve" unicode="&#x12c;" horiz-adv-x="272" 
d="M39 893q2 -38 28 -59q22 -18 69 -18q49 0 70 19q27 24 27 58q5 4 14 4q14 0 14 -11q0 -36 -33 -69q-31 -30 -92 -30q-55 0 -87 26q-38 31 -38 72q0 12 14 12q10 0 14 -4zM135 700q17 0 17 -18v-676q-6 -6 -16 -6q-16 0 -16 17v678q7 5 15 5z" />
    <glyph glyph-name="ibreve" unicode="&#x12d;" horiz-adv-x="286" 
d="M112 470q27 0 38 -12t11 -41v-361q0 -23 24 -23h27q4 -4 4 -13q0 -20 -42 -20q-20 0 -32.5 10t-12.5 29v370q0 26 -26 26h-28q-5 7 -5 16q0 19 42 19zM27 663q2 -38 28 -59q22 -18 69 -18q49 0 70 19q27 24 27 58q5 4 14 4q14 0 14 -11q0 -36 -33 -69q-31 -30 -92 -30
q-55 0 -87 26q-38 31 -38 72q0 12 14 12q10 0 14 -4z" />
    <glyph glyph-name="Iogonek" unicode="&#x12e;" horiz-adv-x="272" 
d="M120 16v679q7 5 15 5q17 0 17 -18v-676q-22 -17 -40 -52t-18 -54q0 -48 62 -48q3 -6 3 -14q0 -13 -22 -13q-14 0 -28.5 4t-29.5 21t-15 45q0 61 56 121z" />
    <glyph glyph-name="iogonek" unicode="&#x12f;" horiz-adv-x="284" 
d="M112 470q13 0 22 -3.5t14.5 -11.5t8 -16t3.5 -22t0.5 -25t-1 -29t-0.5 -29v-278q0 -23 24 -23h27q4 -4 4 -13q0 -7 -12 -16q-19 -14 -34.5 -46.5t-15.5 -51.5q0 -48 62 -48q3 -6 3 -14q0 -13 -22 -13q-11 0 -21.5 2.5t-23 9t-20.5 21.5t-8 37q0 46 39 100q-13 2 -20.5 10
t-10 22.5t-3 26t0.5 31.5t1 27v291q0 26 -26 26h-28q-5 7 -5 16q0 19 42 19zM110 613q0 29 28 29q29 0 29 -29q0 -28 -29 -28q-28 0 -28 28z" />
    <glyph glyph-name="Idotaccent" unicode="&#x130;" horiz-adv-x="272" 
d="M135 700q17 0 17 -18v-676q-6 -6 -16 -6q-16 0 -16 17v678q7 5 15 5zM108 835q0 29 28 29q29 0 29 -29q0 -28 -29 -28q-28 0 -28 28z" />
    <glyph glyph-name="dotlessi" unicode="&#x131;" horiz-adv-x="286" 
d="M112 470q27 0 38 -12t11 -41v-361q0 -23 24 -23h27q4 -4 4 -13q0 -20 -42 -20q-20 0 -32.5 10t-12.5 29v370q0 26 -26 26h-28q-5 7 -5 16q0 19 42 19z" />
    <glyph glyph-name="IJ" unicode="&#x132;" horiz-adv-x="638" 
d="M502 700q16 0 16 -17v-566q0 -64 -30.5 -90.5t-90.5 -26.5q-105 0 -105 24q0 6 3 14h101q45 0 67.5 21.5t22.5 72.5v563q8 5 16 5zM135 700q17 0 17 -18v-676q-6 -6 -16 -6q-16 0 -16 17v678q7 5 15 5z" />
    <glyph glyph-name="ij" unicode="&#x133;" horiz-adv-x="572" 
d="M112 470q27 0 37 -11.5t10 -41.5v-361q0 -23 24 -23h27q4 -4 4 -13q0 -20 -42 -20q-43 0 -43 39v370q0 26 -26 26h-28q-5 7 -5 16q0 19 42 19zM110 613q0 29 28 29q29 0 29 -29q0 -28 -29 -28q-28 0 -28 28zM408 470q30 0 43.5 -13t13.5 -43v-479q0 -100 -107 -100
q-33 0 -52.5 7t-19.5 17q0 6 2 11h72q73 0 73 72v467q0 26 -23 26h-42q-3 6 -3 14q0 21 43 21zM414 613q0 29 28 29q29 0 29 -29q0 -28 -29 -28q-28 0 -28 28z" />
    <glyph glyph-name="Jcircumflex" unicode="&#x134;" horiz-adv-x="366" 
d="M370 807q-5 -17 -21 -17q-6 0 -13 4q-14 7 -54 38t-59 43q-19 -12 -59 -43t-54 -38q-7 -4 -13 -4q-16 0 -21 17q14 9 46 35.5t58.5 45.5t41.5 19q13 0 39 -18.5t59 -45t50 -36.5zM230 700q16 0 16 -17v-566q0 -64 -30.5 -90.5t-90.5 -26.5q-105 0 -105 24q0 6 3 14h101
q45 0 67.5 21.5t22.5 72.5v563q8 5 16 5z" />
    <glyph glyph-name="jcircumflex" unicode="&#x135;" horiz-adv-x="286" 
d="M281 577q-5 -17 -21 -17q-6 0 -13 4q-14 7 -54 38t-59 43q-19 -12 -59 -43t-54 -38q-7 -4 -13 -4q-16 0 -21 17q14 9 46 35.5t58.5 45.5t41.5 19q13 0 39 -18.5t59 -45t50 -36.5zM122 470q30 0 43.5 -13t13.5 -43v-479q0 -100 -107 -100q-33 0 -52.5 7t-19.5 17q0 6 2 11
h72q73 0 73 72v467q0 26 -23 26h-42q-3 6 -3 14q0 21 43 21z" />
    <glyph glyph-name="Kcommaaccent" unicode="&#x136;" horiz-adv-x="603" 
d="M137 700q15 0 15 -18v-356q96 70 174.5 170.5t125.5 201.5q8 2 13 2q11 0 11 -11q0 -12 -16 -42q-76 -148 -205 -273q26 -27 65.5 -89.5t71.5 -115.5t70 -95.5t67 -42.5h21q3 -5 3 -12q0 -19 -35 -19q-31 0 -71.5 43.5t-73.5 97.5t-74 119t-66 93q-37 -35 -81 -66v-282
q-5 -5 -19 -5q-13 0 -13 16v679q7 5 17 5zM297 -154q-12 0 -21.5 7.5t-9.5 20.5q0 29 29 29q31 0 31 -47q0 -36 -10 -62t-24 -26q-12 0 -16 9q21 28 21 69z" />
    <glyph glyph-name="kcommaaccent" unicode="&#x137;" horiz-adv-x="420" 
d="M95 700q17 0 17 -18v-428q81 27 137.5 91.5t56.5 120.5q5 4 14 4q13 0 13 -11q0 -57 -58.5 -126t-125.5 -92q26 -13 56 -49.5t52.5 -71.5t53.5 -63t60 -28h28q2 -4 2 -10q0 -19 -34 -19t-70 30.5t-62 69t-60 78t-63 52.5v-224q-6 -6 -16 -6q-16 0 -16 17v678q7 5 15 5z
" />
    <glyph glyph-name="kgreenlandic" unicode="&#x138;" horiz-adv-x="420" 
d="M95 470q17 0 17 -18v-198q81 27 137.5 91.5t56.5 120.5q5 4 14 4q13 0 13 -11q0 -57 -58.5 -126t-125.5 -92q26 -13 57.5 -49.5t56 -71.5t56.5 -63t61 -28h28q2 -4 2 -10q0 -19 -34 -19t-71 30.5t-65 69t-64 78t-64 52.5v-224q-6 -6 -16 -6q-16 0 -16 17v448q7 5 15 5z
" />
    <glyph glyph-name="Lacute" unicode="&#x139;" horiz-adv-x="540" 
d="M138 700q14 0 14 -18v-650h364q4 -4 4 -15q0 -17 -24 -17h-360q-16 0 -16 17v679q5 4 18 4zM131 807q14 9 46.5 35.5t59.5 45.5t40 19q23 0 23 -19q-21 -10 -54 -35t-59 -44t-35 -19q-16 0 -21 17z" />
    <glyph glyph-name="lacute" unicode="&#x13a;" horiz-adv-x="293" 
d="M122 686v-563q0 -54 17 -72.5t64 -18.5h69q1 -3 1 -13q0 -19 -70 -19q-60 0 -86.5 24.5t-26.5 88.5v583q7 4 15 4q17 0 17 -14zM52 780q14 9 46.5 35.5t59.5 45.5t40 19q23 0 23 -19q-21 -10 -54 -35t-59 -44t-35 -19q-16 0 -21 17z" />
    <glyph glyph-name="Lcommaaccent" unicode="&#x13b;" horiz-adv-x="540" 
d="M138 700q14 0 14 -18v-650h364q4 -4 4 -15q0 -17 -24 -17h-360q-16 0 -16 17v679q5 4 18 4zM321 -133q-12 0 -21.5 7.5t-9.5 20.5q0 29 29 29q31 0 31 -47q0 -36 -10 -62t-24 -26q-12 0 -16 9q21 28 21 69z" />
    <glyph glyph-name="lcommaaccent" unicode="&#x13c;" horiz-adv-x="293" 
d="M122 686v-563q0 -54 17 -72.5t64 -18.5h69q1 -3 1 -13q0 -19 -70 -19q-60 0 -86.5 24.5t-26.5 88.5v583q7 4 15 4q17 0 17 -14zM143 -120q-12 0 -21.5 7.5t-9.5 20.5q0 29 29 29q31 0 31 -47q0 -36 -10 -62t-24 -26q-12 0 -16 9q21 28 21 69z" />
    <glyph glyph-name="Lcaron" unicode="&#x13d;" horiz-adv-x="540" 
d="M138 700q14 0 14 -18v-650h364q4 -4 4 -15q0 -17 -24 -17h-360q-16 0 -16 17v679q5 4 18 4zM271 643q-12 0 -21.5 7.5t-9.5 20.5q0 29 29 29q31 0 31 -47q0 -36 -10 -62t-24 -26q-12 0 -16 9q21 28 21 69z" />
    <glyph glyph-name="lcaron" unicode="&#x13e;" horiz-adv-x="293" 
d="M122 686v-563q0 -54 17 -72.5t64 -18.5h69q1 -3 1 -13q0 -19 -70 -19q-60 0 -86.5 24.5t-26.5 88.5v583q7 4 15 4q17 0 17 -14zM203 643q-12 0 -21.5 7.5t-9.5 20.5q0 29 29 29q31 0 31 -47q0 -36 -10 -62t-24 -26q-12 0 -16 9q21 28 21 69z" />
    <glyph glyph-name="Ldot" unicode="&#x13f;" horiz-adv-x="540" 
d="M138 700q14 0 14 -18v-650h364q4 -4 4 -15q0 -17 -24 -17h-360q-16 0 -16 17v679q5 4 18 4zM359 323q0 29 28 29q29 0 29 -29q0 -28 -29 -28q-28 0 -28 28z" />
    <glyph glyph-name="ldot" unicode="&#x140;" horiz-adv-x="293" 
d="M122 686v-563q0 -54 17 -72.5t64 -18.5h69q1 -3 1 -13q0 -19 -70 -19q-60 0 -86.5 24.5t-26.5 88.5v583q7 4 15 4q17 0 17 -14zM229 336q0 29 28 29q29 0 29 -29q0 -28 -29 -28q-28 0 -28 28z" />
    <glyph glyph-name="Lslash" unicode="&#x141;" horiz-adv-x="540" 
d="M138 700q14 0 14 -18v-356l155 101q14 -6 14 -18t-12 -19l-157 -103v-255h364q4 -4 4 -15q0 -17 -24 -17h-360q-16 0 -16 17v249l-83 -54q-15 5 -15 18q0 12 16 22l82 53v391q5 4 18 4z" />
    <glyph glyph-name="lslash" unicode="&#x142;" horiz-adv-x="293" 
d="M122 686v-316l133 91q13 -7 13 -17q0 -8 -8 -13l-138 -95v-213q0 -54 17 -72.5t64 -18.5h69q1 -3 1 -13q0 -19 -70 -19q-60 0 -86.5 24.5t-26.5 88.5v201l-72 -49q-13 8 -13 18q0 7 8 13l77 52v348q7 4 15 4q17 0 17 -14z" />
    <glyph glyph-name="Nacute" unicode="&#x143;" horiz-adv-x="747" 
d="M596 8l-446 623l2 -626q-7 -5 -17 -5q-15 0 -15 16v680q8 4 15 4q8 0 14 -7l448 -635l-2 637q7 5 15 5q17 0 17 -18v-678q-5 -4 -16 -4q-9 0 -15 8zM289 807q14 9 46.5 35.5t59.5 45.5t40 19q23 0 23 -19q-21 -10 -54 -35t-59 -44t-35 -19q-16 0 -21 17z" />
    <glyph glyph-name="nacute" unicode="&#x144;" horiz-adv-x="582" 
d="M95 470q29 0 41 -12t12 -41v-64q80 127 192 127q66 0 102.5 -44t36.5 -125v-253q0 -27 18 -27h42q3 -6 3 -14q0 -17 -48 -17q-47 0 -47 52v255q0 71 -29 107t-80 36q-105 0 -190 -150v-295q-8 -5 -16 -5q-16 0 -16 16v393q0 27 -23 27h-40q-3 8 -3 17q0 17 45 17z
M235 576q14 9 46.5 35.5t59.5 45.5t40 19q23 0 23 -19q-21 -10 -54 -35t-59 -44t-35 -19q-16 0 -21 17z" />
    <glyph glyph-name="Ncommaaccent" unicode="&#x145;" horiz-adv-x="747" 
d="M596 8l-446 623l2 -626q-7 -5 -17 -5q-15 0 -15 16v680q8 4 15 4q8 0 14 -7l448 -635l-2 637q7 5 15 5q17 0 17 -18v-678q-5 -4 -16 -4q-9 0 -15 8zM380 -154q-12 0 -21.5 7.5t-9.5 20.5q0 29 29 29q31 0 31 -47q0 -36 -10 -62t-24 -26q-12 0 -16 9q21 28 21 69z" />
    <glyph glyph-name="ncommaaccent" unicode="&#x146;" horiz-adv-x="582" 
d="M95 470q29 0 41 -12t12 -41v-64q80 127 192 127q66 0 102.5 -44t36.5 -125v-253q0 -27 18 -27h42q3 -6 3 -14q0 -17 -48 -17q-47 0 -47 52v255q0 71 -29 107t-80 36q-105 0 -190 -150v-295q-8 -5 -16 -5q-16 0 -16 16v393q0 27 -23 27h-40q-3 8 -3 17q0 17 45 17z
M308 -120q-12 0 -21.5 7.5t-9.5 20.5q0 29 29 29q31 0 31 -47q0 -36 -10 -62t-24 -26q-12 0 -16 9q21 28 21 69z" />
    <glyph glyph-name="Ncaron" unicode="&#x147;" horiz-adv-x="747" 
d="M596 8l-446 623l2 -626q-7 -5 -17 -5q-15 0 -15 16v680q8 4 15 4q8 0 14 -7l448 -635l-2 637q7 5 15 5q17 0 17 -18v-678q-5 -4 -16 -4q-9 0 -15 8zM373 790q-7 0 -13 4q-12 7 -61.5 44.5t-73.5 49.5q0 19 23 19q7 0 18 -5.5t25.5 -16t26.5 -20t29 -23.5t26 -21
q10 8 33 26.5t37 29.5t30.5 20.5t25.5 9.5q23 0 23 -19q-24 -12 -73 -49.5t-62 -44.5q-6 -4 -14 -4z" />
    <glyph glyph-name="ncaron" unicode="&#x148;" horiz-adv-x="582" 
d="M95 470q29 0 41 -12t12 -41v-64q80 127 192 127q66 0 102.5 -44t36.5 -125v-253q0 -27 18 -27h42q3 -6 3 -14q0 -17 -48 -17q-47 0 -47 52v255q0 71 -29 107t-80 36q-105 0 -190 -150v-295q-8 -5 -16 -5q-16 0 -16 16v393q0 27 -23 27h-40q-3 8 -3 17q0 17 45 17z
M290 559q-7 0 -13 4q-12 7 -61.5 44.5t-73.5 49.5q0 19 23 19q7 0 18 -5.5t25.5 -16t26.5 -20t29 -23.5t26 -21q10 8 33 26.5t37 29.5t30.5 20.5t25.5 9.5q23 0 23 -19q-24 -12 -73 -49.5t-62 -44.5q-6 -4 -14 -4z" />
    <glyph glyph-name="napostrophe" unicode="&#x149;" horiz-adv-x="632" 
d="M21 558q-12 0 -21.5 7.5t-9.5 20.5q0 29 29 29q31 0 31 -47q0 -36 -10 -62t-24 -26q-12 0 -16 9q21 28 21 69zM145 470q29 0 41 -12t12 -41v-64q80 127 192 127q66 0 102.5 -44t36.5 -125v-253q0 -27 18 -27h42q3 -6 3 -14q0 -17 -48 -17q-47 0 -47 52v255q0 71 -29 107
t-80 36q-105 0 -190 -150v-295q-8 -5 -16 -5q-16 0 -16 16v393q0 27 -23 27h-40q-3 7 -3 17q0 17 45 17z" />
    <glyph glyph-name="Eng" unicode="&#x14a;" horiz-adv-x="747" 
d="M596 -58v67l-446 622l2 -626q-7 -5 -17 -5q-15 0 -15 16v680q8 4 15 4q8 0 14 -7l448 -635l-2 637q7 5 15 5q17 0 17 -18v-747q0 -100 -107 -100q-33 0 -52.5 7t-19.5 17q0 6 2 11h72q74 0 74 72z" />
    <glyph glyph-name="eng" unicode="&#x14b;" horiz-adv-x="574" 
d="M447 -58v365q0 70 -29 106.5t-78 36.5q-62 0 -106.5 -39t-85.5 -111v-295q-8 -5 -16 -5q-16 0 -16 16v393q0 27 -24 27h-39q-3 8 -3 17q0 17 42 17q30 0 43 -12t13 -41v-64q82 127 193 127q66 0 102 -44t36 -125v-376q0 -100 -107 -100q-33 0 -52.5 7t-19.5 17q0 6 2 11
h72q73 0 73 72z" />
    <glyph glyph-name="Omacron" unicode="&#x14c;" horiz-adv-x="731" 
d="M80 351q0 175 77.5 267t214.5 92q131 0 205 -92t74 -267q0 -361 -280 -361q-137 0 -214 88t-77 273zM110 351q0 -330 262 -330q249 0 249 330q0 158 -66 243t-183 85q-126 0 -194 -85t-68 -243zM481 826h-268l-2 4q-2 3 -2 9q0 19 27 19h281q4 -3 4 -15q0 -17 -40 -17z
" />
    <glyph glyph-name="omacron" unicode="&#x14d;" horiz-adv-x="549" 
d="M70 235q0 119 57 182t154 63q94 0 146 -62t52 -183q0 -245 -206 -245q-203 0 -203 245zM101 235q0 -114 44 -164t128 -50q175 0 175 214q0 105 -43.5 159.5t-123.5 54.5q-83 0 -131.5 -55.5t-48.5 -158.5zM394 595h-268l-2 3q-2 4 -2 10q0 19 27 19h281q4 -3 4 -15
q0 -17 -40 -17z" />
    <glyph glyph-name="Obreve" unicode="&#x14e;" horiz-adv-x="731" 
d="M80 351q0 175 77.5 267t214.5 92q131 0 205 -92t74 -267q0 -361 -280 -361q-137 0 -214 88t-77 273zM110 351q0 -330 262 -330q249 0 249 330q0 158 -66 243t-183 85q-126 0 -194 -85t-68 -243zM278 893q2 -38 28 -59q22 -18 69 -18q49 0 70 19q27 24 27 58q5 4 14 4
q14 0 14 -11q0 -36 -33 -69q-31 -30 -92 -30q-55 0 -87 26q-38 31 -38 72q0 12 14 12q10 0 14 -4z" />
    <glyph glyph-name="obreve" unicode="&#x14f;" horiz-adv-x="549" 
d="M70 235q0 119 57 182t154 63q94 0 146 -62t52 -183q0 -245 -206 -245q-203 0 -203 245zM101 235q0 -114 44 -164t128 -50q175 0 175 214q0 105 -43.5 159.5t-123.5 54.5q-83 0 -131.5 -55.5t-48.5 -158.5zM184 662q2 -38 28 -59q22 -18 69 -18q49 0 70 19q27 24 27 58
q5 4 14 4q14 0 14 -11q0 -36 -33 -69q-31 -30 -92 -30q-55 0 -87 26q-38 31 -38 72q0 12 14 12q10 0 14 -4z" />
    <glyph glyph-name="Ohungarumlaut" unicode="&#x150;" horiz-adv-x="731" 
d="M80 351q0 175 77.5 267t214.5 92q131 0 205 -92t74 -267q0 -361 -280 -361q-137 0 -214 88t-77 273zM110 351q0 -330 262 -330q249 0 249 330q0 158 -66 243t-183 85q-126 0 -194 -85t-68 -243zM203 804q9 6 38.5 36.5t57 54.5t39.5 24q22 0 24 -16q-20 -12 -50.5 -41.5
t-54.5 -50.5t-35 -21q-14 0 -19 14zM359 807q14 9 46.5 35.5t59.5 45.5t40 19q23 0 23 -19q-21 -10 -54 -35t-59 -44t-35 -19q-16 0 -21 17z" />
    <glyph glyph-name="ohungarumlaut" unicode="&#x151;" horiz-adv-x="549" 
d="M70 235q0 119 57 182t154 63q94 0 146 -62t52 -183q0 -245 -206 -245q-203 0 -203 245zM101 235q0 -114 44 -164t128 -50q175 0 175 214q0 105 -43.5 159.5t-123.5 54.5q-83 0 -131.5 -55.5t-48.5 -158.5zM160 573q9 6 38.5 36.5t57 54.5t39.5 24q22 0 24 -16
q-20 -12 -50.5 -41.5t-54.5 -50.5t-35 -21q-14 0 -19 14zM316 576q14 9 46.5 35.5t59.5 45.5t40 19q23 0 23 -19q-21 -10 -54 -35t-59 -44t-35 -19q-16 0 -21 17z" />
    <glyph glyph-name="OE" unicode="&#x152;" horiz-adv-x="1072" 
d="M988 0h-434q-12 0 -15 3q-70 -13 -157 -13q-302 0 -302 361q0 176 79 267.5t224 91.5q81 0 151 -14q5 4 15 4h459q4 -3 4 -15q0 -17 -24 -17h-422v-290h376q4 -3 4 -15q0 -17 -24 -17h-356v-314h442q4 -3 4 -15q0 -17 -24 -17zM110 351q0 -173 69.5 -251.5t202.5 -78.5
q77 0 152 14v624q-61 20 -151 20q-133 0 -203 -84.5t-70 -243.5z" />
    <glyph glyph-name="oe" unicode="&#x153;" horiz-adv-x="881" 
d="M70 235q0 119 57 182t154 63q144 0 185 -139q24 68 75 103.5t113 35.5q85 0 128.5 -56t43.5 -141q0 -20 -5 -33h-342q0 -109 45.5 -169.5t129.5 -60.5q51 0 92.5 17t61.5 35q13 -4 13 -16q0 -8 -15.5 -22.5t-56.5 -29t-96 -14.5q-66 0 -116 35t-72 99q-40 -134 -192 -134
q-203 0 -203 245zM101 235q0 -114 44 -164t128 -50q170 0 175 202q0 226 -167 226q-83 0 -131.5 -55.5t-48.5 -158.5zM655 450q-65 0 -113 -43.5t-60 -126.5h313q0 77 -34 123.5t-106 46.5z" />
    <glyph glyph-name="Racute" unicode="&#x154;" horiz-adv-x="668" 
d="M135 700h226q191 0 191 -185q0 -84 -51.5 -134t-127.5 -59q29 -33 67.5 -111t73 -129t70.5 -51h21q3 -5 3 -12q0 -19 -35 -19q-31 0 -63.5 38t-57 86.5t-57.5 107.5t-59 88h-184v-315q-5 -5 -15 -5q-17 0 -17 16v679q7 5 15 5zM349 673h-197v-325h184q79 0 132.5 41.5
t53.5 125.5q0 87 -43 122.5t-130 35.5zM249 807q14 9 46.5 35.5t59.5 45.5t40 19q23 0 23 -19q-21 -10 -54 -35t-59 -44t-35 -19q-16 0 -21 17z" />
    <glyph glyph-name="racute" unicode="&#x155;" horiz-adv-x="407" 
d="M88 470q52 0 52 -61v-56q35 54 82.5 90.5t94.5 36.5q36 0 58 -16t22 -50q0 -14 -13 -14q-9 0 -15 8q0 42 -53 42q-44 0 -93.5 -40.5t-82.5 -102.5v-302q-7 -5 -17 -5q-15 0 -15 16v389q0 30 -25 30h-40q-3 7 -3 15q0 20 48 20zM169 576q14 9 46.5 35.5t59.5 45.5t40 19
q23 0 23 -19q-21 -10 -54 -35t-59 -44t-35 -19q-16 0 -21 17z" />
    <glyph glyph-name="Rcommaaccent" unicode="&#x156;" horiz-adv-x="668" 
d="M135 700h226q191 0 191 -185q0 -84 -51.5 -134t-127.5 -59q29 -33 67.5 -111t73 -129t70.5 -51h21q3 -5 3 -12q0 -19 -35 -19q-31 0 -63.5 38t-57 86.5t-57.5 107.5t-59 88h-184v-315q-5 -5 -15 -5q-17 0 -17 16v679q7 5 15 5zM349 673h-197v-325h184q79 0 132.5 41.5
t53.5 125.5q0 87 -43 122.5t-130 35.5zM342 -154q-12 0 -21.5 7.5t-9.5 20.5q0 29 29 29q31 0 31 -47q0 -36 -10 -62t-24 -26q-12 0 -16 9q21 28 21 69z" />
    <glyph glyph-name="rcommaaccent" unicode="&#x157;" horiz-adv-x="407" 
d="M88 470q52 0 52 -61v-56q35 54 82.5 90.5t94.5 36.5q36 0 58 -16t22 -50q0 -14 -13 -14q-9 0 -15 8q0 42 -53 42q-44 0 -93.5 -40.5t-82.5 -102.5v-302q-7 -5 -17 -5q-15 0 -15 16v389q0 30 -25 30h-40q-3 7 -3 15q0 20 48 20zM133 -120q-12 0 -21.5 7.5t-9.5 20.5
q0 29 29 29q31 0 31 -47q0 -36 -10 -62t-24 -26q-12 0 -16 9q21 28 21 69z" />
    <glyph glyph-name="Rcaron" unicode="&#x158;" horiz-adv-x="668" 
d="M135 700h226q191 0 191 -185q0 -84 -51.5 -134t-127.5 -59q29 -33 67.5 -111t73 -129t70.5 -51h21q3 -5 3 -12q0 -19 -35 -19q-31 0 -63.5 38t-57 86.5t-57.5 107.5t-59 88h-184v-315q-5 -5 -15 -5q-17 0 -17 16v679q7 5 15 5zM349 673h-197v-325h184q79 0 132.5 41.5
t53.5 125.5q0 87 -43 122.5t-130 35.5zM308 790q-7 0 -13 4q-12 7 -61.5 44.5t-73.5 49.5q0 19 23 19q7 0 18 -5.5t25.5 -16t26.5 -20t29 -23.5t26 -21q10 8 33 26.5t37 29.5t30.5 20.5t25.5 9.5q23 0 23 -19q-24 -12 -73 -49.5t-62 -44.5q-6 -4 -14 -4z" />
    <glyph glyph-name="rcaron" unicode="&#x159;" horiz-adv-x="407" 
d="M88 470q52 0 52 -61v-56q35 54 82.5 90.5t94.5 36.5q36 0 58 -16t22 -50q0 -14 -13 -14q-9 0 -15 8q0 42 -53 42q-44 0 -93.5 -40.5t-82.5 -102.5v-302q-7 -5 -17 -5q-15 0 -15 16v389q0 30 -25 30h-40q-3 7 -3 15q0 20 48 20zM224 559q-7 0 -13 4q-12 7 -61.5 44.5
t-73.5 49.5q0 19 23 19q7 0 18 -5.5t25.5 -16t26.5 -20t29 -23.5t26 -21q10 8 33 26.5t37 29.5t30.5 20.5t25.5 9.5q23 0 23 -19q-24 -12 -73 -49.5t-62 -44.5q-6 -4 -14 -4z" />
    <glyph glyph-name="Sacute" unicode="&#x15a;" horiz-adv-x="627" 
d="M305 710q80 0 135 -19.5t80 -44.5q10 -10 10 -21q0 -6 -6 -11t-13 -5q-58 67 -207 67q-95 0 -138.5 -37.5t-43.5 -95.5q0 -60 47 -95t171 -74q114 -36 165.5 -82t51.5 -124q0 -85 -62 -131.5t-181 -46.5q-110 0 -194 46q-50 27 -50 48q0 15 11 19q33 -38 96.5 -60
t134.5 -22q111 0 164 39.5t53 107.5q0 63 -44.5 101.5t-157.5 75.5q-135 45 -184.5 85.5t-49.5 113.5q0 72 52.5 119t159.5 47zM238 807q14 9 46.5 35.5t59.5 45.5t40 19q23 0 23 -19q-21 -10 -54 -35t-59 -44t-35 -19q-16 0 -21 17z" />
    <glyph glyph-name="sacute" unicode="&#x15b;" horiz-adv-x="462" 
d="M227 480q69 0 115 -21t46 -43q0 -16 -19 -16q-14 19 -50.5 33t-92.5 14q-62 0 -91.5 -25t-29.5 -64q0 -42 33.5 -64t108.5 -38q85 -17 121 -49t36 -90q0 -127 -171 -127q-64 0 -118 23.5t-54 42.5q0 16 13 20q19 -19 66.5 -38t90.5 -19q74 0 108.5 27t34.5 70
q0 46 -30.5 70.5t-103.5 39.5q-91 18 -129 47t-38 89q0 49 40.5 83.5t113.5 34.5zM170 576q14 9 46.5 35.5t59.5 45.5t40 19q23 0 23 -19q-21 -10 -54 -35t-59 -44t-35 -19q-16 0 -21 17z" />
    <glyph glyph-name="Scircumflex" unicode="&#x15c;" horiz-adv-x="627" 
d="M460 807q-5 -17 -21 -17q-6 0 -13 4q-14 7 -54 38t-59 43q-19 -12 -59 -43t-54 -38q-7 -4 -13 -4q-16 0 -21 17q14 9 46 35.5t58.5 45.5t41.5 19q13 0 39 -18.5t59 -45t50 -36.5zM305 710q80 0 135 -19.5t80 -44.5q10 -10 10 -21q0 -6 -6 -11t-13 -5q-58 67 -207 67
q-95 0 -138.5 -37.5t-43.5 -95.5q0 -60 47 -95t171 -74q114 -36 165.5 -82t51.5 -124q0 -85 -62 -131.5t-181 -46.5q-110 0 -194 46q-50 27 -50 48q0 15 11 19q33 -38 96.5 -60t134.5 -22q111 0 164 39.5t53 107.5q0 63 -44.5 101.5t-157.5 75.5q-135 45 -184.5 85.5
t-49.5 113.5q0 72 52.5 119t159.5 47z" />
    <glyph glyph-name="scircumflex" unicode="&#x15d;" horiz-adv-x="462" 
d="M373 576q-5 -17 -21 -17q-6 0 -13 4q-14 7 -54 38t-59 43q-19 -12 -59 -43t-54 -38q-7 -4 -13 -4q-16 0 -21 17q14 9 46 35.5t58.5 45.5t41.5 19q13 0 39 -18.5t59 -45t50 -36.5zM227 480q69 0 115 -21t46 -43q0 -16 -19 -16q-14 19 -50.5 33t-92.5 14q-62 0 -91.5 -25
t-29.5 -64q0 -42 33.5 -64t108.5 -38q85 -17 121 -49t36 -90q0 -127 -171 -127q-64 0 -118 23.5t-54 42.5q0 16 13 20q19 -19 66.5 -38t90.5 -19q74 0 108.5 27t34.5 70q0 46 -30.5 70.5t-103.5 39.5q-91 18 -129 47t-38 89q0 49 40.5 83.5t113.5 34.5z" />
    <glyph glyph-name="Scedilla" unicode="&#x15e;" horiz-adv-x="627" 
d="M305 710q80 0 135 -19.5t80 -44.5q10 -10 10 -21q0 -6 -6 -11t-13 -5q-58 67 -207 67q-95 0 -138.5 -37.5t-43.5 -95.5q0 -60 47 -95t171 -74q114 -36 165.5 -82t51.5 -124q0 -85 -62 -131.5t-181 -46.5q-110 0 -194 46q-50 27 -50 48q0 15 11 19q33 -38 96.5 -60
t134.5 -22q111 0 164 39.5t53 107.5q0 63 -44.5 101.5t-157.5 75.5q-135 45 -184.5 85.5t-49.5 113.5q0 72 52.5 119t159.5 47zM361 -112q0 42 -59 46q-5 2 -5 17l1 64l31 -1l-3 -54q28 -2 46 -19.5t18 -53.5q0 -35 -21.5 -53.5t-54.5 -18.5q-32 0 -49 11t-17 24q0 14 19 18
q2 -9 15.5 -17t30.5 -8q21 0 34.5 11t13.5 34z" />
    <glyph glyph-name="scedilla" unicode="&#x15f;" horiz-adv-x="462" 
d="M227 480q69 0 115 -21t46 -43q0 -16 -19 -16q-14 19 -50.5 33t-92.5 14q-62 0 -91.5 -25t-29.5 -64q0 -42 33.5 -64t108.5 -38q85 -17 121 -49t36 -90q0 -127 -171 -127q-64 0 -118 23.5t-54 42.5q0 16 13 20q19 -19 66.5 -38t90.5 -19q74 0 108.5 27t34.5 70
q0 46 -30.5 70.5t-103.5 39.5q-91 18 -129 47t-38 89q0 49 40.5 83.5t113.5 34.5zM274 -112q0 42 -59 46q-5 2 -5 17l1 64l31 -1l-3 -54q28 -2 46 -19.5t18 -53.5q0 -35 -21.5 -53.5t-54.5 -18.5q-32 0 -49 11t-17 24q0 14 19 18q2 -9 15.5 -17t30.5 -8q21 0 34.5 11
t13.5 34z" />
    <glyph glyph-name="Scaron" unicode="&#x160;" horiz-adv-x="627" 
d="M305 710q80 0 135 -19.5t80 -44.5q10 -10 10 -21q0 -6 -6 -11t-13 -5q-58 67 -207 67q-95 0 -138.5 -37.5t-43.5 -95.5q0 -60 47 -95t171 -74q114 -36 165.5 -82t51.5 -124q0 -85 -62 -131.5t-181 -46.5q-110 0 -194 46q-50 27 -50 48q0 15 11 19q33 -38 96.5 -60
t134.5 -22q111 0 164 39.5t53 107.5q0 63 -44.5 101.5t-157.5 75.5q-135 45 -184.5 85.5t-49.5 113.5q0 72 52.5 119t159.5 47zM313 790q-7 0 -13 4q-12 7 -61.5 44.5t-73.5 49.5q0 19 23 19q7 0 18 -5.5t25.5 -16t26.5 -20t29 -23.5t26 -21q10 8 33 26.5t37 29.5t30.5 20.5
t25.5 9.5q23 0 23 -19q-24 -12 -73 -49.5t-62 -44.5q-6 -4 -14 -4z" />
    <glyph glyph-name="scaron" unicode="&#x161;" horiz-adv-x="462" 
d="M227 480q69 0 115 -21t46 -43q0 -16 -19 -16q-14 19 -50.5 33t-92.5 14q-62 0 -91.5 -25t-29.5 -64q0 -42 33.5 -64t108.5 -38q85 -17 121 -49t36 -90q0 -127 -171 -127q-64 0 -118 23.5t-54 42.5q0 16 13 20q19 -19 66.5 -38t90.5 -19q74 0 108.5 27t34.5 70
q0 46 -30.5 70.5t-103.5 39.5q-91 18 -129 47t-38 89q0 49 40.5 83.5t113.5 34.5zM225 559q-7 0 -13 4q-12 7 -61.5 44.5t-73.5 49.5q0 19 23 19q7 0 18 -5.5t25.5 -16t26.5 -20t29 -23.5t26 -21q10 8 33 26.5t37 29.5t30.5 20.5t25.5 9.5q23 0 23 -19q-24 -12 -73 -49.5
t-62 -44.5q-6 -4 -14 -4z" />
    <glyph glyph-name="Tcommaaccent" unicode="&#x162;" horiz-adv-x="614" 
d="M570 668h-247v-663q-5 -5 -18 -5q-14 0 -14 16v652h-267q-4 8 -4 17q0 15 24 15h546q4 -5 4 -15q0 -17 -24 -17zM306 -160q-12 0 -21.5 7.5t-9.5 20.5q0 29 29 29q31 0 31 -47q0 -36 -10 -62t-24 -26q-12 0 -16 9q21 28 21 69z" />
    <glyph glyph-name="tcommaaccent" unicode="&#x163;" horiz-adv-x="354" 
d="M169 -122q-12 0 -21.5 7.5t-9.5 20.5q0 29 29 29q31 0 31 -47q0 -36 -10 -62t-24 -26q-12 0 -16 9q21 28 21 69zM297 439h-152v-318q0 -52 17.5 -71t55.5 -19h103q2 -3 2 -9q0 -22 -105 -22q-52 0 -78.5 24t-26.5 87v328h-59q-4 6 -4 14q0 17 22 17h41v147q6 4 16 4
q16 0 16 -17v-134h176q3 -3 3 -14q0 -17 -27 -17z" />
    <glyph glyph-name="Tcaron" unicode="&#x164;" horiz-adv-x="614" 
d="M570 668h-247v-663q-5 -5 -18 -5q-14 0 -14 16v652h-267q-4 8 -4 17q0 15 24 15h546q4 -5 4 -15q0 -17 -24 -17zM306 790q-7 0 -13 4q-12 7 -61.5 44.5t-73.5 49.5q0 19 23 19q7 0 18 -5.5t25.5 -16t26.5 -20t29 -23.5t26 -21q10 8 33 26.5t37 29.5t30.5 20.5t25.5 9.5
q23 0 23 -19q-24 -12 -73 -49.5t-62 -44.5q-6 -4 -14 -4z" />
    <glyph glyph-name="tcaron" unicode="&#x165;" horiz-adv-x="354" 
d="M297 439h-152v-318q0 -52 17.5 -71t55.5 -19h103q2 -3 2 -9q0 -22 -105 -22q-52 0 -78.5 24t-26.5 87v328h-59q-4 6 -4 14q0 17 22 17h41v147q6 4 16 4q16 0 16 -17v-134h176q3 -3 3 -14q0 -17 -27 -17zM290 653q-12 0 -21.5 7.5t-9.5 20.5q0 29 29 29q31 0 31 -47
q0 -36 -10 -62t-24 -26q-12 0 -16 9q21 28 21 69z" />
    <glyph glyph-name="Tbar" unicode="&#x166;" horiz-adv-x="614" 
d="M570 668h-247v-311h169q3 -5 3 -15q0 -17 -16 -17h-156v-320q-5 -5 -18 -5q-14 0 -14 16v309h-168q-3 12 -3 16q0 16 16 16h155v311h-267q-4 8 -4 17q0 15 24 15h546q4 -5 4 -15q0 -17 -24 -17z" />
    <glyph glyph-name="tbar" unicode="&#x167;" horiz-adv-x="354" 
d="M297 439h-152v-162h172q4 -4 4 -15q0 -17 -23 -17h-153v-124q0 -52 17.5 -71t55.5 -19h103q2 -3 2 -9q0 -22 -105 -22q-52 0 -78.5 24t-26.5 87v134h-59q-4 8 -4 14q0 18 22 18h41v162h-59q-4 6 -4 14q0 17 22 17h41v147q6 4 16 4q16 0 16 -17v-134h176q3 -3 3 -14
q0 -17 -27 -17z" />
    <glyph glyph-name="Utilde" unicode="&#x168;" horiz-adv-x="718" 
d="M576 260v435q7 5 15 5q17 0 17 -18v-429q0 -131 -60.5 -197t-188.5 -66t-186 64.5t-58 198.5v442q7 5 15 5q17 0 17 -18v-421q0 -124 48.5 -182t163.5 -58q117 0 167 57.5t50 181.5zM277 871q25 0 82.5 -16t80.5 -16q40 0 64 24q10 -7 10 -19q0 -14 -17.5 -25t-48.5 -11
q-27 0 -89 15.5t-80 15.5q-19 0 -38 -10t-23 -18q-14 8 -14 19t23 26t50 15z" />
    <glyph glyph-name="utilde" unicode="&#x169;" horiz-adv-x="579" 
d="M481 0q-23 0 -33 11.5t-10 40.5v68q-82 -130 -199 -130q-68 0 -99.5 37t-31.5 126v257q0 27 -23 27h-43q-2 8 -2 16q0 17 50 17q28 0 39.5 -12.5t11.5 -41.5v-261q0 -73 24.5 -104t73.5 -31q120 0 199 156v290q7 4 17 4q14 0 14 -14v-398q0 -27 20 -27h38q2 -8 2 -11
q0 -20 -48 -20zM200 640q25 0 82.5 -16t80.5 -16q40 0 64 24q10 -7 10 -19q0 -13 -17.5 -24.5t-48.5 -11.5q-27 0 -89 15.5t-80 15.5q-19 0 -38 -10t-23 -18q-14 8 -14 19t23 26t50 15z" />
    <glyph glyph-name="Umacron" unicode="&#x16a;" horiz-adv-x="718" 
d="M576 260v435q7 5 15 5q17 0 17 -18v-429q0 -131 -60.5 -197t-188.5 -66t-186 64.5t-58 198.5v442q7 5 15 5q17 0 17 -18v-421q0 -124 48.5 -182t163.5 -58q117 0 167 57.5t50 181.5zM475 826h-268l-2 4q-2 3 -2 9q0 19 27 19h281q4 -3 4 -15q0 -17 -40 -17z" />
    <glyph glyph-name="umacron" unicode="&#x16b;" horiz-adv-x="579" 
d="M481 0q-23 0 -33 11.5t-10 40.5v68q-82 -130 -199 -130q-68 0 -99.5 37t-31.5 126v257q0 27 -23 27h-43q-2 8 -2 16q0 17 50 17q28 0 39.5 -12.5t11.5 -41.5v-261q0 -73 24.5 -104t73.5 -31q120 0 199 156v290q7 4 17 4q14 0 14 -14v-398q0 -27 20 -27h38q2 -8 2 -11
q0 -20 -48 -20zM394 595h-268l-2 3q-2 4 -2 10q0 19 27 19h281q4 -3 4 -15q0 -17 -40 -17z" />
    <glyph glyph-name="Ubreve" unicode="&#x16c;" horiz-adv-x="718" 
d="M576 260v435q7 5 15 5q17 0 17 -18v-429q0 -131 -60.5 -197t-188.5 -66t-186 64.5t-58 198.5v442q7 5 15 5q17 0 17 -18v-421q0 -124 48.5 -182t163.5 -58q117 0 167 57.5t50 181.5zM262 893q2 -38 28 -59q22 -18 69 -18q49 0 70 19q27 24 27 58q5 4 14 4q14 0 14 -11
q0 -36 -33 -69q-31 -30 -92 -30q-55 0 -87 26q-38 31 -38 72q0 12 14 12q10 0 14 -4z" />
    <glyph glyph-name="ubreve" unicode="&#x16d;" horiz-adv-x="579" 
d="M481 0q-23 0 -33 11.5t-10 40.5v68q-82 -130 -199 -130q-68 0 -99.5 37t-31.5 126v257q0 27 -23 27h-43q-2 8 -2 16q0 17 50 17q28 0 39.5 -12.5t11.5 -41.5v-261q0 -73 24.5 -104t73.5 -31q120 0 199 156v290q7 4 17 4q14 0 14 -14v-398q0 -27 20 -27h38q2 -8 2 -11
q0 -20 -48 -20zM184 662q2 -38 28 -59q22 -18 69 -18q49 0 70 19q27 24 27 58q5 4 14 4q14 0 14 -11q0 -36 -33 -69q-31 -30 -92 -30q-55 0 -87 26q-38 31 -38 72q0 12 14 12q10 0 14 -4z" />
    <glyph glyph-name="Uring" unicode="&#x16e;" horiz-adv-x="718" 
d="M576 260v435q7 5 15 5q17 0 17 -18v-429q0 -131 -60.5 -197t-188.5 -66t-186 64.5t-58 198.5v442q7 5 15 5q17 0 17 -18v-421q0 -124 48.5 -182t163.5 -58q117 0 167 57.5t50 181.5zM275 862q0 84 84 84q41 0 62.5 -22t21.5 -62q0 -84 -84 -84t-84 84zM304 862
q0 -55 55 -55t55 55q0 25 -14.5 40t-40.5 15q-55 0 -55 -55z" />
    <glyph glyph-name="uring" unicode="&#x16f;" horiz-adv-x="579" 
d="M481 0q-23 0 -33 11.5t-10 40.5v68q-82 -130 -199 -130q-68 0 -99.5 37t-31.5 126v257q0 27 -23 27h-43q-2 8 -2 16q0 17 50 17q28 0 39.5 -12.5t11.5 -41.5v-261q0 -73 24.5 -104t73.5 -31q120 0 199 156v290q7 4 17 4q14 0 14 -14v-398q0 -27 20 -27h38q2 -8 2 -11
q0 -20 -48 -20zM197 631q0 84 84 84q41 0 62.5 -22t21.5 -62q0 -84 -84 -84t-84 84zM226 631q0 -55 55 -55t55 55q0 25 -14.5 40t-40.5 15q-55 0 -55 -55z" />
    <glyph glyph-name="Uhungarumlaut" unicode="&#x170;" horiz-adv-x="718" 
d="M576 260v435q7 5 15 5q17 0 17 -18v-429q0 -131 -60.5 -197t-188.5 -66t-186 64.5t-58 198.5v442q7 5 15 5q17 0 17 -18v-421q0 -124 48.5 -182t163.5 -58q117 0 167 57.5t50 181.5zM211 804q9 6 38.5 36.5t57 54.5t39.5 24q22 0 24 -16q-20 -12 -50.5 -41.5t-54.5 -50.5
t-35 -21q-14 0 -19 14zM367 807q14 9 46.5 35.5t59.5 45.5t40 19q23 0 23 -19q-21 -10 -54 -35t-59 -44t-35 -19q-16 0 -21 17z" />
    <glyph glyph-name="uhungarumlaut" unicode="&#x171;" horiz-adv-x="579" 
d="M481 0q-23 0 -33 11.5t-10 40.5v68q-82 -130 -199 -130q-68 0 -99.5 37t-31.5 126v257q0 27 -23 27h-43q-2 8 -2 16q0 17 50 17q28 0 39.5 -12.5t11.5 -41.5v-261q0 -73 24.5 -104t73.5 -31q120 0 199 156v290q7 4 17 4q14 0 14 -14v-398q0 -27 20 -27h38q2 -8 2 -11
q0 -20 -48 -20zM160 573q9 6 38.5 36.5t57 54.5t39.5 24q22 0 24 -16q-20 -12 -50.5 -41.5t-54.5 -50.5t-35 -21q-14 0 -19 14zM316 576q14 9 46.5 35.5t59.5 45.5t40 19q23 0 23 -19q-21 -10 -54 -35t-59 -44t-35 -19q-16 0 -21 17z" />
    <glyph glyph-name="Uogonek" unicode="&#x172;" horiz-adv-x="718" 
d="M434 -4q-23 -6 -75 -6q-128 0 -186 64.5t-58 198.5v442q7 5 15 5q17 0 17 -18v-421q0 -124 48.5 -182t163.5 -58q117 0 167 57.5t50 181.5v435q7 5 15 5q17 0 17 -18v-429q0 -175 -103 -230q-38 -20 -62.5 -59.5t-24.5 -61.5q0 -48 62 -48q3 -6 3 -14q0 -13 -22 -13
q-14 0 -28.5 4t-29.5 21t-15 45q0 55 46 99z" />
    <glyph glyph-name="uogonek" unicode="&#x173;" horiz-adv-x="579" 
d="M239 20q120 0 199 156v290q7 4 17 4q14 0 14 -14v-398q0 -27 20 -27h38q2 -8 2 -11q0 -7 -7 -12q-19 -16 -36.5 -49.5t-17.5 -50.5q0 -48 62 -48q3 -6 3 -14q0 -13 -22 -13q-14 0 -28.5 4t-29.5 21t-15 45q0 46 37 97q-7 0 -13 2t-10 6t-6.5 8t-4.5 11.5t-2.5 13.5t-1 17
t0 18.5t0.5 21v22.5q-82 -130 -199 -130q-68 0 -99.5 37t-31.5 126v257q0 27 -23 27h-43q-2 8 -2 16q0 17 50 17q15 0 25 -4t15 -9t7.5 -19t3 -24.5t0.5 -34.5v-224q0 -72 25 -103.5t73 -31.5z" />
    <glyph glyph-name="Wcircumflex" unicode="&#x174;" horiz-adv-x="1019" 
d="M646 807q-5 -17 -21 -17q-6 0 -13 4q-14 7 -54 38t-59 43q-19 -12 -59 -43t-54 -38q-7 -4 -13 -4q-16 0 -21 17q14 9 46 35.5t58.5 45.5t41.5 19q13 0 39 -18.5t59 -45t50 -36.5zM441 700q11 0 17 -13l271 -646q64 105 145.5 319.5t98.5 335.5q7 4 15 4q11 0 11 -8
t-4 -31q-20 -113 -100 -323t-154 -335q-15 -3 -17 -3q-11 0 -18 15l-173 418q-85 -214 -212 -430q-15 -3 -17 -3q-11 0 -18 15l-266 682q8 3 17 3q11 0 17 -13l255 -646q44 73 105.5 196t103.5 232l-94 228q8 3 17 3z" />
    <glyph glyph-name="wcircumflex" unicode="&#x175;" horiz-adv-x="771" 
d="M513 577q-5 -17 -21 -17q-6 0 -13 4q-14 7 -54 38t-59 43q-19 -12 -59 -43t-54 -38q-7 -4 -13 -4q-16 0 -21 17q14 9 46 35.5t58.5 45.5t41.5 19q13 0 39 -18.5t59 -45t50 -36.5zM520 3l-134 384q-15 -79 -57 -180.5t-88 -178.5q-17 -28 -30 -28q-8 0 -13 5l-131 421
q-4 17 -20 17h-34q-3 5 -3 11q0 16 37 16q34 0 45 -29l125 -400q56 88 101.5 207t45.5 174q0 21 -16 21h-31q-2 6 -2 12q0 15 46 15q25 0 36 -29l139 -401q61 83 102.5 195t41.5 180q0 28 -25 28h-39q-3 6 -3 13q0 14 44 14q28 0 41 -13t13 -44q0 -73 -45 -186.5
t-102 -193.5q-3 -4 -7.5 -10.5t-6.5 -9.5t-5.5 -6.5t-6.5 -5t-6 -1.5q-6 0 -12 3z" />
    <glyph glyph-name="Ycircumflex" unicode="&#x176;" horiz-adv-x="593" 
d="M443 807q-5 -17 -21 -17q-6 0 -13 4q-14 7 -54 38t-59 43q-19 -12 -59 -43t-54 -38q-7 -4 -13 -4q-16 0 -21 17q14 9 46 35.5t58.5 45.5t41.5 19q13 0 39 -18.5t59 -45t50 -36.5zM318 225v-220q-7 -5 -17 -5q-15 0 -15 17v208q-148 193 -236 467q8 8 19 8q12 0 16 -11
q84 -262 219 -440q67 91 134.5 233.5t78.5 214.5q6 3 15 3q11 0 11 -12q-2 -64 -80.5 -221t-144.5 -242z" />
    <glyph glyph-name="ycircumflex" unicode="&#x177;" horiz-adv-x="527" 
d="M399 577q-5 -17 -21 -17q-6 0 -13 4q-14 7 -54 38t-59 43q-19 -12 -59 -43t-54 -38q-7 -4 -13 -4q-16 0 -21 17q14 9 46 35.5t58.5 45.5t41.5 19q13 0 39 -18.5t59 -45t50 -36.5zM100 435l154 -384q8 -21 23 -21h4q60 117 107.5 231.5t47.5 155.5q0 26 -24 26h-40
q-2 6 -2 11q0 16 38 16q59 0 59 -50q0 -69 -91.5 -266t-145.5 -273q-34 -47 -66 -64t-73 -17q-59 0 -59 22q0 10 4 14h60q20 0 34 3t35.5 18t41.5 44q27 39 58 99q-23 0 -35 29l-157 397q-7 17 -22 17h-39q-2 6 -2 11q0 16 39 16q22 0 32.5 -8t18.5 -27z" />
    <glyph glyph-name="Ydieresis" unicode="&#x178;" horiz-adv-x="593" 
d="M318 225v-220q-7 -5 -17 -5q-15 0 -15 17v208q-148 193 -236 467q8 8 19 8q12 0 16 -11q84 -262 219 -440q67 91 134.5 233.5t78.5 214.5q6 3 15 3q11 0 11 -12q-2 -64 -80.5 -221t-144.5 -242zM161 835q0 29 28 29q29 0 29 -29q0 -28 -29 -28q-28 0 -28 28zM374 835
q0 29 28 29q29 0 29 -29q0 -28 -29 -28q-28 0 -28 28z" />
    <glyph glyph-name="Zacute" unicode="&#x179;" horiz-adv-x="656" 
d="M565 670l-478 -637h525q4 -6 4 -15q0 -18 -26 -18h-548q-2 8 -2 13q0 10 8 20l480 635h-459l-2 4q-2 3 -2 9q0 19 26 19h477q4 -3 4 -12q0 -8 -7 -18zM243 807q14 9 46.5 35.5t59.5 45.5t40 19q23 0 23 -19q-21 -10 -54 -35t-59 -44t-35 -19q-16 0 -21 17z" />
    <glyph glyph-name="zacute" unicode="&#x17a;" horiz-adv-x="502" 
d="M50 12q0 9 7 17l329 410h-320q-4 6 -4 14q0 17 18 17h349q3 -6 3 -11q0 -11 -7 -18l-330 -410h354q3 -3 3 -14q0 -17 -28 -17h-370q-4 6 -4 12zM166 577q14 9 46.5 35.5t59.5 45.5t40 19q23 0 23 -19q-21 -10 -54 -35t-59 -44t-35 -19q-16 0 -21 17z" />
    <glyph glyph-name="Zdotaccent" unicode="&#x17b;" horiz-adv-x="656" 
d="M565 670l-478 -637h525q4 -6 4 -15q0 -18 -26 -18h-548q-2 8 -2 13q0 10 8 20l480 635h-459l-2 4q-2 3 -2 9q0 19 26 19h477q4 -3 4 -12q0 -8 -7 -18zM292 835q0 29 28 29q29 0 29 -29q0 -28 -29 -28q-28 0 -28 28z" />
    <glyph glyph-name="zdotaccent" unicode="&#x17c;" horiz-adv-x="502" 
d="M50 12q0 9 7 17l329 410h-320q-4 6 -4 14q0 17 18 17h349q3 -6 3 -11q0 -11 -7 -18l-330 -410h354q3 -3 3 -14q0 -17 -28 -17h-370q-4 6 -4 12zM222 605q0 29 28 29q29 0 29 -29q0 -28 -29 -28q-28 0 -28 28z" />
    <glyph glyph-name="Zcaron" unicode="&#x17d;" horiz-adv-x="656" 
d="M565 670l-478 -637h525q4 -6 4 -15q0 -18 -26 -18h-548q-2 8 -2 13q0 10 8 20l480 635h-459l-2 4q-2 3 -2 9q0 19 26 19h477q4 -3 4 -12q0 -8 -7 -18zM327 790q-7 0 -13 4q-12 7 -61.5 44.5t-73.5 49.5q0 19 23 19q7 0 18 -5.5t25.5 -16t26.5 -20t29 -23.5t26 -21
q10 8 33 26.5t37 29.5t30.5 20.5t25.5 9.5q23 0 23 -19q-24 -12 -73 -49.5t-62 -44.5q-6 -4 -14 -4z" />
    <glyph glyph-name="zcaron" unicode="&#x17e;" horiz-adv-x="502" 
d="M50 12q0 9 7 17l329 410h-320q-4 6 -4 14q0 17 18 17h349q3 -6 3 -11q0 -11 -7 -18l-330 -410h354q3 -3 3 -14q0 -17 -28 -17h-370q-4 6 -4 12zM251 560q-7 0 -13 4q-12 7 -61.5 44.5t-73.5 49.5q0 19 23 19q7 0 18 -5.5t25.5 -16t26.5 -20t29 -23.5t26 -21q10 8 33 26.5
t37 29.5t30.5 20.5t25.5 9.5q23 0 23 -19q-24 -12 -73 -49.5t-62 -44.5q-6 -4 -14 -4z" />
    <glyph glyph-name="florin" unicode="&#x192;" horiz-adv-x="516" 
d="M394 369h-143l-63 -456q-9 -64 -41 -88.5t-92 -24.5q-74 0 -74 21q0 7 3 11h87q38 0 58.5 19.5t27.5 71.5l62 446h-126q-3 12 -3 13q0 19 22 19h111l26 186q9 62 40.5 87.5t91.5 25.5q90 0 90 -18q0 -10 -3 -14h-91q-43 0 -66.5 -20.5t-30.5 -70.5l-25 -176h168
q3 -3 3 -15q0 -17 -32 -17z" />
    <glyph glyph-name="aringacute" unicode="&#x1fb;" horiz-adv-x="550" 
d="M89 405q-12 1 -12 14q0 22 52.5 41.5t108.5 19.5q38 0 69 -8.5t56.5 -37.5t25.5 -77v-288q0 -22 7 -31t23 -9h28q5 -7 5 -15q0 -14 -41 -14q-52 0 -52 63v32q-91 -105 -193 -105q-63 0 -94.5 38.5t-31.5 100.5q0 111 117 122l202 18v87q0 94 -119 94q-47 0 -91 -14.5
t-60 -30.5zM166 19q103 0 193 115v104l-202 -18q-87 -9 -87 -93q0 -47 24.5 -77.5t71.5 -30.5zM191 619q0 84 84 84q41 0 62.5 -22t21.5 -62q0 -84 -84 -84t-84 84zM220 619q0 -55 55 -55t55 55q0 25 -14.5 40t-40.5 15q-55 0 -55 -55zM192 752q14 9 46.5 35.5t59.5 45.5
t40 19q23 0 23 -19q-21 -10 -54 -35t-59 -44t-35 -19q-16 0 -21 17z" />
    <glyph glyph-name="AEacute" unicode="&#x1fc;" horiz-adv-x="999" 
d="M915 0h-438q-16 0 -16 17v176h-332l-76 -184q-4 -9 -17 -9q-11 0 -16 5l283 689q6 4 16 5.5t18 1.5t22.5 -0.5t19.5 -0.5h556q4 -3 4 -15q0 -17 -24 -17h-422v-290h376q4 -3 4 -15q0 -17 -24 -17h-356v-314h442q4 -3 4 -15q0 -17 -24 -17zM326 668l-185 -446h320v446
h-135zM476 807q14 9 46.5 35.5t59.5 45.5t40 19q23 0 23 -19q-21 -10 -54 -35t-59 -44t-35 -19q-16 0 -21 17z" />
    <glyph glyph-name="aeacute" unicode="&#x1fd;" horiz-adv-x="797" 
d="M89 405q-12 1 -12 14q0 22 52.5 41.5t108.5 19.5q58 0 102 -25t48 -86q28 55 75 83t102 28q85 0 128.5 -56t43.5 -141q0 -20 -5 -33h-342q0 -189 127 -224q23 -6 48 -6q51 0 92.5 17t61.5 35q13 -4 13 -16q0 -8 -15.5 -22.5t-56.5 -29t-96 -14.5q-62 0 -110 31.5
t-73 89.5q-44 -52 -103 -86.5t-112 -34.5q-63 0 -94.5 38.5t-31.5 100.5q0 111 117 122q74 4 202 18q0 80 -11 118t-34.5 50.5t-73.5 12.5q-47 0 -91 -14.5t-60 -30.5zM166 19q51 0 107.5 33.5t97.5 85.5q-12 40 -12 90v10l-202 -18q-87 -9 -87 -93q0 -46 24.5 -77t71.5 -31
zM563 452q-65 0 -111.5 -44.5t-58.5 -127.5h313q0 77 -35.5 124.5t-107.5 47.5zM350 577q14 9 46.5 35.5t59.5 45.5t40 19q23 0 23 -19q-21 -10 -54 -35t-59 -44t-35 -19q-16 0 -21 17z" />
    <glyph glyph-name="Oslashacute" unicode="&#x1fe;" horiz-adv-x="731" 
d="M80 351q0 175 77.5 267t214.5 92q56 0 103 -18l41 119q5 4 16 4t12 -10q0 -6 -1 -9l-40 -117q148 -77 148 -328q0 -361 -280 -361q-55 0 -98 13l-49 -146q-4 -2 -17 -2t-13 10q0 2 2 8l48 140q-164 71 -164 338zM110 351q0 -246 144 -308l211 619q-43 17 -93 17
q-126 0 -194 -85t-68 -243zM621 351q0 224 -128 298l-210 -617q42 -11 89 -11q249 0 249 330zM281 807q14 9 46.5 35.5t59.5 45.5t40 19q23 0 23 -19q-21 -10 -54 -35t-59 -44t-35 -19q-16 0 -21 17z" />
    <glyph glyph-name="oslashacute" unicode="&#x1ff;" horiz-adv-x="549" 
d="M70 235q0 119 57 182t154 63q25 0 50 -5l42 141q6 3 15 3q11 0 12 -10q0 -6 -1 -9l-39 -134q119 -45 119 -231q0 -245 -206 -245q-25 0 -52 5l-30 -105q-5 -4 -17 -4q-8 0 -11 5q-2 4 1 14l28 97q-122 42 -122 233zM101 235q0 -166 100 -203l121 412q-22 5 -41 5
q-83 0 -131.5 -55.5t-48.5 -158.5zM448 235q0 159 -97 201l-121 -412q21 -3 43 -3q175 0 175 214zM190 577q14 9 46.5 35.5t59.5 45.5t40 19q23 0 23 -19q-21 -10 -54 -35t-59 -44t-35 -19q-16 0 -21 17z" />
    <glyph glyph-name="Scommaaccent" unicode="&#x218;" horiz-adv-x="627" 
d="M305 710q80 0 135 -19.5t80 -44.5q10 -10 10 -21q0 -6 -6 -11t-13 -5q-58 67 -207 67q-95 0 -138.5 -37.5t-43.5 -95.5q0 -60 47 -95t171 -74q114 -36 165.5 -82t51.5 -124q0 -85 -62 -131.5t-181 -46.5q-110 0 -194 46q-50 27 -50 48q0 15 11 19q33 -38 96.5 -60
t134.5 -22q111 0 164 39.5t53 107.5q0 63 -44.5 101.5t-157.5 75.5q-135 45 -184.5 85.5t-49.5 113.5q0 72 52.5 119t159.5 47zM321 -150q-12 0 -21.5 7.5t-9.5 20.5q0 29 29 29q31 0 31 -47q0 -36 -10 -62t-24 -26q-12 0 -16 9q21 28 21 69z" />
    <glyph glyph-name="scommaaccent" unicode="&#x219;" horiz-adv-x="462" 
d="M227 480q69 0 115 -21t46 -43q0 -16 -19 -16q-14 19 -50.5 33t-92.5 14q-62 0 -91.5 -25t-29.5 -64q0 -42 33.5 -64t108.5 -38q85 -17 121 -49t36 -90q0 -127 -171 -127q-64 0 -118 23.5t-54 42.5q0 16 13 20q19 -19 66.5 -38t90.5 -19q74 0 108.5 27t34.5 70
q0 46 -30.5 70.5t-103.5 39.5q-91 18 -129 47t-38 89q0 49 40.5 83.5t113.5 34.5zM225 -122q-12 0 -21.5 7.5t-9.5 20.5q0 29 29 29q31 0 31 -47q0 -36 -10 -62t-24 -26q-12 0 -16 9q21 28 21 69z" />
    <glyph glyph-name="uni021A" unicode="&#x21a;" horiz-adv-x="614" 
d="M570 668h-247v-663q-5 -5 -18 -5q-14 0 -14 16v652h-267q-4 8 -4 17q0 15 24 15h546q4 -5 4 -15q0 -17 -24 -17zM308 -149q-12 0 -21.5 7.5t-9.5 20.5q0 29 29 29q31 0 31 -47q0 -36 -10 -62t-24 -26q-12 0 -16 9q21 28 21 69z" />
    <glyph glyph-name="uni021B" unicode="&#x21b;" horiz-adv-x="354" 
d="M169 -122q-12 0 -21.5 7.5t-9.5 20.5q0 29 29 29q31 0 31 -47q0 -36 -10 -62t-24 -26q-12 0 -16 9q21 28 21 69zM297 439h-152v-318q0 -52 17.5 -71t55.5 -19h103q2 -3 2 -9q0 -22 -105 -22q-52 0 -78.5 24t-26.5 87v328h-59q-4 6 -4 14q0 17 22 17h41v147q6 4 16 4
q16 0 16 -17v-134h176q3 -3 3 -14q0 -17 -27 -17z" />
    <glyph glyph-name="dotlessj" unicode="&#x237;" horiz-adv-x="286" 
d="M122 470q30 0 43.5 -13t13.5 -43v-479q0 -100 -107 -100q-33 0 -52.5 7t-19.5 17q0 6 2 11h72q73 0 73 72v467q0 26 -23 26h-42q-3 6 -3 14q0 21 43 21z" />
    <glyph glyph-name="hsuperior" unicode="&#x2b0;" horiz-adv-x="301" 
d="M58 700q14 0 14 -13v-150q42 56 102 56q72 0 72 -77v-131q0 -13 12 -13h17q2 -4 2 -9q0 -13 -30 -13t-30 34v126q0 55 -50 55q-60 0 -95 -60v-152q-4 -3 -15 -3q-14 0 -14 14v333q12 3 15 3z" />
    <glyph glyph-name="circumflex" unicode="&#x2c6;" horiz-adv-x="485" 
d="M382 577q-5 -17 -21 -17q-6 0 -13 4q-14 7 -54 38t-59 43q-19 -12 -59 -43t-54 -38q-7 -4 -13 -4q-16 0 -21 17q14 9 46 35.5t58.5 45.5t41.5 19q13 0 39 -18.5t59 -45t50 -36.5z" />
    <glyph glyph-name="caron" unicode="&#x2c7;" horiz-adv-x="560" 
d="M273 560q-7 0 -13 4q-12 7 -61.5 44.5t-73.5 49.5q0 19 23 19q7 0 18 -5.5t25.5 -16t26.5 -20t29 -23.5t26 -21q10 8 33 26.5t37 29.5t30.5 20.5t25.5 9.5q23 0 23 -19q-24 -12 -73 -49.5t-62 -44.5q-6 -4 -14 -4z" />
    <glyph glyph-name="breve" unicode="&#x2d8;" horiz-adv-x="427" 
d="M108 663q2 -38 28 -59q22 -18 69 -18q49 0 70 19q27 24 27 58q5 4 14 4q14 0 14 -11q0 -36 -33 -69q-31 -30 -92 -30q-55 0 -87 26q-38 31 -38 72q0 12 14 12q10 0 14 -4z" />
    <glyph glyph-name="dotaccent" unicode="&#x2d9;" horiz-adv-x="478" 
d="M215 605q0 29 28 29q29 0 29 -29q0 -28 -29 -28q-28 0 -28 28z" />
    <glyph glyph-name="ring" unicode="&#x2da;" horiz-adv-x="488" 
d="M160 632q0 84 84 84q41 0 62.5 -22t21.5 -62q0 -84 -84 -84t-84 84zM189 632q0 -55 55 -55t55 55q0 25 -14.5 40t-40.5 15q-55 0 -55 -55z" />
    <glyph glyph-name="ogonek" unicode="&#x2db;" horiz-adv-x="545" 
d="M431 23l29 -15q-18 -17 -38 -53t-20 -53q0 -48 62 -48q3 -6 3 -14q0 -13 -22 -13q-14 0 -28.5 4t-29.5 21t-15 45q0 12 2.5 23.5t7 23t9 20.5t11.5 19t10.5 15.5t10.5 14.5t8 10z" />
    <glyph glyph-name="tilde" unicode="&#x2dc;" horiz-adv-x="536" 
d="M127 641q25 0 82.5 -16t80.5 -16q40 0 64 24q10 -7 10 -19q0 -14 -17.5 -25t-48.5 -11q-27 0 -89 15.5t-80 15.5q-19 0 -38 -10t-23 -18q-14 8 -14 19t23 26t50 15z" />
    <glyph glyph-name="hungarumlaut" unicode="&#x2dd;" horiz-adv-x="491" 
d="M83 574q9 6 38.5 36.5t57 54.5t39.5 24q22 0 24 -16q-20 -12 -50.5 -41.5t-54.5 -50.5t-35 -21q-14 0 -19 14zM239 577q14 9 46.5 35.5t59.5 45.5t40 19q23 0 23 -19q-21 -10 -54 -35t-59 -44t-35 -19q-16 0 -21 17z" />
    <glyph glyph-name="uni0394" unicode="&#x394;" horiz-adv-x="632" 
d="M51 0q-11 0 -16 5l279 674q8 21 24 21q7 0 13.5 -5.5t12 -17t9.5 -21t9.5 -25.5t7.5 -22l232 -599q-2 -10 -14 -10h-557zM339 657l-263 -628h508z" />
    <glyph glyph-name="uni03A9" unicode="&#x3a9;" horiz-adv-x="731" 
d="M271 28v2q-28 7 -53 20.5t-51 39t-44.5 60t-30.5 86.5t-12 115q0 175 77.5 267t214.5 92q131 0 205 -92t74 -267q0 -136 -53 -217.5t-127 -103.5v-2l191 4q4 -3 4 -15q0 -17 -24 -17h-244q-5 10 -5 26q0 25 17 25q94 0 152.5 76.5t58.5 223.5q0 158 -66 243t-183 85
q-126 0 -194 -85t-68 -243q0 -154 65 -227.5t158 -73.5q5 -10 5 -25q0 -10 -6 -17.5t-18 -7.5h-244q-5 10 -5 13q0 19 29 19z" />
    <glyph glyph-name="uni03BC" unicode="&#x3bc;" horiz-adv-x="620" 
d="M475 52v69q-89 -131 -219 -131q-79 0 -111 40v-226q-5 -4 -17 -4q-6 0 -9.5 4t-4.5 11.5t-1 14t0.5 17t0.5 14.5v549q0 27 -25 27h-47q-2 8 -2 16q0 17 52 17q17 0 29 -6.5t17.5 -15t7.5 -25t2 -28t-1 -33.5t-1 -33v-174q0 -73 27 -104t82 -31q66 0 126 40t94 108v298
q7 4 16 4q14 0 14 -14v-398q0 -15 4.5 -21t16.5 -6h42q2 -8 2 -11q0 -20 -50 -20q-25 0 -35 11.5t-10 40.5z" />
    <glyph glyph-name="pi" unicode="&#x3c0;" horiz-adv-x="593" 
d="M125 75v363h-105q-5 10 -5 13q0 19 29 19h530q4 -3 4 -15q0 -17 -24 -17h-86v-432q-6 -6 -16 -6q-16 0 -16 17v421h-279v-360q0 -44 -19 -63t-47 -19q-17 0 -17 21q51 3 51 58z" />
    <glyph glyph-name="Wgrave" unicode="&#x1e80;" horiz-adv-x="1019" 
d="M441 700q11 0 17 -13l271 -646q64 105 145.5 319.5t98.5 335.5q7 4 15 4q11 0 11 -8t-4 -31q-20 -113 -100 -323t-154 -335q-15 -3 -17 -3q-11 0 -18 15l-173 418q-85 -214 -212 -430q-15 -3 -17 -3q-11 0 -18 15l-266 682q8 3 17 3q11 0 17 -13l255 -646
q44 73 105.5 196t103.5 232l-94 228q8 3 17 3zM594 807q-5 -17 -21 -17q-9 0 -35 19t-59 44t-54 35q0 19 23 19q13 0 40 -19t59.5 -45.5t46.5 -35.5z" />
    <glyph glyph-name="wgrave" unicode="&#x1e81;" horiz-adv-x="771" 
d="M520 3l-134 384q-15 -79 -57 -180.5t-88 -178.5q-17 -28 -30 -28q-8 0 -13 5l-131 421q-4 17 -20 17h-34q-3 5 -3 11q0 16 37 16q34 0 45 -29l125 -400q56 88 101.5 207t45.5 174q0 21 -16 21h-31q-2 6 -2 12q0 15 46 15q25 0 36 -29l139 -401q61 83 102.5 195t41.5 180
q0 28 -25 28h-39q-3 6 -3 13q0 14 44 14q28 0 41 -13t13 -44q0 -73 -45 -186.5t-102 -193.5q-3 -4 -7.5 -10.5t-6.5 -9.5t-5.5 -6.5t-6.5 -5t-6 -1.5q-6 0 -12 3zM431 577q-5 -17 -21 -17q-9 0 -35 19t-59 44t-54 35q0 19 23 19q13 0 40 -19t59.5 -45.5t46.5 -35.5z" />
    <glyph glyph-name="Wacute" unicode="&#x1e82;" horiz-adv-x="1019" 
d="M441 700q11 0 17 -13l271 -646q64 105 145.5 319.5t98.5 335.5q7 4 15 4q11 0 11 -8t-4 -31q-20 -113 -100 -323t-154 -335q-15 -3 -17 -3q-11 0 -18 15l-173 418q-85 -214 -212 -430q-15 -3 -17 -3q-11 0 -18 15l-266 682q8 3 17 3q11 0 17 -13l255 -646
q44 73 105.5 196t103.5 232l-94 228q8 3 17 3zM425 807q14 9 46.5 35.5t59.5 45.5t40 19q23 0 23 -19q-21 -10 -54 -35t-59 -44t-35 -19q-16 0 -21 17z" />
    <glyph glyph-name="wacute" unicode="&#x1e83;" horiz-adv-x="771" 
d="M520 3l-134 384q-15 -79 -57 -180.5t-88 -178.5q-17 -28 -30 -28q-8 0 -13 5l-131 421q-4 17 -20 17h-34q-3 5 -3 11q0 16 37 16q34 0 45 -29l125 -400q56 88 101.5 207t45.5 174q0 21 -16 21h-31q-2 6 -2 12q0 15 46 15q25 0 36 -29l139 -401q61 83 102.5 195t41.5 180
q0 28 -25 28h-39q-3 6 -3 13q0 14 44 14q28 0 41 -13t13 -44q0 -73 -45 -186.5t-102 -193.5q-3 -4 -7.5 -10.5t-6.5 -9.5t-5.5 -6.5t-6.5 -5t-6 -1.5q-6 0 -12 3zM310 577q14 9 46.5 35.5t59.5 45.5t40 19q23 0 23 -19q-21 -10 -54 -35t-59 -44t-35 -19q-16 0 -21 17z" />
    <glyph glyph-name="Wdieresis" unicode="&#x1e84;" horiz-adv-x="1019" 
d="M441 700q11 0 17 -13l271 -646q64 105 145.5 319.5t98.5 335.5q7 4 15 4q11 0 11 -8t-4 -31q-20 -113 -100 -323t-154 -335q-15 -3 -17 -3q-11 0 -18 15l-173 418q-85 -214 -212 -430q-15 -3 -17 -3q-11 0 -18 15l-266 682q8 3 17 3q11 0 17 -13l255 -646
q44 73 105.5 196t103.5 232l-94 228q8 3 17 3zM374 835q0 29 28 29q29 0 29 -29q0 -28 -29 -28q-28 0 -28 28zM587 835q0 29 28 29q29 0 29 -29q0 -28 -29 -28q-28 0 -28 28z" />
    <glyph glyph-name="wdieresis" unicode="&#x1e85;" horiz-adv-x="771" 
d="M520 3l-134 384q-15 -79 -57 -180.5t-88 -178.5q-17 -28 -30 -28q-8 0 -13 5l-131 421q-4 17 -20 17h-34q-3 5 -3 11q0 16 37 16q34 0 45 -29l125 -400q56 88 101.5 207t45.5 174q0 21 -16 21h-31q-2 6 -2 12q0 15 46 15q25 0 36 -29l139 -401q61 83 102.5 195t41.5 180
q0 28 -25 28h-39q-3 6 -3 13q0 14 44 14q28 0 41 -13t13 -44q0 -73 -45 -186.5t-102 -193.5q-3 -4 -7.5 -10.5t-6.5 -9.5t-5.5 -6.5t-6.5 -5t-6 -1.5q-6 0 -12 3zM233 605q0 29 28 29q29 0 29 -29q0 -28 -29 -28q-28 0 -28 28zM446 605q0 29 28 29q29 0 29 -29
q0 -28 -29 -28q-28 0 -28 28z" />
    <glyph glyph-name="uni1E8A" unicode="&#x1e8a;" horiz-adv-x="668" 
d="M99 700q17 0 30 -18l208 -293l208 297q9 14 24 14q13 0 16 -7l-231 -327l254 -356q-6 -10 -20 -10q-16 0 -23 10l-232 330l-235 -326q-10 -14 -23 -14q-11 0 -15 12l256 351l-231 329q3 8 14 8zM305 835q0 29 28 29q29 0 29 -29q0 -28 -29 -28q-28 0 -28 28z" />
    <glyph glyph-name="uni1E8B" unicode="&#x1e8b;" horiz-adv-x="554" 
d="M95 470q33 0 51 -26l117 -177l149 191q10 12 22 12q16 0 20 -11l-176 -215l132 -199q13 -19 32 -19h33q2 -3 2 -11q0 -15 -38 -15t-55 25l-127 194l-161 -207q-10 -12 -20 -12q-6 0 -12.5 4.5t-7.5 7.5l186 229l-122 187q-11 15 -25 15h-43q-2 6 -2 10q0 17 45 17z
M248 605q0 29 28 29q29 0 29 -29q0 -28 -29 -28q-28 0 -28 28z" />
    <glyph glyph-name="Ygrave" unicode="&#x1ef2;" horiz-adv-x="593" 
d="M381 807q-5 -17 -21 -17q-9 0 -35 19t-59 44t-54 35q0 19 23 19q13 0 40 -19t59.5 -45.5t46.5 -35.5zM318 225v-220q-7 -5 -17 -5q-15 0 -15 17v208q-148 193 -236 467q8 8 19 8q12 0 16 -11q84 -262 219 -440q67 91 134.5 233.5t78.5 214.5q6 3 15 3q11 0 11 -12
q-2 -64 -80.5 -221t-144.5 -242z" />
    <glyph glyph-name="ygrave" unicode="&#x1ef3;" horiz-adv-x="527" 
d="M100 435l154 -384q8 -21 23 -21h4q60 117 107.5 231.5t47.5 155.5q0 26 -24 26h-40q-2 6 -2 11q0 16 38 16q59 0 59 -50q0 -69 -91.5 -266t-145.5 -273q-34 -47 -66 -64t-73 -17q-59 0 -59 22q0 10 4 14h60q20 0 34 3t35.5 18t41.5 44q27 39 58 99q-23 0 -35 29l-157 397
q-7 17 -22 17h-39q-2 6 -2 11q0 16 39 16q22 0 32.5 -8t18.5 -27zM317 577q-5 -17 -21 -17q-9 0 -35 19t-59 44t-54 35q0 19 23 19q13 0 40 -19t59.5 -45.5t46.5 -35.5z" />
    <glyph glyph-name="endash" unicode="&#x2013;" horiz-adv-x="540" 
d="M464 252h-401q-3 12 -3 16q0 16 16 16h401q3 -5 3 -15q0 -17 -16 -17z" />
    <glyph glyph-name="emdash" unicode="&#x2014;" horiz-adv-x="698" 
d="M623 252h-560q-3 12 -3 15q0 17 21 17h554q3 -3 3 -15q0 -17 -15 -17z" />
    <glyph glyph-name="quoteleft" unicode="&#x2018;" horiz-adv-x="140" 
d="M69 622q12 0 21.5 -7.5t9.5 -20.5q0 -29 -29 -29q-31 0 -31 47q0 36 10 62t24 26q12 0 16 -9q-21 -28 -21 -69z" />
    <glyph glyph-name="quoteright" unicode="&#x2019;" horiz-adv-x="140" 
d="M71 643q-12 0 -21.5 7.5t-9.5 20.5q0 29 29 29q31 0 31 -47q0 -36 -10 -62t-24 -26q-12 0 -16 9q21 28 21 69z" />
    <glyph glyph-name="quotesinglbase" unicode="&#x201a;" horiz-adv-x="140" 
d="M71 0q-12 0 -21.5 7.5t-9.5 20.5q0 29 29 29q31 0 31 -47q0 -36 -10 -62t-24 -26q-12 0 -16 9q21 28 21 69z" />
    <glyph glyph-name="quotedblleft" unicode="&#x201c;" horiz-adv-x="226" 
d="M69 622q12 0 21.5 -7.5t9.5 -20.5q0 -29 -29 -29q-31 0 -31 47q0 36 10 62t24 26q12 0 16 -9q-21 -28 -21 -69zM155 622q12 0 21.5 -7.5t9.5 -20.5q0 -29 -29 -29q-31 0 -31 47q0 36 10 62t24 26q12 0 16 -9q-21 -28 -21 -69z" />
    <glyph glyph-name="quotedblright" unicode="&#x201d;" horiz-adv-x="226" 
d="M71 643q-12 0 -21.5 7.5t-9.5 20.5q0 29 29 29q31 0 31 -47q0 -36 -10 -62t-24 -26q-12 0 -16 9q21 28 21 69zM157 643q-12 0 -21.5 7.5t-9.5 20.5q0 29 29 29q31 0 31 -47q0 -36 -10 -62t-24 -26q-12 0 -16 9q21 28 21 69z" />
    <glyph glyph-name="quotedblbase" unicode="&#x201e;" horiz-adv-x="226" 
d="M71 0q-12 0 -21.5 7.5t-9.5 20.5q0 29 29 29q31 0 31 -47q0 -36 -10 -62t-24 -26q-12 0 -16 9q21 28 21 69zM157 0q-12 0 -21.5 7.5t-9.5 20.5q0 29 29 29q31 0 31 -47q0 -36 -10 -62t-24 -26q-12 0 -16 9q21 28 21 69z" />
    <glyph glyph-name="dagger" unicode="&#x2020;" horiz-adv-x="500" 
d="M444 456h-401q-3 12 -3 16q0 16 16 16h401q3 -5 3 -15q0 -17 -16 -17zM253 712q13 0 13 -12v-817q-6 -3 -18 -3q-14 0 -14 17v810q7 5 19 5z" />
    <glyph glyph-name="daggerdbl" unicode="&#x2021;" horiz-adv-x="500" 
d="M253 712q13 0 13 -12v-817q-6 -3 -18 -3q-14 0 -14 17v810q7 5 19 5zM444 456h-401q-3 12 -3 16q0 16 16 16h401q3 -5 3 -15q0 -17 -16 -17zM444 93h-401q-3 12 -3 16q0 16 16 16h401q3 -4 3 -15q0 -17 -16 -17z" />
    <glyph glyph-name="bullet" unicode="&#x2022;" horiz-adv-x="234" 
d="M60 260q0 58 56 58q58 0 58 -58q0 -56 -58 -56q-56 0 -56 56z" />
    <glyph glyph-name="ellipsis" unicode="&#x2026;" horiz-adv-x="411" 
d="M40 28q0 29 28 29q29 0 29 -29q0 -28 -29 -28q-28 0 -28 28zM177 28q0 29 28 29q29 0 29 -29q0 -28 -29 -28q-28 0 -28 28zM314 28q0 29 28 29q29 0 29 -29q0 -28 -29 -28q-28 0 -28 28z" />
    <glyph glyph-name="perthousand" unicode="&#x2030;" horiz-adv-x="1172" 
d="M540 700q18 0 14 -15l-255 -684q-6 -3 -19 -3q-16 0 -8 19l253 680q6 3 15 3zM487 206q0 102 41 155.5t109 53.5t106 -52.5t38 -156.5q0 -208 -147 -208t-147 208zM516 205q0 -179 118 -179t118 179q0 89 -30 135t-85 46t-88 -46.5t-33 -134.5zM840 206q0 102 41 155.5
t109 53.5t106 -52.5t38 -156.5q0 -208 -147 -208t-147 208zM869 205q0 -179 118 -179t118 179q0 89 -30 135t-85 46t-88 -46.5t-33 -134.5zM40 491q0 102 41 155.5t109 53.5t106 -52.5t38 -156.5q0 -208 -147 -208t-147 208zM69 490q0 -179 118 -179t118 179q0 89 -30 135
t-85 46t-88 -46.5t-33 -134.5z" />
    <glyph glyph-name="guilsinglleft" unicode="&#x2039;" horiz-adv-x="301" 
d="M56 256l173 191q3 2 10 2q4 0 8 -4.5t4 -8.5q0 -7 -7 -14l-161 -179l165 -183q2 -6 2 -10t-3.5 -7.5t-7.5 -3.5q-7 0 -14 7l-171 183q-4 5 -4 12q0 9 6 15z" />
    <glyph glyph-name="guilsinglright" unicode="&#x203a;" horiz-adv-x="301" 
d="M245 232l-173 -191q-3 -2 -10 -2q-4 0 -8 4.5t-4 8.5q0 7 7 14l161 179l-165 183q-2 6 -2 10t3.5 7.5t7.5 3.5q7 0 14 -7l171 -183q4 -5 4 -12q0 -9 -6 -15z" />
    <glyph glyph-name="fraction" unicode="&#x2044;" horiz-adv-x="154" 
d="M204 700q18 0 14 -15l-255 -684q-6 -3 -19 -3q-16 0 -8 19l253 680q6 3 15 3z" />
    <glyph glyph-name="uni2070" unicode="&#x2070;" horiz-adv-x="374" 
d="M40 491q0 102 41 155.5t109 53.5t106 -52.5t38 -156.5q0 -208 -147 -208t-147 208zM69 490q0 -179 118 -179t118 179q0 89 -30 135t-85 46t-88 -46.5t-33 -134.5z" />
    <glyph glyph-name="uni2074" unicode="&#x2074;" horiz-adv-x="365" 
d="M260 570q13 0 13 -12v-157h60q3 -3 3 -13q0 -13 -11 -13h-52l1 -87q-6 -3 -17 -3q-13 0 -13 13v77h-213q-3 5 -3 11q0 8 3 14l98 296q5 3 15 3q17 0 11 -15l-94 -283h183v165q8 4 16 4z" />
    <glyph glyph-name="uni2075" unicode="&#x2075;" horiz-adv-x="338" 
d="M281 669h-198l-7 -156q44 18 93 18q145 0 145 -124q0 -57 -37.5 -92.5t-113.5 -35.5q-69 0 -100.5 30t-31.5 61q0 18 18 18q3 -32 30 -57.5t83 -25.5q63 0 93 28.5t30 75.5q0 48 -32.5 72t-88.5 24q-29 0 -63 -8.5t-40 -8.5q-13 0 -13 15l6 191q7 4 19 4h221q3 -3 3 -13
q0 -16 -16 -16z" />
    <glyph glyph-name="uni2076" unicode="&#x2076;" horiz-adv-x="354" 
d="M40 478q0 222 154 222q50 0 81.5 -17t31.5 -33q0 -10 -10 -17q-43 39 -103 39q-117 0 -124 -174q52 27 116 27q138 0 138 -121q0 -55 -32.5 -90t-99.5 -35q-152 0 -152 199zM185 499q-66 0 -115 -29q1 -85 30 -125t91 -40q55 0 80 27.5t25 72.5q0 47 -30.5 70.5
t-80.5 23.5z" />
    <glyph glyph-name="uni2077" unicode="&#x2077;" horiz-adv-x="300" 
d="M126 285q-18 0 -12 15l136 369h-241q-4 6 -4 16q0 14 17 14h261q2 -6 2 -10q0 -7 -4 -19l-140 -382q-5 -3 -15 -3z" />
    <glyph glyph-name="uni2078" unicode="&#x2078;" horiz-adv-x="344" 
d="M32 396q0 80 78 107q-62 29 -62 98q0 46 32.5 72.5t89.5 26.5q61 0 94 -27t33 -75q0 -35 -19.5 -62.5t-49.5 -40.5q84 -29 84 -101q0 -52 -35 -83.5t-108 -31.5q-69 0 -103 31.5t-34 85.5zM177 484l-29 6q-38 -6 -63 -29.5t-25 -65.5q0 -39 27.5 -64.5t81.5 -25.5
q115 0 115 87q0 71 -107 92zM75 601q0 -45 29.5 -64.5t83.5 -30.5q1 -1 4 -1q35 8 56.5 33t21.5 60q0 36 -25.5 56.5t-71.5 20.5q-44 0 -71 -20.5t-27 -53.5z" />
    <glyph glyph-name="uni2079" unicode="&#x2079;" horiz-adv-x="351" 
d="M311 485q0 -104 -36 -155t-116 -51q-53 0 -90 18.5t-37 34.5q0 9 9 16q46 -42 116 -42q66 0 94.5 40.5t30.5 130.5q-51 -31 -126 -31q-55 0 -91.5 29t-36.5 87q0 63 34.5 100.5t104.5 37.5q77 0 110.5 -48.5t33.5 -166.5zM158 471q75 0 124 36q-2 90 -28 128t-85 38
q-58 0 -85 -30t-27 -80q0 -43 29 -67.5t72 -24.5z" />
    <glyph glyph-name="nsuperior" unicode="&#x207f;" horiz-adv-x="328" 
d="M59 588q36 0 36 -33v-19q45 57 100 57q35 0 55 -21t20 -62v-124q0 -13 10 -13h22q2 -6 2 -9q0 -14 -33 -14q-30 0 -30 31v123q0 61 -53 61q-52 0 -93 -60v-151q-5 -4 -16 -4q-14 0 -14 15v182q0 14 -13 14h-21q-2 8 -2 13q0 14 30 14z" />
    <glyph glyph-name="uni2080" unicode="&#x2080;" horiz-adv-x="374" 
d="M40 76q0 102 41 155.5t109 53.5t106 -52.5t38 -156.5q0 -208 -147 -208t-147 208zM69 75q0 -179 118 -179t118 179q0 89 -30 135t-85 46t-88 -46.5t-33 -134.5z" />
    <glyph glyph-name="uni2081" unicode="&#x2081;" horiz-adv-x="293" 
d="M252 -130h-201q-4 8 -4 14q0 15 21 15h78v340q-20 -19 -49 -29.5t-52 -10.5q-13 0 -13 15q0 7 4 11q87 8 110 58q6 3 15 3q15 0 15 -14v-373h89q4 -4 4 -13q0 -16 -17 -16z" />
    <glyph glyph-name="uni2082" unicode="&#x2082;" horiz-adv-x="333" 
d="M23 217q0 20 36 43.5t90 23.5q66 0 103 -30.5t37 -84.5q0 -44 -24.5 -88.5t-64 -80.5t-70.5 -58.5t-63 -41.5v-3l242 2q3 -7 3 -15q0 -14 -14 -14h-274q-3 8 -3 17q0 11 8 18q29 19 37.5 25t40.5 28.5t46 35.5t39 37t36.5 43t21.5 44t10 48q0 43 -30 66.5t-79 23.5
q-39 0 -71.5 -17t-39.5 -39q-17 3 -17 17z" />
    <glyph glyph-name="uni2083" unicode="&#x2083;" horiz-adv-x="332" 
d="M257 174q0 36 -28 58.5t-78 22.5q-40 0 -68.5 -15t-33.5 -37q-17 2 -17 16q0 21 31.5 43t89.5 22q62 0 97.5 -30.5t35.5 -77.5q0 -33 -19.5 -60t-50.5 -34v-1q35 -6 59 -31t24 -68q0 -51 -36.5 -82.5t-110.5 -31.5q-68 0 -98.5 27t-30.5 55q0 18 18 18q4 -29 30 -51
t80 -22q61 0 90 25t29 65q0 37 -27 58.5t-70 21.5h-20q-10 0 -10 13q0 5 3 14q57 0 84.5 22.5t26.5 59.5z" />
    <glyph glyph-name="uni2084" unicode="&#x2084;" horiz-adv-x="365" 
d="M260 155q13 0 13 -12v-157h60q3 -3 3 -13q0 -13 -11 -13h-52l1 -87q-6 -3 -17 -3q-13 0 -13 13v77h-213q-3 4 -3 11q0 8 3 14l98 296q5 3 15 3q17 0 11 -15l-94 -283h183v165q8 4 16 4z" />
    <glyph glyph-name="uni2085" unicode="&#x2085;" horiz-adv-x="338" 
d="M281 254h-198l-7 -156q44 18 93 18q145 0 145 -124q0 -57 -37.5 -92.5t-113.5 -35.5q-69 0 -100.5 30t-31.5 61q0 18 18 18q3 -32 30 -57.5t83 -25.5q63 0 93 28.5t30 75.5q0 48 -32.5 72t-88.5 24q-29 0 -63 -8.5t-40 -8.5q-13 0 -13 15l6 191q7 4 19 4h221q3 -3 3 -13
q0 -16 -16 -16z" />
    <glyph glyph-name="uni2086" unicode="&#x2086;" horiz-adv-x="354" 
d="M40 63q0 222 154 222q50 0 81.5 -17t31.5 -33q0 -10 -10 -17q-43 39 -103 39q-117 0 -124 -174q52 27 116 27q138 0 138 -121q0 -55 -32.5 -90t-99.5 -35q-152 0 -152 199zM185 84q-66 0 -115 -29q1 -85 30 -125t91 -40q55 0 80 27.5t25 72.5q0 47 -30.5 70.5t-80.5 23.5
z" />
    <glyph glyph-name="uni2087" unicode="&#x2087;" horiz-adv-x="300" 
d="M126 -130q-18 0 -12 15l136 369h-241q-4 6 -4 16q0 14 17 14h261q2 -6 2 -10q0 -7 -4 -19l-140 -382q-5 -3 -15 -3z" />
    <glyph glyph-name="uni2088" unicode="&#x2088;" horiz-adv-x="344" 
d="M32 -19q0 80 78 107q-62 29 -62 98q0 46 32.5 72.5t89.5 26.5q61 0 94 -27t33 -75q0 -35 -19.5 -62.5t-49.5 -40.5q84 -29 84 -101q0 -52 -35 -83.5t-108 -31.5q-69 0 -103 31.5t-34 85.5zM177 69l-29 6q-38 -6 -63 -29.5t-25 -65.5q0 -39 27.5 -64.5t81.5 -25.5
q115 0 115 87q0 71 -107 92zM75 186q0 -45 29.5 -64.5t83.5 -30.5q1 -1 4 -1q35 8 56.5 33t21.5 60q0 36 -25.5 56.5t-71.5 20.5q-44 0 -71 -20.5t-27 -53.5z" />
    <glyph glyph-name="uni2089" unicode="&#x2089;" horiz-adv-x="351" 
d="M311 70q0 -104 -36 -155t-116 -51q-53 0 -90 18.5t-37 34.5q0 9 9 16q46 -42 116 -42q66 0 94.5 40.5t30.5 130.5q-51 -31 -126 -31q-55 0 -91.5 29t-36.5 87q0 63 34.5 100.5t104.5 37.5q77 0 110.5 -48.5t33.5 -166.5zM158 56q75 0 124 36q-2 90 -28 128t-85 38
q-58 0 -85 -30t-27 -80q0 -43 29 -67.5t72 -24.5z" />
    <glyph glyph-name="Euro" unicode="&#x20ac;" horiz-adv-x="670" 
d="M410 272h-261q27 -243 254 -243q69 0 125.5 25t74.5 57q4 2 9 2q3 0 9 -3q11 -9 -1 -24q-73 -88 -217 -88q-254 0 -285 274h-86l-2 4q-2 2 -2 9q0 19 27 19h60q-1 15 -1 47q0 17 2 51h-84l-2 4q-2 3 -2 9q0 19 27 19h64q17 134 91.5 202.5t196.5 68.5q123 0 187 -45
q22 -15 11 -26q-7 -7 -16 -7q-55 47 -182 47q-107 0 -173 -61t-83 -179h318q4 -3 4 -15q0 -17 -40 -17h-286q-2 -17 -2 -51q0 -32 1 -47h300q4 -3 4 -15q0 -17 -40 -17z" />
    <glyph glyph-name="trademark" unicode="&#x2122;" horiz-adv-x="714" 
d="M522 372q-15 0 -21 17l-117 258l-19 -283q-1 -12 -15 -12q-12 0 -16 3l20 284q0 4 0.5 15.5t1 17.5t3 14t7.5 12t13 4q10 0 16 -3l128 -285l96 232q1 4 5 14t6.5 15.5t6.5 12.5t9 10.5t11 3.5q10 0 20 -5l37 -341q-5 -4 -16 -4q-15 0 -16 12l-28 284l-110 -259
q-7 -17 -22 -17zM290 671h-119v-316q-6 -3 -18 -3q-4 0 -6.5 1.5t-4 4t-2.5 5.5t-1 7.5v7.5v8.5v8.5v276h-131l-3 7q-1 3 -1 9t2 9t8 4.5t10.5 1.5h15.5h8h254q4 -6 4 -14q0 -17 -16 -17z" />
    <glyph glyph-name="Omega" unicode="&#x2126;" horiz-adv-x="731" 
d="M271 28v2q-28 7 -53 20.5t-51 39t-44.5 60t-30.5 86.5t-12 115q0 175 77.5 267t214.5 92q131 0 205 -92t74 -267q0 -136 -53 -217.5t-127 -103.5v-2l191 4q4 -3 4 -15q0 -17 -24 -17h-244q-5 10 -5 26q0 25 17 25q94 0 152.5 76.5t58.5 223.5q0 158 -66 243t-183 85
q-126 0 -194 -85t-68 -243q0 -154 65 -227.5t158 -73.5q5 -10 5 -25q0 -10 -6 -17.5t-18 -7.5h-244q-5 10 -5 13q0 19 29 19z" />
    <glyph glyph-name="onethird" unicode="&#x2153;" horiz-adv-x="840" 
d="M523 700q19 0 14 -15l-255 -684q-6 -3 -19 -3q-16 0 -8 19l253 680q6 3 15 3zM252 285h-201q-4 8 -4 14q0 15 21 15h78v340q-20 -19 -49 -29.5t-52 -10.5q-13 0 -13 15q0 7 4 11q87 8 110 58q6 3 15 3q15 0 15 -14v-373h89q4 -4 4 -13q0 -16 -17 -16zM765 304
q0 36 -28 58.5t-78 22.5q-40 0 -68.5 -15t-33.5 -37q-17 2 -17 16q0 21 31.5 43t89.5 22q62 0 97.5 -30.5t35.5 -77.5q0 -33 -19.5 -60t-50.5 -34v-1q35 -6 59 -31t24 -68q0 -51 -36.5 -82.5t-110.5 -31.5q-68 0 -98.5 27t-30.5 55q0 18 18 18q4 -29 30 -51t80 -22
q61 0 90 25t29 65q0 37 -27 58.5t-70 21.5h-20q-10 0 -10 13q0 5 3 14q57 0 84.5 22.5t26.5 59.5z" />
    <glyph glyph-name="twothirds" unicode="&#x2154;" horiz-adv-x="885" 
d="M23 632q0 20 36 43.5t90 23.5q66 0 103 -30.5t37 -84.5q0 -44 -24.5 -88.5t-64 -80.5t-70.5 -58.5t-63 -41.5v-3l242 2q3 -7 3 -15q0 -14 -14 -14h-274q-3 7 -3 17q0 11 8 18q29 19 37.5 25t40.5 28.5t46 35.5t39 37t36.5 43t21.5 44t10 48q0 43 -30 66.5t-79 23.5
q-39 0 -71.5 -17t-39.5 -39q-17 3 -17 17zM810 304q0 36 -28 58.5t-78 22.5q-40 0 -68.5 -15t-33.5 -37q-17 2 -17 16q0 21 31.5 43t89.5 22q62 0 97.5 -30.5t35.5 -77.5q0 -33 -19.5 -60t-50.5 -34v-1q35 -6 59 -31t24 -68q0 -51 -36.5 -82.5t-110.5 -31.5q-68 0 -98.5 27
t-30.5 55q0 18 18 18q4 -29 30 -51t80 -22q61 0 90 25t29 65q0 37 -27 58.5t-70 21.5h-20q-10 0 -10 13q0 5 3 14q57 0 84.5 22.5t26.5 59.5zM568 700q18 0 14 -15l-255 -684q-6 -3 -19 -3q-16 0 -8 19l253 680q6 3 15 3z" />
    <glyph glyph-name="oneeighth" unicode="&#x215b;" horiz-adv-x="844" 
d="M523 700q19 0 14 -15l-255 -684q-6 -3 -19 -3q-16 0 -8 19l253 680q6 3 15 3zM252 285h-201q-4 8 -4 14q0 15 21 15h78v340q-20 -19 -49 -29.5t-52 -10.5q-13 0 -13 15q0 7 4 11q87 8 110 58q6 3 15 3q15 0 15 -14v-373h89q4 -4 4 -13q0 -16 -17 -16zM532 111
q0 80 78 107q-62 29 -62 98q0 46 32.5 72.5t89.5 26.5q61 0 94 -27t33 -75q0 -35 -19.5 -62.5t-49.5 -40.5q84 -29 84 -101q0 -52 -35 -83.5t-108 -31.5q-69 0 -103 31.5t-34 85.5zM677 199l-29 6q-38 -6 -63 -29.5t-25 -65.5q0 -39 27.5 -64.5t81.5 -25.5q115 0 115 87
q0 71 -107 92zM575 316q0 -45 29.5 -64.5t83.5 -30.5q1 -1 4 -1q35 8 56.5 33t21.5 60q0 36 -25.5 56.5t-71.5 20.5q-44 0 -71 -20.5t-27 -53.5z" />
    <glyph glyph-name="threeeighths" unicode="&#x215c;" horiz-adv-x="891" 
d="M257 589q0 36 -28 58.5t-78 22.5q-40 0 -68.5 -15t-33.5 -37q-17 2 -17 16q0 21 31.5 43t89.5 22q62 0 97.5 -30.5t35.5 -77.5q0 -33 -19.5 -60t-50.5 -34v-1q35 -6 59 -31t24 -68q0 -51 -36.5 -82.5t-110.5 -31.5q-68 0 -98.5 27t-30.5 55q0 18 18 18q4 -29 30 -51
t80 -22q61 0 90 25t29 65q0 37 -27 58.5t-70 21.5h-20q-10 0 -10 13q0 5 3 14q57 0 84.5 22.5t26.5 59.5zM579 111q0 80 78 107q-62 29 -62 98q0 46 32.5 72.5t89.5 26.5q61 0 94 -27t33 -75q0 -35 -19.5 -62.5t-49.5 -40.5q84 -29 84 -101q0 -52 -35 -83.5t-108 -31.5
q-69 0 -103 31.5t-34 85.5zM724 199l-29 6q-38 -6 -63 -29.5t-25 -65.5q0 -39 27.5 -64.5t81.5 -25.5q115 0 115 87q0 71 -107 92zM622 316q0 -45 29.5 -64.5t83.5 -30.5q1 -1 4 -1q35 8 56.5 33t21.5 60q0 36 -25.5 56.5t-71.5 20.5q-44 0 -71 -20.5t-27 -53.5zM570 700
q18 0 14 -15l-255 -684q-6 -3 -19 -3q-16 0 -8 19l253 680q6 3 15 3z" />
    <glyph glyph-name="fiveeighths" unicode="&#x215d;" horiz-adv-x="884" 
d="M563 700q19 0 14 -15l-255 -684q-6 -3 -19 -3q-16 0 -8 19l253 680q6 3 15 3zM281 669h-198l-7 -156q44 18 93 18q145 0 145 -124q0 -57 -37.5 -92.5t-113.5 -35.5q-69 0 -100.5 30t-31.5 61q0 18 18 18q3 -32 30 -57.5t83 -25.5q63 0 93 28.5t30 75.5q0 48 -32.5 72
t-88.5 24q-29 0 -63 -8.5t-40 -8.5q-13 0 -13 15l6 191q7 4 19 4h221q3 -3 3 -13q0 -16 -16 -16zM572 111q0 80 78 107q-62 29 -62 98q0 46 32.5 72.5t89.5 26.5q61 0 94 -27t33 -75q0 -35 -19.5 -62.5t-49.5 -40.5q84 -29 84 -101q0 -52 -35 -83.5t-108 -31.5
q-69 0 -103 31.5t-34 85.5zM717 199l-29 6q-38 -6 -63 -29.5t-25 -65.5q0 -39 27.5 -64.5t81.5 -25.5q115 0 115 87q0 71 -107 92zM615 316q0 -45 29.5 -64.5t83.5 -30.5q1 -1 4 -1q35 8 56.5 33t21.5 60q0 36 -25.5 56.5t-71.5 20.5q-44 0 -71 -20.5t-27 -53.5z" />
    <glyph glyph-name="seveneighths" unicode="&#x215e;" horiz-adv-x="820" 
d="M499 700q19 0 14 -15l-255 -684q-6 -3 -19 -3q-16 0 -8 19l253 680q6 3 15 3zM126 285q-18 0 -12 15l136 369h-241q-4 6 -4 16q0 14 17 14h261q2 -6 2 -10q0 -7 -4 -19l-140 -382q-5 -3 -15 -3zM508 111q0 80 78 107q-62 29 -62 98q0 46 32.5 72.5t89.5 26.5q61 0 94 -27
t33 -75q0 -35 -19.5 -62.5t-49.5 -40.5q84 -29 84 -101q0 -52 -35 -83.5t-108 -31.5q-69 0 -103 31.5t-34 85.5zM653 199l-29 6q-38 -6 -63 -29.5t-25 -65.5q0 -39 27.5 -64.5t81.5 -25.5q115 0 115 87q0 71 -107 92zM551 316q0 -45 29.5 -64.5t83.5 -30.5q1 -1 4 -1
q35 8 56.5 33t21.5 60q0 36 -25.5 56.5t-71.5 20.5q-44 0 -71 -20.5t-27 -53.5z" />
    <glyph glyph-name="partialdiff" unicode="&#x2202;" horiz-adv-x="563" 
d="M493 409q0 -187 -69.5 -303t-180.5 -116q-80 0 -126.5 52t-46.5 163q0 134 63 204.5t168 70.5q109 0 160 -55q-4 332 -173 332q-90 0 -151 -35q-12 5 -12 13q0 11 11 16q65 34 155 34q59 0 100.5 -32.5t62.5 -89.5t30 -118.5t9 -135.5zM300 449q-92 0 -145.5 -62.5
t-53.5 -180.5q0 -185 145 -185q93 0 151.5 101.5t63.5 260.5q-51 66 -161 66z" />
    <glyph glyph-name="Delta" unicode="&#x2206;" horiz-adv-x="632" 
d="M51 0q-11 0 -16 5l279 674q8 21 24 21q7 0 13.5 -5.5t12 -17t9.5 -21t9.5 -25.5t7.5 -22l232 -599q-2 -10 -14 -10h-557zM339 657l-263 -628h508z" />
    <glyph glyph-name="product" unicode="&#x220f;" horiz-adv-x="766" 
d="M712 668h-100v-872q-6 -6 -16 -6q-16 0 -16 17v861h-393v-872q-6 -6 -16 -6q-16 0 -16 17v861h-120q-5 10 -5 13q0 19 29 19h673q4 -3 4 -15q0 -17 -24 -17z" />
    <glyph glyph-name="summation" unicode="&#x2211;" horiz-adv-x="715" 
d="M642 -209h-585q-5 7 -5 16q0 8 3 11l321 432l-311 418l-2 4q-2 3 -2 9q0 19 26 19h546q4 -3 4 -15q0 -17 -39 -17h-498l310 -412q0 -7 -5 -14l-306 -418h578q4 -3 4 -15q0 -18 -39 -18z" />
    <glyph glyph-name="minus" unicode="&#x2212;" horiz-adv-x="540" 
d="M464 252h-401q-3 12 -3 16q0 16 16 16h401q3 -5 3 -15q0 -17 -16 -17z" />
    <glyph glyph-name="radical" unicode="&#x221a;" horiz-adv-x="565" 
d="M41 349h131l128 -325l206 667q3 9 14 9q9 0 15 -6l-215 -689q-8 -5 -19 -5q-19 0 -25 17l-124 308h-102q-13 0 -13 11q0 5 4 13z" />
    <glyph glyph-name="infinity" unicode="&#x221e;" horiz-adv-x="674" 
d="M492 104q-57 0 -96 38.5t-60 96.5q-25 -59 -63.5 -97t-87.5 -38q-64 0 -99.5 44.5t-35.5 123.5q0 81 35.5 126t98.5 45q50 0 91 -37t62 -92q51 129 155 129q63 0 97.5 -44.5t34.5 -126.5q0 -78 -35.5 -123t-96.5 -45zM185 133q47 0 83 41.5t56 102.5q-17 60 -54.5 97.5
t-85.5 37.5q-50 0 -78 -36t-28 -103q0 -64 29 -102t78 -38zM491 412q-52 0 -84.5 -34t-56.5 -100q18 -59 54 -102t88 -43q49 0 76.5 38t27.5 101q0 69 -27.5 104.5t-77.5 35.5z" />
    <glyph glyph-name="integral" unicode="&#x222b;" horiz-adv-x="357" 
d="M156 726q0 -122 30.5 -385.5t30.5 -387.5q0 -90 -34 -121.5t-99 -31.5q-74 0 -74 21q0 7 3 11h87q41 0 63.5 24.5t22.5 95.5q0 122 -30.5 389.5t-30.5 395.5q0 76 34.5 107t97.5 31q90 0 90 -18q0 -9 -3 -14h-91q-46 0 -71.5 -25t-25.5 -92z" />
    <glyph glyph-name="approxequal" unicode="&#x2248;" horiz-adv-x="536" 
d="M164 209q33 0 107.5 -17.5t104.5 -17.5q52 0 83 26q13 -6 13 -21t-23 -27t-63 -12q-35 0 -115.5 17t-103.5 17q-24 0 -49.5 -11t-30.5 -20q-6 3 -7.5 4t-5 4t-4.5 6t-1 7q0 12 29.5 28.5t65.5 16.5zM164 381q33 0 107.5 -17.5t104.5 -17.5q52 0 83 26q13 -6 13 -21
t-23 -27t-63 -12q-35 0 -115.5 17t-103.5 17q-24 0 -49.5 -11t-30.5 -20q-6 3 -7.5 4t-5 4t-4.5 6t-1 7q0 12 29.5 28.5t65.5 16.5z" />
    <glyph glyph-name="notequal" unicode="&#x2260;" horiz-adv-x="540" 
d="M371 547q19 0 14 -15l-211 -563q-6 -3 -19 -3q-16 0 -8 19l209 559q6 3 15 3zM464 158h-401q-3 12 -3 16q0 16 16 16h401q3 -5 3 -15q0 -17 -16 -17zM464 331h-401q-3 12 -3 16q0 16 16 16h401q3 -5 3 -15q0 -17 -16 -17z" />
    <glyph glyph-name="lessequal" unicode="&#x2264;" horiz-adv-x="363" 
d="M54 290l229 208q3 2 9 2q4 0 8.5 -4.5t4.5 -8.5q0 -5 -6 -11l-219 -198l220 -195q4 -4 4 -10q0 -3 -4 -8t-8 -5q-6 0 -14 6l-226 200q-4 5 -4 11q0 8 6 13zM301 0h-256q-4 8 -4 13q0 16 20 16h257q4 -3 4 -14q0 -15 -21 -15z" />
    <glyph glyph-name="greaterequal" unicode="&#x2265;" horiz-adv-x="363" 
d="M299 270l-229 -208q-3 -2 -9 -2q-3 0 -8 4.5t-5 8.5q0 5 7 11l218 198l-220 195q-4 4 -4 10q0 3 4.5 8t7.5 5q7 0 14 -6l226 -200q4 -5 4 -11q0 -8 -6 -13zM301 0h-256q-4 8 -4 13q0 16 20 16h257q4 -3 4 -14q0 -15 -21 -15z" />
    <glyph glyph-name="lozenge" unicode="&#x25ca;" horiz-adv-x="374" 
d="M344 344l-136 -316q-11 -28 -30 -28q-6 0 -10 2l-138 354l136 316q11 28 30 28q6 0 10 -2zM59 357l126 -316l129 301l-125 317z" />
    <glyph glyph-name="asuperior" unicode="&#xf6e9;" horiz-adv-x="292" 
d="M54 547q-7 3 -7 12q0 15 30 24.5t64 9.5q38 0 65 -15.5t27 -51.5v-136q0 -18 16 -18h16q3 -3 3 -11q0 -11 -28 -11q-33 0 -33 33v11q-54 -49 -114 -49q-33 0 -50.5 20t-17.5 52q0 61 72 65l110 7v31q0 47 -66 47q-60 0 -87 -20zM96 370q61 0 111 48v48l-110 -8
q-46 -4 -46 -41q0 -20 12 -33.5t33 -13.5z" />
    <glyph glyph-name="bsuperior" unicode="&#xf6ea;" horiz-adv-x="298" 
d="M71 689v-131q35 35 84 35q46 0 75 -29.5t29 -85.5q0 -68 -31.5 -100.5t-84.5 -32.5q-51 0 -85 22q-14 8 -14 19v310q6 4 14 4q13 0 13 -11zM151 565q-48 0 -80 -37v-136q29 -21 72 -21q89 0 89 104q0 44 -22.5 67t-58.5 23z" />
    <glyph glyph-name="dsuperior" unicode="&#xf6eb;" horiz-adv-x="317" 
d="M263 350q-33 0 -38 26q-34 -31 -80 -31q-47 0 -76.5 30.5t-29.5 94.5q0 62 33 92.5t77 30.5q47 0 75 -28v123q0 12 12 12q9 0 15 -4v-306q0 -17 18 -17h17q3 -5 3 -10q0 -13 -26 -13zM146 371q46 0 78 30v133q-27 31 -72 31q-34 0 -60 -23.5t-26 -71.5q0 -49 22.5 -74
t57.5 -25z" />
    <glyph glyph-name="esuperior" unicode="&#xf6ec;" horiz-adv-x="284" 
d="M249 470h-183v-3q0 -45 25 -70.5t65 -25.5q52 0 85 24q9 -4 9 -12t-8 -14q-29 -24 -88 -24q-51 0 -83 33.5t-32 88.5q0 60 34 93t82 33t72.5 -28t24.5 -73q0 -13 -3 -22zM155 567q-32 0 -56.5 -19t-30.5 -56h158q0 75 -71 75z" />
    <glyph glyph-name="isuperior" unicode="&#xf6ed;" horiz-adv-x="161" 
d="M65 588q16 0 23.5 -7t7.5 -26v-168q0 -12 12 -12h15q2 -4 2 -10q0 -15 -28 -15q-29 0 -29 28v169q0 14 -13 14h-15q-3 3 -3 12q0 15 28 15zM58 658q0 21 20 21t20 -21q0 -20 -20 -20t-20 20z" />
    <glyph glyph-name="lsuperior" unicode="&#xf6ee;" horiz-adv-x="173" 
d="M76 688v-271q0 -24 9 -32.5t32 -8.5h40q1 -3 1 -9q0 -17 -49 -17q-61 0 -61 59v287q5 4 14 4q14 0 14 -12z" />
    <glyph glyph-name="msuperior" unicode="&#xf6ef;" horiz-adv-x="490" 
d="M60 588q35 0 35 -33v-17q39 55 93 55q58 0 69 -57q43 57 100 57q35 0 55 -21t20 -62v-124q0 -13 10 -13h22q2 -3 2 -9q0 -14 -33 -14q-30 0 -30 31v123q0 60 -52 60q-53 0 -92 -58v-120q0 -13 10 -13h19q2 -6 2 -10q0 -13 -31 -13q-29 0 -29 31v125q0 58 -49 58
q-47 0 -86 -55v-155q-5 -4 -16 -4q-14 0 -14 15v182q0 14 -13 14h-21q-2 8 -2 13q0 14 31 14z" />
    <glyph glyph-name="osuperior" unicode="&#xf6f0;" horiz-adv-x="307" 
d="M39 469q0 61 31.5 92.5t85.5 31.5q53 0 82.5 -31t29.5 -93q0 -124 -115 -124q-114 0 -114 124zM67 469q0 -97 86 -97t86 97q0 98 -83 98q-41 0 -65 -25.5t-24 -72.5z" />
    <glyph glyph-name="rsuperior" unicode="&#xf6f1;" horiz-adv-x="229" 
d="M55 588q34 0 34 -36v-14q40 55 86 55q43 0 43 -38q0 -18 -15 -18q-7 0 -12 5q0 21 -25 21q-20 0 -41 -15t-36 -40v-154q-4 -4 -16 -4q-14 0 -14 14v181q0 16 -12 16h-21q-2 8 -2 12q0 15 31 15z" />
    <glyph glyph-name="ssuperior" unicode="&#xf6f2;" horiz-adv-x="266" 
d="M130 593q41 0 67 -11t26 -24q0 -11 -11 -15q-19 21 -83 21q-63 0 -63 -37q0 -17 17.5 -26.5t57.5 -16.5q48 -8 69.5 -25t21.5 -47q0 -67 -99 -67q-40 0 -70 12t-30 24t8 16q13 -9 39.5 -17.5t50.5 -8.5q74 0 74 41q0 19 -16 29.5t-55 16.5q-51 9 -73 24.5t-22 46.5
q0 28 24 46t67 18z" />
    <glyph glyph-name="tsuperior" unicode="&#xf6f3;" horiz-adv-x="200" 
d="M161 563h-70v-147q0 -23 8 -31.5t26 -8.5h52q2 -6 2 -8q0 -18 -59 -18q-28 0 -43 13t-15 46v154h-30q-3 5 -3 11q0 14 14 14h19v69q6 4 15 4q14 0 14 -14v-59h85q2 -1 2 -10q0 -15 -17 -15z" />
    <glyph glyph-name="exclam.sc" unicode="&#xf721;" horiz-adv-x="131" 
d="M65 560q17 0 17 -17v-440q-5 -5 -16 -5q-17 0 -17 18v440q8 4 16 4zM40 26q0 26 26 26q27 0 27 -26t-27 -26q-26 0 -26 26z" />
    <glyph glyph-name="dollar.osf" unicode="&#xf724;" horiz-adv-x="618" 
d="M320 809q17 0 17 -18v-82q63 -3 110 -22t70 -41q10 -10 10 -21q0 -6 -6 -11t-13 -5q-51 59 -171 66v-301q115 -37 166 -83.5t51 -122.5q0 -80 -55 -126t-162 -51v-91q-6 -6 -16 -6q-16 0 -16 17v79q-108 1 -188 46q-50 27 -50 48q0 15 11 19q32 -38 94 -59.5t133 -22.5
v330q-123 42 -169 82t-46 111t52 117t163 49v94q7 5 15 5zM526 168q0 61 -42 99.5t-147 73.5v-320q97 5 143 44t46 103zM119 543q0 -57 41.5 -91t144.5 -68v292q-99 -2 -142.5 -39t-43.5 -94z" />
    <glyph glyph-name="ampersand.sc" unicode="&#xf726;" horiz-adv-x="726" 
d="M612 322h-78q-2 -66 -30 -135t-76 -118q70 -36 144 -36h74q3 -6 3 -14q0 -6 -3.5 -9.5t-20.5 -6.5t-49 -3q-87 0 -172 47q-66 -55 -151 -55q-96 0 -147 45t-51 129q0 132 143 172q-4 27 -4 61q0 159 173 159q91 0 91 -26q0 -8 -2 -11h-86q-79 0 -111.5 -29t-32.5 -97
q0 -97 48.5 -180t126.5 -131q46 45 73.5 110.5t30.5 127.5h-132q-4 10 -4 14q0 19 26 19h235q4 -4 4 -15q0 -18 -22 -18zM378 64q-64 42 -110 106.5t-64 140.5q-53 -15 -85.5 -52t-32.5 -93q0 -68 44.5 -106t124.5 -38q66 0 123 42z" />
    <glyph glyph-name="question.sc" unicode="&#xf73f;" horiz-adv-x="436" 
d="M357 383q0 70 -43.5 103.5t-112.5 33.5q-57 0 -96 -21t-45 -51q-22 2 -22 18q0 27 43.5 56.5t121.5 29.5q80 0 132.5 -44t52.5 -123t-52 -121t-124 -48l3 -119q-10 -5 -18 -5q-12 0 -12 16l-3 118q0 11 4 16q75 2 123 36.5t48 104.5zM177 26q0 26 26 26q27 0 27 -26
t-27 -26q-26 0 -26 26z" />
    <glyph glyph-name="a.sc" unicode="&#xf761;" horiz-adv-x="555" 
d="M43 0q-11 0 -16 5l231 549q7 6 20 6q15 0 21 -16l229 -535q-3 -9 -15 -9q-14 0 -18 12l-60 138h-314l-60 -140q-4 -10 -18 -10zM277 514l-143 -334h288z" />
    <glyph glyph-name="b.sc" unicode="&#xf762;" horiz-adv-x="587" 
d="M126 560h191q77 0 118 -31.5t41 -105.5q0 -96 -80 -130q115 -30 115 -137q0 -80 -57 -118t-139 -38h-188q-17 0 -17 16v540q8 4 16 4zM296 275h-155v-245h165q172 0 172 127q0 118 -182 118zM306 532h-165v-228h166q138 4 138 118q0 62 -33.5 86t-105.5 24z" />
    <glyph glyph-name="c.sc" unicode="&#xf763;" horiz-adv-x="580" 
d="M511 102q6 1 12 -2.5t6 -10.5q0 -13 -10 -23q-62 -74 -197 -74q-116 0 -181 70.5t-65 218.5q0 140 65 213.5t179 73.5q137 0 193 -80q7 -10 7 -21q0 -5 -5.5 -9t-12.5 -3q-31 43 -73 61.5t-109 18.5q-100 0 -156 -66t-56 -189q0 -256 215 -256q123 0 188 78z" />
    <glyph glyph-name="d.sc" unicode="&#xf764;" horiz-adv-x="621" 
d="M126 560h114q159 0 232 -69.5t73 -214.5q0 -148 -69 -212t-207 -64h-142q-17 0 -17 16v540q8 4 16 4zM246 528h-103v-496h125q124 0 184.5 56t60.5 188q0 128 -63 190t-204 62z" />
    <glyph glyph-name="e.sc" unicode="&#xf765;" horiz-adv-x="577" 
d="M440 273h-297v-240h370q4 -4 4 -15q0 -18 -22 -18h-369q-16 0 -16 17v539q5 4 15 4h388q4 -4 4 -15q0 -18 -22 -18h-352v-221h314q4 -4 4 -16q0 -17 -21 -17z" />
    <glyph glyph-name="f.sc" unicode="&#xf766;" horiz-adv-x="568" 
d="M440 261h-297v-258q-6 -3 -17 -3q-16 0 -16 17v539q5 4 15 4h387q4 -3 4 -15q0 -18 -22 -18h-351v-233h314q4 -3 4 -15q0 -18 -21 -18z" />
    <glyph glyph-name="g.sc" unicode="&#xf767;" horiz-adv-x="635" 
d="M514 245h-172q-3 5 -3 15q0 16 27 16h148q16 0 22.5 -7t6.5 -25v-239q-6 -6 -16 -6q-13 0 -13 17v69q-78 -93 -191 -93q-105 0 -176 72.5t-71 216.5q0 137 71 212t179 75q57 0 105.5 -13.5t71.5 -29.5t23 -28q0 -7 -5.5 -12t-10.5 -3q-70 54 -183 54q-95 0 -157 -68
t-62 -188q0 -130 61.5 -193.5t155.5 -63.5q55 0 106 27.5t83 72.5v122z" />
    <glyph glyph-name="h.sc" unicode="&#xf768;" horiz-adv-x="653" 
d="M526 560q17 0 17 -17v-538q-7 -5 -16 -5q-17 0 -17 17v252h-367v-263q-6 -6 -17 -6q-16 0 -16 17v538q7 5 16 5q17 0 17 -17v-243h367v255q7 5 16 5z" />
    <glyph glyph-name="i.sc" unicode="&#xf769;" horiz-adv-x="253" 
d="M126 560q17 0 17 -17v-537q-6 -6 -17 -6q-16 0 -16 17v538q7 5 16 5z" />
    <glyph glyph-name="j.sc" unicode="&#xf76a;" horiz-adv-x="334" 
d="M208 560q16 0 16 -16v-447q0 -52 -26.5 -74.5t-78.5 -22.5q-92 0 -92 23q0 7 3 14h86q75 0 75 72v446q8 5 17 5z" />
    <glyph glyph-name="k.sc" unicode="&#xf76b;" horiz-adv-x="533" 
d="M127 560q16 0 16 -17v-277q80 54 146 133.5t104 158.5q8 2 14 2q11 0 11 -12q0 -10 -13 -34q-65 -118 -172 -215q26 -25 71 -95.5t85 -121t72 -50.5h18q3 -5 3 -13q0 -19 -32 -19q-28 0 -62 34t-61.5 76.5t-61.5 94t-56 74.5q-26 -23 -66 -50v-224q-5 -5 -19 -5t-14 16
v539q7 5 17 5z" />
    <glyph glyph-name="l.sc" unicode="&#xf76c;" horiz-adv-x="479" 
d="M128 560q15 0 15 -17v-510h305q4 -4 4 -15q0 -18 -23 -18h-303q-16 0 -16 17v539q5 4 18 4z" />
    <glyph glyph-name="m.sc" unicode="&#xf76d;" horiz-adv-x="790" 
d="M393 34q-17 0 -24 19l-212 455l-32 -496q-1 -12 -15 -12q-9 0 -17 4l37 532q2 24 22 24q12 0 19 -3l222 -481l204 467q6 17 24 17q12 0 20 -6l56 -550q-5 -4 -17 -4q-15 0 -16 12l-46 497l-201 -457q-7 -18 -24 -18z" />
    <glyph glyph-name="n.sc" unicode="&#xf76e;" horiz-adv-x="654" 
d="M511 9l-370 483l2 -487q-7 -5 -18 -5q-15 0 -15 16v540q8 4 16 4q9 0 15 -8l371 -493l-2 496q7 5 16 5q18 0 18 -17v-539q-5 -4 -17 -4q-10 0 -16 9z" />
    <glyph glyph-name="o.sc" unicode="&#xf76f;" horiz-adv-x="639" 
d="M76 281q0 141 66 214t183 73q112 0 175 -73t63 -214q0 -289 -239 -289q-117 0 -182.5 70.5t-65.5 218.5zM107 280q0 -257 218 -257q206 0 206 257q0 124 -54.5 190t-151.5 66q-104 0 -161 -66t-57 -190z" />
    <glyph glyph-name="p.sc" unicode="&#xf770;" horiz-adv-x="544" 
d="M126 560h191q73 0 116 -42t43 -119q0 -87 -51.5 -126.5t-135.5 -39.5h-146v-228q-7 -5 -18 -5q-15 0 -15 16v540q5 4 16 4zM310 532h-167v-271h136q166 0 166 136q0 135 -135 135z" />
    <glyph glyph-name="r.sc" unicode="&#xf772;" horiz-adv-x="588" 
d="M126 560h191q164 0 164 -149q0 -67 -43 -107.5t-106 -48.5q23 -26 55.5 -86t60.5 -98.5t58 -38.5h19q3 -4 3 -13q0 -19 -33 -19q-34 0 -67.5 45t-70 112.5t-62.5 95.5h-152v-248q-5 -5 -16 -5q-17 0 -17 16v540q8 4 16 4zM306 532h-163v-250h152q66 0 110 32t44 96
q0 67 -35.5 94.5t-107.5 27.5z" />
    <glyph glyph-name="s.sc" unicode="&#xf773;" horiz-adv-x="551" 
d="M269 568q68 0 114 -15.5t67 -35.5q9 -7 9 -20q0 -5 -5 -10t-11 -6q-51 51 -175 51q-78 0 -114.5 -28.5t-36.5 -72.5q0 -45 39.5 -72.5t141.5 -56.5q97 -28 140.5 -65t44.5 -100q0 -69 -53 -107t-154 -38q-98 0 -166 37q-42 23 -42 40q0 16 10 19q29 -29 82.5 -46
t113.5 -17q92 0 135.5 30t43.5 81q0 48 -37 77.5t-131 57.5q-113 34 -155.5 67.5t-42.5 93.5q0 59 45 97.5t137 38.5z" />
    <glyph glyph-name="t.sc" unicode="&#xf774;" horiz-adv-x="539" 
d="M492 527h-206v-523q-5 -4 -18 -4q-15 0 -15 16v511h-222q-5 7 -5 17q0 16 23 16h460q4 -5 4 -15q0 -18 -21 -18z" />
    <glyph glyph-name="u.sc" unicode="&#xf775;" horiz-adv-x="628" 
d="M494 209v346q7 5 16 5q17 0 17 -17v-340q0 -105 -52 -158t-161 -53t-158.5 51.5t-49.5 159.5l-1 353q8 4 16 4q18 0 18 -17v-333q0 -96 40 -141t135 -45q97 0 138.5 44.5t41.5 140.5z" />
    <glyph glyph-name="v.sc" unicode="&#xf776;" horiz-adv-x="572" 
d="M53 560q11 0 17 -13l220 -503q58 91 131.5 256.5t87.5 255.5q7 4 16 4q12 0 12 -9q0 -7 -4 -28q-16 -82 -90 -246.5t-141 -273.5q-15 -3 -17 -3q-11 0 -18 15l-232 542q7 3 18 3z" />
    <glyph glyph-name="w.sc" unicode="&#xf777;" horiz-adv-x="884" 
d="M386 560q12 0 18 -13l224 -503q54 84 120.5 251.5t80.5 260.5q8 4 16 4q12 0 12 -9q0 -7 -4 -28q-17 -87 -83.5 -252.5t-129.5 -267.5q-15 -3 -17 -3q-11 0 -18 15l-143 326q-78 -179 -177 -338q-15 -3 -16 -3q-11 0 -18 15l-224 542q7 3 18 3t17 -13l212 -503
q100 158 172 334l-78 179q8 3 18 3z" />
    <glyph glyph-name="x.sc" unicode="&#xf778;" horiz-adv-x="588" 
d="M95 560q17 0 30 -18l171 -226l172 230q9 14 25 14q13 0 17 -7l-196 -261l215 -283q-5 -9 -21 -9t-24 12l-191 254l-195 -253q-9 -13 -23 -13q-11 0 -16 11l216 280l-196 261q3 8 16 8z" />
    <glyph glyph-name="y.sc" unicode="&#xf779;" horiz-adv-x="524" 
d="M283 181v-176q-5 -5 -17 -5q-16 0 -16 16v165q-127 161 -199 372q9 7 19 7q12 0 16 -11q66 -197 182 -344q58 74 113.5 184.5t64.5 167.5q6 3 16 3q11 0 11 -12q-1 -51 -67 -174.5t-123 -192.5z" />
    <glyph glyph-name="z.sc" unicode="&#xf77a;" horiz-adv-x="575" 
d="M489 529l-397 -496h437q3 -5 3 -15q0 -18 -23 -18h-464q-2 8 -2 13q0 8 7 20l399 494h-381l-2 5q-2 4 -2 9q0 19 24 19h405q4 -3 4 -12q0 -8 -8 -19z" />
    <glyph glyph-name="exclamdown.sc" unicode="&#xf7a1;" horiz-adv-x="131" 
d="M68 0q-17 0 -17 17v440q5 5 16 5q17 0 17 -18v-440q-8 -4 -16 -4zM93 534q0 -26 -26 -26q-27 0 -27 26t27 26q26 0 26 -26z" />
    <glyph glyph-name="cent.osf" unicode="&#xf7a2;" horiz-adv-x="521" 
d="M466 426q2 -7 -11 -16q-38 21 -63.5 29.5t-73.5 9.5v-429q48 1 89.5 15t55.5 28q11 -6 11 -14q0 -17 -26 -29q-53 -28 -130 -30v-64q-6 -6 -16 -6q-16 0 -16 17v54q-98 7 -155.5 71.5t-57.5 174.5q0 120 61 180t152 63v73q7 5 15 5q17 0 17 -18v-61q35 -1 62.5 -7
t38 -10.5t31.5 -15.5q13 -6 16 -20zM104 237q0 -94 49 -151.5t133 -64.5v428q-81 -3 -131.5 -54.5t-50.5 -157.5z" />
    <glyph glyph-name="questiondown.sc" unicode="&#xf7bf;" horiz-adv-x="436" 
d="M79 169q0 -70 43.5 -103.5t112.5 -33.5q57 0 96 21t45 51q22 -2 22 -18q0 -27 -43.5 -56.5t-121.5 -29.5q-80 0 -132.5 44t-52.5 123t52 121t124 48l-3 119q10 5 18 5q12 0 12 -16l3 -118q0 -11 -4 -16q-75 -2 -123 -36.5t-48 -104.5zM259 526q0 -26 -26 -26
q-27 0 -27 26t27 26q26 0 26 -26z" />
    <glyph glyph-name="Euro.lf" horiz-adv-x="670" 
d="M410 272h-261q27 -243 254 -243q69 0 125.5 25t74.5 57q4 2 9 2q3 0 9 -3q11 -9 -1 -24q-73 -88 -217 -88q-254 0 -285 274h-86l-2 4q-2 2 -2 9q0 19 27 19h60q-1 15 -1 47q0 17 2 51h-84l-2 4q-2 3 -2 9q0 19 27 19h64q17 134 91.5 202.5t196.5 68.5q123 0 187 -45
q22 -15 11 -26q-7 -7 -16 -7q-55 47 -182 47q-107 0 -173 -61t-83 -179h318q4 -3 4 -15q0 -17 -40 -17h-286q-2 -17 -2 -51q0 -32 1 -47h300q4 -3 4 -15q0 -17 -40 -17z" />
    <glyph glyph-name="Euro.sc" horiz-adv-x="596" 
d="M358 214h-216q23 -185 211 -185q57 0 105 20t63 46q5 3 10 1q5 0 9 -4q10 -8 -1 -22q-58 -72 -186 -72q-215 0 -243 216h-73l-2 6q-2 4 -2 9q1 15 25 15h49q-1 12 -1 36q0 13 2 39h-71l-2 4q-2 4 -2 9q0 18 25 18h53q15 106 78.5 160t166.5 54q114 0 161 -39
q18 -13 9 -22q-6 -8 -16 -8q-47 38 -154 38q-89 0 -143.5 -46.5t-68.5 -136.5h266q4 -3 4 -14q0 -17 -36 -17h-239q-1 -13 -1 -39q0 -24 1 -36h250q4 -3 4 -13q0 -17 -35 -17z" />
    <glyph glyph-name="Euro.tf" horiz-adv-x="620" 
d="M382 272h-261q27 -243 254 -243q69 0 125.5 25t74.5 57q4 2 9 2q3 0 9 -3q11 -9 -1 -24q-73 -88 -217 -88q-254 0 -285 274h-86l-2 4q-2 2 -2 9q0 19 27 19h60q-1 15 -1 47q0 17 2 51h-84l-2 4q-2 3 -2 9q0 19 27 19h64q17 134 91.5 202.5t196.5 68.5q123 0 187 -45
q22 -15 11 -26q-7 -7 -16 -7q-55 47 -182 47q-107 0 -173 -61t-83 -179h318q4 -3 4 -15q0 -17 -40 -17h-286q-2 -17 -2 -51q0 -32 1 -47h300q4 -3 4 -15q0 -17 -40 -17z" />
    <glyph glyph-name="Euro.tosf" horiz-adv-x="620" 
d="M382 272h-261q27 -243 254 -243q69 0 125.5 25t74.5 57q4 2 9 2q3 0 9 -3q11 -9 -1 -24q-73 -88 -217 -88q-254 0 -285 274h-86l-2 4q-2 2 -2 9q0 19 27 19h60q-1 15 -1 47q0 17 2 51h-84l-2 4q-2 3 -2 9q0 19 27 19h64q17 134 91.5 202.5t196.5 68.5q123 0 187 -45
q22 -15 11 -26q-7 -7 -16 -7q-55 47 -182 47q-107 0 -173 -61t-83 -179h318q4 -3 4 -15q0 -17 -40 -17h-286q-2 -17 -2 -51q0 -32 1 -47h300q4 -3 4 -15q0 -17 -40 -17z" />
    <glyph glyph-name="Idotaccent.sc" horiz-adv-x="253" 
d="M126 560q17 0 17 -17v-537q-6 -6 -17 -6q-16 0 -16 17v538q7 5 16 5zM98 670q0 29 28 29q29 0 29 -29q0 -28 -29 -28q-28 0 -28 28z" />
    <glyph glyph-name="Ldot.latn_CAT" horiz-adv-x="540" 
d="M138 700q14 0 14 -18v-650h364q4 -4 4 -15q0 -17 -24 -17h-360q-16 0 -16 17v679q5 4 18 4zM359 323q0 29 28 29q29 0 29 -29q0 -28 -29 -28q-28 0 -28 28z" />
    <glyph glyph-name="S_S" horiz-adv-x="1254" 
d="M305 710q80 0 135 -19.5t80 -44.5q10 -10 10 -21q0 -6 -6 -11t-13 -5q-58 67 -207 67q-95 0 -138.5 -37.5t-43.5 -95.5q0 -60 47 -95t171 -74q114 -36 165.5 -82t51.5 -124q0 -85 -62 -131.5t-181 -46.5q-110 0 -194 46q-50 27 -50 48q0 15 11 19q33 -38 96.5 -60
t134.5 -22q111 0 164 39.5t53 107.5q0 63 -44.5 101.5t-157.5 75.5q-135 45 -184.5 85.5t-49.5 113.5q0 72 52.5 119t159.5 47zM932 710q80 0 135 -19.5t80 -44.5q10 -10 10 -21q0 -6 -6 -11t-13 -5q-58 67 -207 67q-95 0 -138.5 -37.5t-43.5 -95.5q0 -60 47 -95t171 -74
q114 -36 165.5 -82t51.5 -124q0 -85 -62 -131.5t-181 -46.5q-110 0 -194 46q-50 27 -50 48q0 15 11 19q33 -38 96.5 -60t134.5 -22q111 0 164 39.5t53 107.5q0 63 -44.5 101.5t-157.5 75.5q-135 45 -184.5 85.5t-49.5 113.5q0 72 52.5 119t159.5 47z" />
    <glyph glyph-name="T_h" horiz-adv-x="1089" 
d="M606 16v652h-283v-663q-5 -5 -18 -5q-14 0 -14 16v652h-267q-4 8 -4 17q0 15 24 15h590q4 -6 4 -18v-333q35 58 92.5 94.5t118.5 36.5q67 0 102 -38.5t35 -110.5v-275q0 -27 25 -27h34q4 -4 4 -13q0 -16 -43 -16q-52 0 -52 59v268q0 64 -26 93.5t-79 29.5
q-64 0 -121.5 -40.5t-89.5 -113.5v-291q-5 -5 -16 -5q-16 0 -16 16z" />
    <glyph glyph-name="Tbar_h" horiz-adv-x="1089" 
d="M476 325h-153v-320q-5 -5 -18 -5q-14 0 -14 16v309h-167q-4 8 -4 14q0 18 22 18h149v311h-267q-4 8 -4 17q0 15 24 15h590q4 -6 4 -18v-333q35 58 92.5 94.5t118.5 36.5q67 0 102 -38.5t35 -110.5v-275q0 -27 25 -27h34q4 -4 4 -13q0 -16 -43 -16q-52 0 -52 59v268
q0 64 -26 93.5t-79 29.5q-64 0 -121.5 -40.5t-89.5 -113.5v-291q-5 -5 -16 -5q-16 0 -16 16v652h-283v-311h168q4 -4 4 -15q0 -17 -19 -17z" />
    <glyph glyph-name="Tcaron_h" horiz-adv-x="1089" 
d="M606 16v652h-283v-663q-5 -5 -18 -5q-14 0 -14 16v652h-267q-4 8 -4 17q0 15 24 15h590q4 -6 4 -18v-333q35 58 92.5 94.5t118.5 36.5q67 0 102 -38.5t35 -110.5v-275q0 -27 25 -27h34q4 -4 4 -13q0 -16 -43 -16q-52 0 -52 59v268q0 64 -26 93.5t-79 29.5
q-64 0 -121.5 -40.5t-89.5 -113.5v-291q-5 -5 -16 -5q-16 0 -16 16zM306 790q-7 0 -13 4q-12 7 -61.5 44.5t-73.5 49.5q0 19 23 19q7 0 18 -5.5t25.5 -16t26.5 -20t29 -23.5t26 -21q10 8 33 26.5t37 29.5t30.5 20.5t25.5 9.5q23 0 23 -19q-24 -12 -73 -49.5t-62 -44.5
q-6 -4 -14 -4z" />
    <glyph glyph-name="Tcommaaccent_h" horiz-adv-x="1089" 
d="M606 16v652h-283v-663q-5 -5 -18 -5q-14 0 -14 16v652h-267q-4 8 -4 17q0 15 24 15h590q4 -6 4 -18v-333q35 58 92.5 94.5t118.5 36.5q67 0 102 -38.5t35 -110.5v-275q0 -27 25 -27h34q4 -4 4 -13q0 -16 -43 -16q-52 0 -52 59v268q0 64 -26 93.5t-79 29.5
q-64 0 -121.5 -40.5t-89.5 -113.5v-291q-5 -5 -16 -5q-16 0 -16 16zM308 -126q-12 0 -21.5 7.5t-9.5 20.5q0 29 29 29q31 0 31 -47q0 -36 -10 -62t-24 -26q-12 0 -16 9q21 28 21 69z" />
    <glyph glyph-name="aacute.sc" horiz-adv-x="555" 
d="M43 0q-11 0 -16 5l231 549q7 6 20 6q15 0 21 -16l229 -535q-3 -9 -15 -9q-14 0 -18 12l-60 138h-314l-60 -140q-4 -10 -18 -10zM277 514l-143 -334h288zM193 657q14 9 46.5 35.5t59.5 45.5t40 19q23 0 23 -19q-21 -10 -54 -35t-59 -44t-35 -19q-16 0 -21 17z" />
    <glyph glyph-name="abreve.sc" horiz-adv-x="555" 
d="M43 0q-11 0 -16 5l231 549q7 6 20 6q15 0 21 -16l229 -535q-3 -9 -15 -9q-14 0 -18 12l-60 138h-314l-60 -140q-4 -10 -18 -10zM277 514l-143 -334h288zM180 743q2 -38 28 -59q22 -18 69 -18q49 0 70 19q27 24 27 58q5 4 14 4q14 0 14 -11q0 -36 -33 -69q-31 -30 -92 -30
q-55 0 -87 26q-38 31 -38 72q0 12 14 12q10 0 14 -4z" />
    <glyph glyph-name="acircumflex.sc" horiz-adv-x="555" 
d="M424 657q-5 -17 -21 -17q-6 0 -13 4q-14 7 -54 38t-59 43q-19 -12 -59 -43t-54 -38q-7 -4 -13 -4q-16 0 -21 17q14 9 46 35.5t58.5 45.5t41.5 19q13 0 39 -18.5t59 -45t50 -36.5zM43 0q-11 0 -16 5l231 549q7 6 20 6q15 0 21 -16l229 -535q-3 -9 -15 -9q-14 0 -18 12
l-60 138h-314l-60 -140q-4 -10 -18 -10zM277 514l-143 -334h288z" />
    <glyph glyph-name="adieresis.sc" horiz-adv-x="555" 
d="M43 0q-11 0 -16 5l231 549q7 6 20 6q15 0 21 -16l229 -535q-3 -9 -15 -9q-14 0 -18 12l-60 138h-314l-60 -140q-4 -10 -18 -10zM277 514l-143 -334h288zM142 685q0 29 28 29q29 0 29 -29q0 -28 -29 -28q-28 0 -28 28zM355 685q0 29 28 29q29 0 29 -29q0 -28 -29 -28
q-28 0 -28 28z" />
    <glyph glyph-name="ae.sc" horiz-adv-x="866" 
d="M785 0h-369q-16 0 -16 17v133h-278l-61 -140q-4 -10 -17 -10q-12 0 -17 5l239 549q8 6 28 6h508q4 -3 4 -15q0 -18 -21 -18h-352v-221h314q4 -4 4 -16q0 -17 -21 -17h-297v-240h369q4 -3 4 -15q0 -18 -21 -18zM289 527l-154 -347h265v347h-111z" />
    <glyph glyph-name="aeacute.sc" horiz-adv-x="866" 
d="M785 0h-369q-16 0 -16 17v133h-278l-61 -140q-4 -10 -17 -10q-12 0 -17 5l239 549q8 6 28 6h508q4 -3 4 -15q0 -18 -21 -18h-352v-221h314q4 -4 4 -16q0 -17 -21 -17h-297v-240h369q4 -3 4 -15q0 -18 -21 -18zM289 527l-154 -347h265v347h-111zM419 657q14 9 46.5 35.5
t59.5 45.5t40 19q23 0 23 -19q-21 -10 -54 -35t-59 -44t-35 -19q-16 0 -21 17z" />
    <glyph glyph-name="agrave.sc" horiz-adv-x="555" 
d="M43 0q-11 0 -16 5l231 549q7 6 20 6q15 0 21 -16l229 -535q-3 -9 -15 -9q-14 0 -18 12l-60 138h-314l-60 -140q-4 -10 -18 -10zM277 514l-143 -334h288zM362 657q-5 -17 -21 -17q-9 0 -35 19t-59 44t-54 35q0 19 23 19q13 0 40 -19t59.5 -45.5t46.5 -35.5z" />
    <glyph glyph-name="amacron.sc" horiz-adv-x="555" 
d="M43 0q-11 0 -16 5l231 549q7 6 20 6q15 0 21 -16l229 -535q-3 -9 -15 -9q-14 0 -18 12l-60 138h-314l-60 -140q-4 -10 -18 -10zM277 514l-143 -334h288zM393 676h-268l-2 4q-2 3 -2 9q0 19 27 19h281q4 -3 4 -15q0 -17 -40 -17z" />
    <glyph glyph-name="aogonek.sc" horiz-adv-x="555" 
d="M496 13q-3 3 -7 12l-54 125h-314l-60 -140q-4 -10 -18 -10q-11 0 -16 5l231 549q7 6 20 6q15 0 21 -16l230 -539q-59 -56 -59 -103q0 -48 62 -48q3 -6 3 -14q0 -13 -22 -13q-14 0 -28.5 4t-29.5 21t-15 45q0 51 56 116zM277 514l-143 -334h288z" />
    <glyph glyph-name="aring.sc" horiz-adv-x="555" 
d="M43 0q-11 0 -16 5l231 549q7 6 20 6q15 0 21 -16l229 -535q-3 -9 -15 -9q-14 0 -18 12l-60 138h-314l-60 -140q-4 -10 -18 -10zM277 514l-143 -334h288zM193 712q0 84 84 84q41 0 62.5 -22t21.5 -62q0 -84 -84 -84t-84 84zM222 712q0 -55 55 -55t55 55q0 25 -14.5 40
t-40.5 15q-55 0 -55 -55z" />
    <glyph glyph-name="at.case" horiz-adv-x="877" 
d="M668 -15q12 -7 12 -13q0 -12 -13 -19q-96 -48 -235 -48q-166 0 -279 107t-113 283q0 181 109.5 290t289.5 109q177 0 286.5 -105t109.5 -269q0 -108 -53 -179t-125 -71q-79 0 -79 59v42q-107 -101 -202 -101q-61 0 -93 36t-32 94q0 46 31.5 76.5t90.5 34.5l205 16v76
q0 86 -124 86q-47 0 -90.5 -11t-61.5 -22q-13 3 -13 17q0 20 52 34t113 14q27 0 51 -5t48.5 -16.5t39 -35t14.5 -57.5v-266q0 -27 9.5 -35.5t37.5 -8.5q60 0 106.5 62t46.5 163q0 148 -102 244t-266 96q-167 0 -267.5 -100t-100.5 -267q0 -163 104.5 -261.5t257.5 -98.5
q119 0 235 50zM379 100q89 0 199 104v94l-205 -16q-45 -4 -68 -26.5t-23 -57.5q0 -43 25 -70.5t72 -27.5z" />
    <glyph glyph-name="atilde.sc" horiz-adv-x="555" 
d="M43 0q-11 0 -16 5l231 549q7 6 20 6q15 0 21 -16l229 -535q-3 -9 -15 -9q-14 0 -18 12l-60 138h-314l-60 -140q-4 -10 -18 -10zM277 514l-143 -334h288zM195 721q25 0 82.5 -16t80.5 -16q40 0 64 24q10 -7 10 -19q0 -14 -17.5 -25t-48.5 -11q-27 0 -89 15.5t-80 15.5
q-19 0 -38 -10t-23 -18q-14 8 -14 19t23 26t50 15z" />
    <glyph glyph-name="braceleft.case" horiz-adv-x="274" 
d="M181 767q60 0 60 -19q0 -8 -6 -13h-57q-22 0 -35.5 -15t-13.5 -44v-249q0 -37 -12.5 -54.5t-27.5 -19.5v-2q14 -1 27 -20.5t13 -56.5v-260q0 -46 47 -46h61q4 -5 4 -14q0 -19 -71 -19q-33 0 -52.5 21t-19.5 65v258q0 43 -38 49q-18 4 -18 24q0 15 6 21q21 -1 35.5 16.5
t14.5 37.5v253q0 47 24 67t59 20z" />
    <glyph glyph-name="braceright.case" horiz-adv-x="274" 
d="M102 -69q-60 0 -60 19q0 8 6 13h57q22 0 35.5 15t13.5 44v249q0 37 12.5 54.5t27.5 19.5v2q-14 1 -27 20.5t-13 56.5v260q0 46 -47 46h-61q-4 5 -4 14q0 19 71 19q33 0 52.5 -21t19.5 -65v-258q0 -43 38 -49q18 -4 18 -24q0 -15 -6 -21q-21 1 -35.5 -16.5t-14.5 -37.5
v-253q0 -47 -24 -67t-59 -20z" />
    <glyph glyph-name="bracketleft.case" horiz-adv-x="254" 
d="M59 -47v807q11 7 29 7h139q4 -4 4 -16q0 -17 -16 -17h-125v-764h137q4 -6 4 -16q0 -18 -19 -18h-148q-5 7 -5 17z" />
    <glyph glyph-name="bracketright.case" horiz-adv-x="254" 
d="M231 746v-807q-11 -7 -29 -7h-139q-4 4 -4 16q0 17 16 17h125v764h-137q-4 6 -4 16q0 18 19 18h148q5 -7 5 -17z" />
    <glyph glyph-name="cacute.sc" horiz-adv-x="580" 
d="M511 102q6 1 12 -2.5t6 -10.5q0 -13 -10 -23q-62 -74 -197 -74q-116 0 -181 70.5t-65 218.5q0 140 65 213.5t179 73.5q137 0 193 -80q7 -10 7 -21q0 -5 -5.5 -9t-12.5 -3q-31 43 -73 61.5t-109 18.5q-100 0 -156 -66t-56 -189q0 -256 215 -256q123 0 188 78zM229 657
q14 9 46.5 35.5t59.5 45.5t40 19q23 0 23 -19q-21 -10 -54 -35t-59 -44t-35 -19q-16 0 -21 17z" />
    <glyph glyph-name="ccaron.sc" horiz-adv-x="580" 
d="M511 102q6 1 12 -2.5t6 -10.5q0 -13 -10 -23q-62 -74 -197 -74q-116 0 -181 70.5t-65 218.5q0 140 65 213.5t179 73.5q137 0 193 -80q7 -10 7 -21q0 -5 -5.5 -9t-12.5 -3q-31 43 -73 61.5t-109 18.5q-100 0 -156 -66t-56 -189q0 -256 215 -256q123 0 188 78zM317 640
q-7 0 -13 4q-12 7 -61.5 44.5t-73.5 49.5q0 19 23 19q7 0 18 -5.5t25.5 -16t26.5 -20t29 -23.5t26 -21q10 8 33 26.5t37 29.5t30.5 20.5t25.5 9.5q23 0 23 -19q-24 -12 -73 -49.5t-62 -44.5q-6 -4 -14 -4z" />
    <glyph glyph-name="ccedilla.sc" horiz-adv-x="580" 
d="M371 -112q0 42 -59 46q-5 2 -5 17l1 64l31 -1l-3 -54q28 -2 46 -19.5t18 -53.5q0 -35 -21.5 -53.5t-54.5 -18.5q-32 0 -49 11t-17 24q0 14 19 18q2 -9 15.5 -17t30.5 -8q21 0 34.5 11t13.5 34zM511 102q6 1 12 -2.5t6 -10.5q0 -13 -10 -23q-62 -74 -197 -74
q-116 0 -181 70.5t-65 218.5q0 140 65 213.5t179 73.5q137 0 193 -80q7 -10 7 -21q0 -5 -5.5 -9t-12.5 -3q-31 43 -73 61.5t-109 18.5q-100 0 -156 -66t-56 -189q0 -256 215 -256q123 0 188 78z" />
    <glyph glyph-name="ccircumflex.sc" horiz-adv-x="580" 
d="M467 657q-5 -17 -21 -17q-6 0 -13 4q-14 7 -54 38t-59 43q-19 -12 -59 -43t-54 -38q-7 -4 -13 -4q-16 0 -21 17q14 9 46 35.5t58.5 45.5t41.5 19q13 0 39 -18.5t59 -45t50 -36.5zM511 102q6 1 12 -2.5t6 -10.5q0 -13 -10 -23q-62 -74 -197 -74q-116 0 -181 70.5
t-65 218.5q0 140 65 213.5t179 73.5q137 0 193 -80q7 -10 7 -21q0 -5 -5.5 -9t-12.5 -3q-31 43 -73 61.5t-109 18.5q-100 0 -156 -66t-56 -189q0 -256 215 -256q123 0 188 78z" />
    <glyph glyph-name="cdotaccent.sc" horiz-adv-x="580" 
d="M511 102q6 1 12 -2.5t6 -10.5q0 -13 -10 -23q-62 -74 -197 -74q-116 0 -181 70.5t-65 218.5q0 140 65 213.5t179 73.5q137 0 193 -80q7 -10 7 -21q0 -5 -5.5 -9t-12.5 -3q-31 43 -73 61.5t-109 18.5q-100 0 -156 -66t-56 -189q0 -256 215 -256q123 0 188 78zM294 675
q0 29 28 29q29 0 29 -29q0 -28 -29 -28q-28 0 -28 28z" />
    <glyph glyph-name="cent.lf" horiz-adv-x="521" 
d="M466 426q2 -7 -11 -16q-38 21 -63.5 29.5t-73.5 9.5v-429q48 1 89.5 15t55.5 28q11 -6 11 -14q0 -17 -26 -29q-53 -28 -130 -30v-64q-6 -6 -16 -6q-16 0 -16 17v54q-98 7 -155.5 71.5t-57.5 174.5q0 120 61 180t152 63v73q7 5 15 5q17 0 17 -18v-61q35 -1 62.5 -7
t38 -10.5t31.5 -15.5q13 -6 16 -20zM104 237q0 -94 49 -151.5t133 -64.5v428q-81 -3 -131.5 -54.5t-50.5 -157.5z" />
    <glyph glyph-name="cent.tf" horiz-adv-x="620" 
d="M502 426q2 -7 -11 -16q-38 21 -63.5 29.5t-73.5 9.5v-429q48 1 89.5 15t55.5 28q11 -6 11 -14q0 -17 -26 -29q-53 -28 -130 -30v-64q-6 -6 -16 -6q-16 0 -16 17v54q-98 7 -155.5 71.5t-57.5 174.5q0 120 61 180t152 63v73q7 5 15 5q17 0 17 -18v-61q35 -1 62.5 -7
t38 -10.5t31.5 -15.5q13 -6 16 -20zM140 237q0 -94 49 -151.5t133 -64.5v428q-81 -3 -131.5 -54.5t-50.5 -157.5z" />
    <glyph glyph-name="cent.tosf" horiz-adv-x="620" 
d="M502 426q2 -7 -11 -16q-38 21 -63.5 29.5t-73.5 9.5v-429q48 1 89.5 15t55.5 28q11 -6 11 -14q0 -17 -26 -29q-53 -28 -130 -30v-64q-6 -6 -16 -6q-16 0 -16 17v54q-98 7 -155.5 71.5t-57.5 174.5q0 120 61 180t152 63v73q7 5 15 5q17 0 17 -18v-61q35 -1 62.5 -7
t38 -10.5t31.5 -15.5q13 -6 16 -20zM140 237q0 -94 49 -151.5t133 -64.5v428q-81 -3 -131.5 -54.5t-50.5 -157.5z" />
    <glyph glyph-name="dcaron.sc" horiz-adv-x="621" 
d="M126 560h114q159 0 232 -69.5t73 -214.5q0 -148 -69 -212t-207 -64h-142q-17 0 -17 16v540q8 4 16 4zM246 528h-103v-496h125q124 0 184.5 56t60.5 188q0 128 -63 190t-204 62zM275 640q-7 0 -13 4q-12 7 -61.5 44.5t-73.5 49.5q0 19 23 19q7 0 18 -5.5t25.5 -16
t26.5 -20t29 -23.5t26 -21q10 8 33 26.5t37 29.5t30.5 20.5t25.5 9.5q23 0 23 -19q-24 -12 -73 -49.5t-62 -44.5q-6 -4 -14 -4z" />
    <glyph glyph-name="dcroat.sc" horiz-adv-x="621" 
d="M126 560h114q159 0 232 -69.5t73 -214.5q0 -148 -69 -212t-207 -64h-142q-17 0 -17 16v245h-85q-4 8 -4 15q0 18 21 18h68v262q8 4 16 4zM268 261h-125v-229h125q124 0 184.5 56t60.5 188q0 128 -63 190t-204 62h-103v-234h143q4 -6 4 -15q0 -18 -22 -18z" />
    <glyph glyph-name="dollar.lf" horiz-adv-x="618" 
d="M320 778q17 0 17 -18v-51q63 -3 110 -22t70 -41q10 -10 10 -21q0 -6 -6 -11t-13 -5q-51 59 -171 66v-301q115 -37 166 -83.5t51 -122.5q0 -80 -55 -126t-162 -51v-55q-6 -6 -16 -6q-16 0 -16 17v43q-108 1 -188 46q-50 27 -50 48q0 15 11 19q32 -38 94 -59.5t133 -22.5
v330q-123 42 -169 82t-46 111t52 117t163 49v63q7 5 15 5zM526 168q0 61 -42 99.5t-147 73.5v-320q97 5 143 44t46 103zM119 543q0 -57 41.5 -91t144.5 -68v292q-99 -2 -142.5 -39t-43.5 -94z" />
    <glyph glyph-name="dollar.sc" horiz-adv-x="543" 
d="M281 656q16 0 16 -15v-74q97 -4 151 -50q9 -9 9 -19q0 -6 -5.5 -10.5t-11.5 -5.5q-44 46 -143 51l-1 -232q98 -29 141 -65.5t43 -98.5q0 -65 -46.5 -102.5t-137.5 -41.5v-71q-7 -5 -15 -5q-15 0 -15 17v58q-92 1 -159 37q-42 23 -42 40q0 14 10 18q58 -61 191 -63v253
q-103 32 -142.5 64.5t-39.5 90.5t44 95.5t138 40.5v84q8 4 15 4zM451 136q0 46 -34.5 75.5t-120.5 56.5v-244q79 4 117 34t38 78zM114 432q0 -44 33.5 -70t118.5 -52v223q-80 -1 -116 -29.5t-36 -71.5z" />
    <glyph glyph-name="dollar.tf" horiz-adv-x="620" 
d="M319 809q17 0 17 -18v-82q63 -3 110 -22t70 -41q10 -10 10 -21q0 -6 -6 -11t-13 -5q-51 59 -171 66v-301q115 -37 166 -83.5t51 -122.5q0 -80 -55 -126t-162 -51v-91q-6 -6 -16 -6q-16 0 -16 17v79q-108 1 -188 46q-50 27 -50 48q0 15 11 19q32 -38 94 -59.5t133 -22.5
v330q-123 42 -169 82t-46 111t52 117t163 49v94q7 5 15 5zM525 168q0 61 -42 99.5t-147 73.5v-320q97 5 143 44t46 103zM118 543q0 -57 41.5 -91t144.5 -68v292q-99 -2 -142.5 -39t-43.5 -94z" />
    <glyph glyph-name="dollar.tosf" horiz-adv-x="620" 
d="M319 809q17 0 17 -18v-82q63 -3 110 -22t70 -41q10 -10 10 -21q0 -6 -6 -11t-13 -5q-51 59 -171 66v-301q115 -37 166 -83.5t51 -122.5q0 -80 -55 -126t-162 -51v-91q-6 -6 -16 -6q-16 0 -16 17v79q-108 1 -188 46q-50 27 -50 48q0 15 11 19q32 -38 94 -59.5t133 -22.5
v330q-123 42 -169 82t-46 111t52 117t163 49v94q7 5 15 5zM525 168q0 61 -42 99.5t-147 73.5v-320q97 5 143 44t46 103zM118 543q0 -57 41.5 -91t144.5 -68v292q-99 -2 -142.5 -39t-43.5 -94z" />
    <glyph glyph-name="dotlessi.sc" horiz-adv-x="253" 
d="M126 560q17 0 17 -17v-537q-6 -6 -17 -6q-16 0 -16 17v538q7 5 16 5z" />
    <glyph glyph-name="dotlessj.sc" horiz-adv-x="334" 
d="M208 560q16 0 16 -16v-447q0 -52 -26.5 -74.5t-78.5 -22.5q-92 0 -92 23q0 7 3 14h86q75 0 75 72v446q8 5 17 5z" />
    <glyph glyph-name="eacute.sc" horiz-adv-x="577" 
d="M440 273h-297v-240h370q4 -4 4 -15q0 -18 -22 -18h-369q-16 0 -16 17v539q5 4 15 4h388q4 -4 4 -15q0 -18 -22 -18h-352v-221h314q4 -4 4 -16q0 -17 -21 -17zM224 657q14 9 46.5 35.5t59.5 45.5t40 19q23 0 23 -19q-21 -10 -54 -35t-59 -44t-35 -19q-16 0 -21 17z" />
    <glyph glyph-name="ebreve.sc" horiz-adv-x="577" 
d="M440 273h-297v-240h370q4 -4 4 -15q0 -18 -22 -18h-369q-16 0 -16 17v539q5 4 15 4h388q4 -4 4 -15q0 -18 -22 -18h-352v-221h314q4 -4 4 -16q0 -17 -21 -17zM221 743q2 -38 28 -59q22 -18 69 -18q49 0 70 19q27 24 27 58q5 4 14 4q14 0 14 -11q0 -36 -33 -69
q-31 -30 -92 -30q-55 0 -87 26q-38 31 -38 72q0 12 14 12q10 0 14 -4z" />
    <glyph glyph-name="ecaron.sc" horiz-adv-x="577" 
d="M440 273h-297v-240h370q4 -4 4 -15q0 -18 -22 -18h-369q-16 0 -16 17v539q5 4 15 4h388q4 -4 4 -15q0 -18 -22 -18h-352v-221h314q4 -4 4 -16q0 -17 -21 -17zM317 640q-7 0 -13 4q-12 7 -61.5 44.5t-73.5 49.5q0 19 23 19q7 0 18 -5.5t25.5 -16t26.5 -20t29 -23.5t26 -21
q10 8 33 26.5t37 29.5t30.5 20.5t25.5 9.5q23 0 23 -19q-24 -12 -73 -49.5t-62 -44.5q-6 -4 -14 -4z" />
    <glyph glyph-name="ecircumflex.sc" horiz-adv-x="577" 
d="M462 657q-5 -17 -21 -17q-6 0 -13 4q-14 7 -54 38t-59 43q-19 -12 -59 -43t-54 -38q-7 -4 -13 -4q-16 0 -21 17q14 9 46 35.5t58.5 45.5t41.5 19q13 0 39 -18.5t59 -45t50 -36.5zM440 273h-297v-240h370q4 -4 4 -15q0 -18 -22 -18h-369q-16 0 -16 17v539q5 4 15 4h388
q4 -4 4 -15q0 -18 -22 -18h-352v-221h314q4 -4 4 -16q0 -17 -21 -17z" />
    <glyph glyph-name="edieresis.sc" horiz-adv-x="577" 
d="M440 273h-297v-240h370q4 -4 4 -15q0 -18 -22 -18h-369q-16 0 -16 17v539q5 4 15 4h388q4 -4 4 -15q0 -18 -22 -18h-352v-221h314q4 -4 4 -16q0 -17 -21 -17zM171 685q0 29 28 29q29 0 29 -29q0 -28 -29 -28q-28 0 -28 28zM384 685q0 29 28 29q29 0 29 -29q0 -28 -29 -28
q-28 0 -28 28z" />
    <glyph glyph-name="edotaccent.sc" horiz-adv-x="577" 
d="M440 273h-297v-240h370q4 -4 4 -15q0 -18 -22 -18h-369q-16 0 -16 17v539q5 4 15 4h388q4 -4 4 -15q0 -18 -22 -18h-352v-221h314q4 -4 4 -16q0 -17 -21 -17zM288 687q0 29 28 29q29 0 29 -29q0 -28 -29 -28q-28 0 -28 28z" />
    <glyph glyph-name="egrave.sc" horiz-adv-x="577" 
d="M401 657q-5 -17 -21 -17q-9 0 -35 19t-59 44t-54 35q0 19 23 19q13 0 40 -19t59.5 -45.5t46.5 -35.5zM440 273h-297v-240h370q4 -4 4 -15q0 -18 -22 -18h-369q-16 0 -16 17v539q5 4 15 4h388q4 -4 4 -15q0 -18 -22 -18h-352v-221h314q4 -4 4 -16q0 -17 -21 -17z" />
    <glyph glyph-name="egravesuperior" horiz-adv-x="284" 
d="M249 470h-183v-3q0 -45 25 -70.5t65 -25.5q52 0 85 24q9 -4 9 -12t-8 -14q-29 -24 -88 -24q-51 0 -83 33.5t-32 88.5q0 60 34 93t82 33t72.5 -28t24.5 -73q0 -13 -3 -22zM155 567q-32 0 -56.5 -19t-30.5 -56h158q0 75 -71 75zM209 650q-3 -14 -16 -14q-8 0 -28.5 15
t-47 35t-42.5 28q0 15 19 15q11 0 32 -15t46.5 -36t36.5 -28z" />
    <glyph glyph-name="eight.dnom" horiz-adv-x="344" 
d="M32 111q0 80 78 107q-62 29 -62 98q0 46 32.5 72.5t89.5 26.5q61 0 94 -27t33 -75q0 -35 -19.5 -62.5t-49.5 -40.5q84 -29 84 -101q0 -52 -35 -83.5t-108 -31.5q-69 0 -103 31.5t-34 85.5zM177 199l-29 6q-38 -6 -63 -29.5t-25 -65.5q0 -39 27.5 -64.5t81.5 -25.5
q115 0 115 87q0 71 -107 92zM75 316q0 -45 29.5 -64.5t83.5 -30.5q1 -1 4 -1q35 8 56.5 33t21.5 60q0 36 -25.5 56.5t-71.5 20.5q-44 0 -71 -20.5t-27 -53.5z" />
    <glyph glyph-name="eight.lf" horiz-adv-x="536" 
d="M45 181q0 76 39 121t97 62q-110 45 -110 166q0 75 52 118t143 43q97 0 149.5 -44t52.5 -122q0 -62 -33.5 -110.5t-85.5 -67.5q142 -49 142 -169q0 -87 -55 -137.5t-174 -50.5q-109 0 -163 52t-54 139zM284 336q-40 8 -59 13q-64 -11 -107.5 -53t-43.5 -117
q0 -71 46.5 -116t141.5 -45q105 0 152 43t47 113q0 68 -50 108t-127 54zM100 530q0 -41 14.5 -71t43.5 -48.5t58.5 -28.5t72.5 -19l14 -3q62 12 98.5 57t36.5 109q0 63 -44 100t-125 37q-77 0 -123 -37t-46 -96z" />
    <glyph glyph-name="eight.numr" horiz-adv-x="344" 
d="M32 396q0 80 78 107q-62 29 -62 98q0 46 32.5 72.5t89.5 26.5q61 0 94 -27t33 -75q0 -35 -19.5 -62.5t-49.5 -40.5q84 -29 84 -101q0 -52 -35 -83.5t-108 -31.5q-69 0 -103 31.5t-34 85.5zM177 484l-29 6q-38 -6 -63 -29.5t-25 -65.5q0 -39 27.5 -64.5t81.5 -25.5
q115 0 115 87q0 71 -107 92zM75 601q0 -45 29.5 -64.5t83.5 -30.5q1 -1 4 -1q35 8 56.5 33t21.5 60q0 36 -25.5 56.5t-71.5 20.5q-44 0 -71 -20.5t-27 -53.5z" />
    <glyph glyph-name="eight.sc" horiz-adv-x="477" 
d="M48 146q0 59 31.5 94.5t78.5 50.5q-88 38 -88 132q0 60 44 95t122 35q83 0 128 -35.5t45 -98.5q0 -48 -27 -86t-69 -54q116 -40 116 -135q0 -70 -47 -111t-148 -41q-94 0 -140 42t-46 112zM249 267q-32 6 -47 10q-53 -8 -89 -41t-36 -91q0 -55 39.5 -90t117.5 -35
q86 0 125 33.5t39 87.5q0 99 -149 126zM258 293q6 -2 9 -2q51 10 81.5 44.5t30.5 83.5t-36.5 77.5t-103.5 28.5q-63 0 -101.5 -28.5t-38.5 -73.5q0 -61 42 -88.5t117 -41.5z" />
    <glyph glyph-name="eight.tf" 
d="M62 181q0 76 39 121t97 62q-110 45 -110 166q0 75 52 118t143 43q97 0 149.5 -44t52.5 -122q0 -62 -33.5 -110.5t-85.5 -67.5q142 -49 142 -169q0 -87 -55 -137.5t-174 -50.5q-109 0 -163 52t-54 139zM301 336q-40 8 -59 13q-64 -11 -107.5 -53t-43.5 -117
q0 -71 46.5 -116t141.5 -45q105 0 152 43t47 113q0 68 -50 108t-127 54zM117 530q0 -41 14.5 -71t43.5 -48.5t58.5 -28.5t72.5 -19l14 -3q62 12 98.5 57t36.5 109q0 63 -44 100t-125 37q-77 0 -123 -37t-46 -96z" />
    <glyph glyph-name="eight.tosf" 
d="M62 181q0 76 39 121t97 62q-110 45 -110 166q0 75 52 118t143 43q97 0 149.5 -44t52.5 -122q0 -62 -33.5 -110.5t-85.5 -67.5q142 -49 142 -169q0 -87 -55 -137.5t-174 -50.5q-109 0 -163 52t-54 139zM301 336q-40 8 -59 13q-64 -11 -107.5 -53t-43.5 -117
q0 -71 46.5 -116t141.5 -45q105 0 152 43t47 113q0 68 -50 108t-127 54zM117 530q0 -41 14.5 -71t43.5 -48.5t58.5 -28.5t72.5 -19l14 -3q62 12 98.5 57t36.5 109q0 63 -44 100t-125 37q-77 0 -123 -37t-46 -96z" />
    <glyph glyph-name="emacron.sc" horiz-adv-x="577" 
d="M440 273h-297v-240h370q4 -4 4 -15q0 -18 -22 -18h-369q-16 0 -16 17v539q5 4 15 4h388q4 -4 4 -15q0 -18 -22 -18h-352v-221h314q4 -4 4 -16q0 -17 -21 -17zM431 676h-268l-2 4q-2 3 -2 9q0 19 27 19h281q4 -3 4 -15q0 -17 -40 -17z" />
    <glyph glyph-name="emdash.case" horiz-adv-x="698" 
d="M598 331h-534l-2 3q-2 4 -2 10q0 19 27 19h547q4 -3 4 -15q0 -17 -40 -17z" />
    <glyph glyph-name="endash.case" horiz-adv-x="540" 
d="M440 332h-376l-2 4q-2 3 -2 9q0 19 27 19h389q4 -3 4 -15q0 -17 -40 -17z" />
    <glyph glyph-name="eng.sc" horiz-adv-x="654" 
d="M512 -42v51l-371 483l2 -487q-7 -5 -18 -5q-15 0 -15 16v540q8 4 16 4q9 0 15 -8l371 -493l-2 496q7 5 16 5q18 0 18 -17v-591q0 -85 -93 -85q-64 0 -64 22q0 7 2 12h61q62 0 62 57z" />
    <glyph glyph-name="eogonek.sc" horiz-adv-x="577" 
d="M440 273h-297v-240h370q4 -4 4 -14q0 -12 -7 -19q-53 -53 -53 -98q0 -48 62 -48q3 -6 3 -14q0 -13 -22 -13q-14 0 -28.5 4t-29.5 21t-15 45q0 51 46 103h-347q-16 0 -16 17v539q5 4 15 4h388q4 -4 4 -15q0 -18 -22 -18h-352v-221h314q4 -4 4 -16q0 -17 -21 -17z" />
    <glyph glyph-name="eth.sc" horiz-adv-x="621" 
d="M126 560h114q159 0 232 -69.5t73 -214.5q0 -148 -69 -212t-207 -64h-142q-17 0 -17 16v245h-85q-4 8 -4 15q0 18 21 18h68v262q8 4 16 4zM268 261h-125v-229h125q124 0 184.5 56t60.5 188q0 128 -63 190t-204 62h-103v-234h143q4 -6 4 -15q0 -18 -22 -18z" />
    <glyph glyph-name="exclamdown.case" horiz-adv-x="123" 
d="M-72 0q-17 0 -17 18v561q6 6 16 6q16 0 16 -17v-563q-7 -5 -15 -5zM-45 672q0 -29 -28 -29q-29 0 -29 29q0 28 29 28q28 0 28 -28z" />
    <glyph glyph-name="five.dnom" horiz-adv-x="338" 
d="M281 384h-198l-7 -156q44 18 93 18q145 0 145 -124q0 -57 -37.5 -92.5t-113.5 -35.5q-69 0 -100.5 30t-31.5 61q0 18 18 18q3 -32 30 -57.5t83 -25.5q63 0 93 28.5t30 75.5q0 48 -32.5 72t-88.5 24q-29 0 -63 -8.5t-40 -8.5q-13 0 -13 15l6 191q7 4 19 4h221q3 -3 3 -13
q0 -16 -16 -16z" />
    <glyph glyph-name="five.lf" horiz-adv-x="527" 
d="M445 658h-331l-10 -285q74 34 158 34q112 0 173.5 -50t61.5 -155q0 -95 -59.5 -153.5t-182.5 -58.5q-48 0 -86.5 12t-61 29.5t-37.5 39.5t-20 40.5t-5 34.5q0 28 25 22q0 -58 44.5 -104t139.5 -46q110 0 161 51t51 135q0 88 -54.5 130.5t-149.5 42.5q-52 0 -108.5 -16
t-62.5 -16q-18 0 -18 17l9 323q8 5 20 5h363q4 -6 4 -15q0 -17 -24 -17z" />
    <glyph glyph-name="five.numr" horiz-adv-x="338" 
d="M281 669h-198l-7 -156q44 18 93 18q145 0 145 -124q0 -57 -37.5 -92.5t-113.5 -35.5q-69 0 -100.5 30t-31.5 61q0 18 18 18q3 -32 30 -57.5t83 -25.5q63 0 93 28.5t30 75.5q0 48 -32.5 72t-88.5 24q-29 0 -63 -8.5t-40 -8.5q-13 0 -13 15l6 191q7 4 19 4h221q3 -3 3 -13
q0 -16 -16 -16z" />
    <glyph glyph-name="five.sc" horiz-adv-x="469" 
d="M388 520h-278l-8 -219q60 26 131 26q200 0 200 -165q0 -75 -51.5 -122.5t-154.5 -47.5q-51 0 -89 13.5t-56 34t-26.5 39.5t-8.5 36q0 24 23 21q1 -45 39 -80.5t117 -35.5q91 0 133 39t42 105q0 68 -45 101t-125 33q-43 0 -90.5 -12t-53.5 -12q-16 0 -16 16l8 257
q8 5 20 5h307q3 -9 3 -15q0 -17 -21 -17z" />
    <glyph glyph-name="five.tf" 
d="M459 658h-331l-10 -285q74 34 158 34q112 0 173.5 -50t61.5 -155q0 -95 -59.5 -153.5t-182.5 -58.5q-48 0 -86.5 12t-61 29.5t-37.5 39.5t-20 40.5t-5 34.5q0 28 25 22q0 -58 44.5 -104t139.5 -46q110 0 161 51t51 135q0 88 -54.5 130.5t-149.5 42.5q-52 0 -108.5 -16
t-62.5 -16q-18 0 -18 17l9 323q8 5 20 5h363q4 -6 4 -15q0 -17 -24 -17z" />
    <glyph glyph-name="five.tosf" 
d="M459 529h-331l-10 -285q74 34 158 34q112 0 173.5 -50t61.5 -155q0 -95 -59.5 -153.5t-182.5 -58.5q-48 0 -86.5 12t-61 29.5t-37.5 39.5t-20 40.5t-5 34.5q0 28 25 22q0 -58 44.5 -104t139.5 -46q110 0 161 51t51 135q0 88 -54.5 130.5t-149.5 42.5q-52 0 -108.5 -16
t-62.5 -16q-18 0 -18 17l9 323q8 5 20 5h363q4 -6 4 -15q0 -17 -24 -17z" />
    <glyph glyph-name="florin.lf" horiz-adv-x="516" 
d="M394 369h-143l-63 -456q-9 -64 -41 -88.5t-92 -24.5q-74 0 -74 21q0 7 3 11h87q38 0 58.5 19.5t27.5 71.5l62 446h-126q-3 12 -3 13q0 19 22 19h111l26 186q9 62 40.5 87.5t91.5 25.5q90 0 90 -18q0 -10 -3 -14h-91q-43 0 -66.5 -20.5t-30.5 -70.5l-25 -176h168
q3 -3 3 -15q0 -17 -32 -17z" />
    <glyph glyph-name="florin.tf" horiz-adv-x="516" 
d="M394 369h-143l-63 -456q-9 -64 -41 -88.5t-92 -24.5q-74 0 -74 21q0 7 3 11h87q38 0 58.5 19.5t27.5 71.5l62 446h-126q-3 12 -3 13q0 19 22 19h111l26 186q9 62 40.5 87.5t91.5 25.5q90 0 90 -18q0 -10 -3 -14h-91q-43 0 -66.5 -20.5t-30.5 -70.5l-25 -176h168
q3 -3 3 -15q0 -17 -32 -17z" />
    <glyph glyph-name="florin.tosf" horiz-adv-x="516" 
d="M394 369h-143l-63 -456q-9 -64 -41 -88.5t-92 -24.5q-74 0 -74 21q0 7 3 11h87q38 0 58.5 19.5t27.5 71.5l62 446h-126q-3 12 -3 13q0 19 22 19h111l26 186q9 62 40.5 87.5t91.5 25.5q90 0 90 -18q0 -10 -3 -14h-91q-43 0 -66.5 -20.5t-30.5 -70.5l-25 -176h168
q3 -3 3 -15q0 -17 -32 -17z" />
    <glyph glyph-name="four.dnom" horiz-adv-x="364" 
d="M260 285q13 0 13 -12v-157h60q3 -3 3 -13q0 -13 -11 -13h-52l1 -87q-6 -3 -17 -3q-13 0 -13 13v77h-213q-3 4 -3 11q0 8 3 14l98 296q5 3 15 3q17 0 11 -15l-94 -283h183v165q8 4 16 4z" />
    <glyph glyph-name="four.lf" 
d="M415 470q14 0 14 -14v-273h97q3 -5 3 -15q0 -15 -14 -15h-86v-149q-5 -4 -18 -4q-14 0 -14 16v137h-353q-3 6 -3 14q0 9 3 16l162 504q4 3 16 3q19 0 12 -20l-160 -487h323v282q7 5 18 5z" />
    <glyph glyph-name="four.numr" horiz-adv-x="365" 
d="M260 570q13 0 13 -12v-157h60q3 -3 3 -13q0 -13 -11 -13h-52l1 -87q-6 -3 -17 -3q-13 0 -13 13v77h-213q-3 5 -3 11q0 8 3 14l98 296q5 3 15 3q17 0 11 -15l-94 -283h183v165q8 4 16 4z" />
    <glyph glyph-name="four.sc" horiz-adv-x="505" 
d="M362 378q14 0 14 -14v-214h82q3 -3 3 -14q0 -15 -13 -15h-72v-117q-5 -4 -18 -4q-14 0 -14 15v106h-297q-3 6 -3 13q0 8 3 16l136 399q5 3 17 3q18 0 11 -18l-133 -384h266v223q7 5 18 5z" />
    <glyph glyph-name="four.tf" 
d="M415 470q14 0 14 -14v-273h97q3 -5 3 -15q0 -15 -14 -15h-86v-149q-5 -4 -18 -4q-14 0 -14 16v137h-353q-3 6 -3 14q0 9 3 16l162 504q4 3 16 3q19 0 12 -20l-160 -487h323v282q7 5 18 5z" />
    <glyph glyph-name="four.tosf" 
d="M415 317q14 0 14 -14v-273h97q3 -4 3 -15q0 -15 -14 -15h-86v-149q-5 -4 -18 -4q-14 0 -14 16v137h-353q-3 6 -3 14t3 16l162 504q4 3 16 3q19 0 12 -20l-160 -487h323v282q7 5 18 5z" />
    <glyph glyph-name="gbreve.sc" horiz-adv-x="635" 
d="M514 245h-172q-3 5 -3 15q0 16 27 16h148q16 0 22.5 -7t6.5 -25v-239q-6 -6 -16 -6q-13 0 -13 17v69q-78 -93 -191 -93q-105 0 -176 72.5t-71 216.5q0 137 71 212t179 75q57 0 105.5 -13.5t71.5 -29.5t23 -28q0 -7 -5.5 -12t-10.5 -3q-70 54 -183 54q-95 0 -157 -68
t-62 -188q0 -130 61.5 -193.5t155.5 -63.5q55 0 106 27.5t83 72.5v122zM232 743q2 -38 28 -59q22 -18 69 -18q49 0 70 19q27 24 27 58q5 4 14 4q14 0 14 -11q0 -36 -33 -69q-31 -30 -92 -30q-55 0 -87 26q-38 31 -38 72q0 12 14 12q10 0 14 -4z" />
    <glyph glyph-name="gcircumflex.sc" horiz-adv-x="635" 
d="M478 657q-5 -17 -21 -17q-6 0 -13 4q-14 7 -54 38t-59 43q-19 -12 -59 -43t-54 -38q-7 -4 -13 -4q-16 0 -21 17q14 9 46 35.5t58.5 45.5t41.5 19q13 0 39 -18.5t59 -45t50 -36.5zM514 245h-172q-3 5 -3 15q0 16 27 16h148q16 0 22.5 -7t6.5 -25v-239q-6 -6 -16 -6
q-13 0 -13 17v69q-78 -93 -191 -93q-105 0 -176 72.5t-71 216.5q0 137 71 212t179 75q57 0 105.5 -13.5t71.5 -29.5t23 -28q0 -7 -5.5 -12t-10.5 -3q-70 54 -183 54q-95 0 -157 -68t-62 -188q0 -130 61.5 -193.5t155.5 -63.5q55 0 106 27.5t83 72.5v122z" />
    <glyph glyph-name="gcommaaccent.sc" horiz-adv-x="635" 
d="M514 245h-172q-3 5 -3 15q0 16 27 16h148q16 0 22.5 -7t6.5 -25v-239q-6 -6 -16 -6q-13 0 -13 17v69q-78 -93 -191 -93q-105 0 -176 72.5t-71 216.5q0 137 71 212t179 75q57 0 105.5 -13.5t71.5 -29.5t23 -28q0 -7 -5.5 -12t-10.5 -3q-70 54 -183 54q-95 0 -157 -68
t-62 -188q0 -130 61.5 -193.5t155.5 -63.5q55 0 106 27.5t83 72.5v122zM331 -126q-12 0 -21.5 7.5t-9.5 20.5q0 29 29 29q31 0 31 -47q0 -36 -10 -62t-24 -26q-12 0 -16 9q21 28 21 69z" />
    <glyph glyph-name="gdotaccent.sc" horiz-adv-x="635" 
d="M514 245h-172q-3 5 -3 15q0 16 27 16h148q16 0 22.5 -7t6.5 -25v-239q-6 -6 -16 -6q-13 0 -13 17v69q-78 -93 -191 -93q-105 0 -176 72.5t-71 216.5q0 137 71 212t179 75q57 0 105.5 -13.5t71.5 -29.5t23 -28q0 -7 -5.5 -12t-10.5 -3q-70 54 -183 54q-95 0 -157 -68
t-62 -188q0 -130 61.5 -193.5t155.5 -63.5q55 0 106 27.5t83 72.5v122zM289 688q0 29 28 29q29 0 29 -29q0 -28 -29 -28q-28 0 -28 28z" />
    <glyph glyph-name="germandbls.sc" horiz-adv-x="1102" 
d="M269 568q68 0 114 -15.5t67 -35.5q9 -7 9 -20q0 -5 -5 -10t-11 -6q-51 51 -175 51q-78 0 -114.5 -28.5t-36.5 -72.5q0 -45 39.5 -72.5t141.5 -56.5q97 -28 140.5 -65t44.5 -100q0 -69 -53 -107t-154 -38q-98 0 -166 37q-42 23 -42 40q0 16 10 19q29 -29 82.5 -46
t113.5 -17q92 0 135.5 30t43.5 81q0 48 -37 77.5t-131 57.5q-113 34 -155.5 67.5t-42.5 93.5q0 59 45 97.5t137 38.5zM820 568q68 0 114 -15.5t67 -35.5q9 -7 9 -20q0 -5 -5 -10t-11 -6q-51 51 -175 51q-78 0 -114.5 -28.5t-36.5 -72.5q0 -45 39.5 -72.5t141.5 -56.5
q97 -28 140.5 -65t44.5 -100q0 -69 -53 -107t-154 -38q-98 0 -166 37q-42 23 -42 40q0 16 10 19q29 -29 82.5 -46t113.5 -17q92 0 135.5 30t43.5 81q0 48 -37 77.5t-131 57.5q-113 34 -155.5 67.5t-42.5 93.5q0 59 45 97.5t137 38.5z" />
    <glyph glyph-name="guillemotleft.case" horiz-adv-x="485" 
d="M51 363l173 191q3 2 10 2q4 0 8 -4.5t4 -8.5q0 -7 -7 -14l-161 -179l165 -183q2 -6 2 -10t-3.5 -7.5t-7.5 -3.5q-7 0 -14 7l-171 183q-4 5 -4 12q0 9 6 15zM235 363l173 191q3 2 10 2q4 0 8 -4.5t4 -8.5q0 -7 -7 -14l-161 -179l165 -183q2 -6 2 -10t-3.5 -7.5t-7.5 -3.5
q-7 0 -14 7l-171 183q-4 5 -4 12q0 9 6 15z" />
    <glyph glyph-name="guillemotright.case" horiz-adv-x="485" 
d="M250 337l-173 -191q-3 -2 -10 -2q-4 0 -8 4.5t-4 8.5q0 7 7 14l161 179l-165 183q-2 6 -2 10t3.5 7.5t7.5 3.5q7 0 14 -7l171 -183q4 -5 4 -12q0 -9 -6 -15zM434 337l-173 -191q-3 -2 -10 -2q-4 0 -8 4.5t-4 8.5q0 7 7 14l161 179l-165 183q-2 6 -2 10t3.5 7.5t7.5 3.5
q7 0 14 -7l171 -183q4 -5 4 -12q0 -9 -6 -15z" />
    <glyph glyph-name="guilsinglleft.case" horiz-adv-x="301" 
d="M51 363l173 191q3 2 10 2q4 0 8 -4.5t4 -8.5q0 -7 -7 -14l-161 -179l165 -183q2 -6 2 -10t-3.5 -7.5t-7.5 -3.5q-7 0 -14 7l-171 183q-4 5 -4 12q0 9 6 15z" />
    <glyph glyph-name="guilsinglright.case" horiz-adv-x="301" 
d="M250 337l-173 -191q-3 -2 -10 -2q-4 0 -8 4.5t-4 8.5q0 7 7 14l161 179l-165 183q-2 6 -2 10t3.5 7.5t7.5 3.5q7 0 14 -7l171 -183q4 -5 4 -12q0 -9 -6 -15z" />
    <glyph glyph-name="hbar.sc" horiz-adv-x="653" 
d="M620 427h-77v-422q-7 -5 -16 -5q-17 0 -17 17v252h-367v-263q-6 -6 -17 -6q-16 0 -16 17v410h-91q-3 12 -3 16q0 16 16 16h78v96q7 5 16 5q17 0 17 -17v-84h367v96q7 5 16 5q17 0 17 -17v-84h90q3 -5 3 -15q0 -17 -16 -17zM143 427v-127h367v127h-367z" />
    <glyph glyph-name="hcircumflex.sc" horiz-adv-x="653" 
d="M473 657q-5 -17 -21 -17q-6 0 -13 4q-14 7 -54 38t-59 43q-19 -12 -59 -43t-54 -38q-7 -4 -13 -4q-16 0 -21 17q14 9 46 35.5t58.5 45.5t41.5 19q13 0 39 -18.5t59 -45t50 -36.5zM526 560q17 0 17 -17v-538q-7 -5 -16 -5q-17 0 -17 17v252h-367v-263q-6 -6 -17 -6
q-16 0 -16 17v538q7 5 16 5q17 0 17 -17v-243h367v255q7 5 16 5z" />
    <glyph glyph-name="hyphen.case" horiz-adv-x="432" 
d="M333 336h-268l-2 4q-2 3 -2 9q0 19 27 19h281q4 -3 4 -15q0 -17 -40 -17z" />
    <glyph glyph-name="i.latn_TRK" horiz-adv-x="284" 
d="M112 470q27 0 37 -11.5t10 -41.5v-361q0 -23 24 -23h27q4 -4 4 -13q0 -20 -42 -20q-43 0 -43 39v370q0 26 -26 26h-28q-5 7 -5 16q0 19 42 19zM110 613q0 29 28 29q29 0 29 -29q0 -28 -29 -28q-28 0 -28 28z" />
    <glyph glyph-name="i.latn_TRK.sc" horiz-adv-x="253" 
d="M126 560q17 0 17 -17v-537q-6 -6 -17 -6q-16 0 -16 17v538q7 5 16 5zM98 688q0 29 28 29q29 0 29 -29q0 -28 -29 -28q-28 0 -28 28z" />
    <glyph glyph-name="iacute.sc" horiz-adv-x="253" 
d="M126 560q17 0 17 -17v-537q-6 -6 -17 -6q-16 0 -16 17v538q7 5 16 5zM42 657q14 9 46.5 35.5t59.5 45.5t40 19q23 0 23 -19q-21 -10 -54 -35t-59 -44t-35 -19q-16 0 -21 17z" />
    <glyph glyph-name="ibreve.sc" horiz-adv-x="253" 
d="M30 743q2 -38 28 -59q22 -18 69 -18q49 0 70 19q27 24 27 58q5 4 14 4q14 0 14 -11q0 -36 -33 -69q-31 -30 -92 -30q-55 0 -87 26q-38 31 -38 72q0 12 14 12q10 0 14 -4zM126 560q17 0 17 -17v-537q-6 -6 -17 -6q-16 0 -16 17v538q7 5 16 5z" />
    <glyph glyph-name="icircumflex.sc" horiz-adv-x="253" 
d="M274 657q-5 -17 -21 -17q-6 0 -13 4q-14 7 -54 38t-59 43q-19 -12 -59 -43t-54 -38q-7 -4 -13 -4q-16 0 -21 17q14 9 46 35.5t58.5 45.5t41.5 19q13 0 39 -18.5t59 -45t50 -36.5zM126 560q17 0 17 -17v-537q-6 -6 -17 -6q-16 0 -16 17v538q7 5 16 5z" />
    <glyph glyph-name="idieresis.sc" horiz-adv-x="253" 
d="M126 560q17 0 17 -17v-537q-6 -6 -17 -6q-16 0 -16 17v538q7 5 16 5zM-8 685q0 29 28 29q29 0 29 -29q0 -28 -29 -28q-28 0 -28 28zM205 685q0 29 28 29q29 0 29 -29q0 -28 -29 -28q-28 0 -28 28z" />
    <glyph glyph-name="idotaccent" horiz-adv-x="284" 
d="M112 470q27 0 37 -11.5t10 -41.5v-361q0 -23 24 -23h27q4 -4 4 -13q0 -20 -42 -20q-43 0 -43 39v370q0 26 -26 26h-28q-5 7 -5 16q0 19 42 19zM110 613q0 29 28 29q29 0 29 -29q0 -28 -29 -28q-28 0 -28 28z" />
    <glyph glyph-name="idotaccent.sc" horiz-adv-x="253" 
d="M126 560q17 0 17 -17v-537q-6 -6 -17 -6q-16 0 -16 17v538q7 5 16 5zM98 688q0 29 28 29q29 0 29 -29q0 -28 -29 -28q-28 0 -28 28z" />
    <glyph glyph-name="igrave.sc" horiz-adv-x="253" 
d="M211 657q-5 -17 -21 -17q-9 0 -35 19t-59 44t-54 35q0 19 23 19q13 0 40 -19t59.5 -45.5t46.5 -35.5zM126 560q17 0 17 -17v-537q-6 -6 -17 -6q-16 0 -16 17v538q7 5 16 5z" />
    <glyph glyph-name="ij.sc" horiz-adv-x="587" 
d="M461 560q16 0 16 -16v-447q0 -52 -26.5 -74.5t-78.5 -22.5q-92 0 -92 23q0 7 3 14h86q75 0 75 72v446q8 5 17 5zM126 560q17 0 17 -17v-537q-6 -6 -17 -6q-16 0 -16 17v538q7 5 16 5z" />
    <glyph glyph-name="imacron.sc" horiz-adv-x="253" 
d="M243 676h-268l-2 4q-2 3 -2 9q0 19 27 19h281q4 -3 4 -15q0 -17 -40 -17zM126 560q17 0 17 -17v-537q-6 -6 -17 -6q-16 0 -16 17v538q7 5 16 5z" />
    <glyph glyph-name="iogonek.sc" horiz-adv-x="253" 
d="M110 10v545q7 5 16 5q17 0 17 -17v-539q-58 -58 -58 -102q0 -48 62 -48q3 -6 3 -14q0 -13 -22 -13q-14 0 -28.5 4t-29.5 21t-15 45q0 50 55 113z" />
    <glyph glyph-name="itilde.sc" horiz-adv-x="253" 
d="M45 721q25 0 82.5 -16t80.5 -16q40 0 64 24q10 -7 10 -19q0 -14 -17.5 -25t-48.5 -11q-27 0 -89 15.5t-80 15.5q-19 0 -38 -10t-23 -18q-14 8 -14 19t23 26t50 15zM126 560q17 0 17 -17v-537q-6 -6 -17 -6q-16 0 -16 17v538q7 5 16 5z" />
    <glyph glyph-name="jcircumflex.sc" horiz-adv-x="334" 
d="M357 657q-5 -17 -21 -17q-6 0 -13 4q-14 7 -54 38t-59 43q-19 -12 -59 -43t-54 -38q-7 -4 -13 -4q-16 0 -21 17q14 9 46 35.5t58.5 45.5t41.5 19q13 0 39 -18.5t59 -45t50 -36.5zM208 560q16 0 16 -16v-447q0 -52 -26.5 -74.5t-78.5 -22.5q-92 0 -92 23q0 7 3 14h86
q75 0 75 72v446q8 5 17 5z" />
    <glyph glyph-name="kcommaaccent.sc" horiz-adv-x="533" 
d="M127 560q16 0 16 -17v-277q80 54 146 133.5t104 158.5q8 2 14 2q11 0 11 -12q0 -10 -13 -34q-65 -118 -172 -215q26 -25 71 -95.5t85 -121t72 -50.5h18q3 -5 3 -13q0 -19 -32 -19q-28 0 -62 34t-61.5 76.5t-61.5 94t-56 74.5q-26 -23 -66 -50v-224q-5 -5 -19 -5t-14 16
v539q7 5 17 5zM268 -126q-12 0 -21.5 7.5t-9.5 20.5q0 29 29 29q31 0 31 -47q0 -36 -10 -62t-24 -26q-12 0 -16 9q21 28 21 69z" />
    <glyph glyph-name="kgreenlandic.sc" horiz-adv-x="533" 
d="M127 560q16 0 16 -17v-277q80 54 146 133.5t104 158.5q8 2 14 2q11 0 11 -12q0 -10 -13 -34q-65 -118 -172 -215q26 -25 71 -95.5t85 -121t72 -50.5h18q3 -5 3 -13q0 -19 -32 -19q-28 0 -62 34t-61.5 76.5t-61.5 94t-56 74.5q-26 -23 -66 -50v-224q-5 -5 -19 -5t-14 16
v539q7 5 17 5z" />
    <glyph glyph-name="lacute.sc" horiz-adv-x="479" 
d="M128 560q15 0 15 -17v-510h305q4 -4 4 -15q0 -18 -23 -18h-303q-16 0 -16 17v539q5 4 18 4zM114 657q14 9 46.5 35.5t59.5 45.5t40 19q23 0 23 -19q-21 -10 -54 -35t-59 -44t-35 -19q-16 0 -21 17z" />
    <glyph glyph-name="lcaron.sc" horiz-adv-x="479" 
d="M128 560q15 0 15 -17v-510h305q4 -4 4 -15q0 -18 -23 -18h-303q-16 0 -16 17v539q5 4 18 4zM279 503q-12 0 -21.5 7.5t-9.5 20.5q0 29 29 29q31 0 31 -47q0 -36 -10 -62t-24 -26q-12 0 -16 9q21 28 21 69z" />
    </font>
</defs>
</svg>
